<?xml version="1.0" encoding="UTF-8" standalone="no"?>
<svg
   xmlns:svg="http://www.w3.org/2000/svg"
   xmlns="http://www.w3.org/2000/svg"
   width="800.0"
   height="800.0"

>
    <g transform="scale(2.30769230591716, -2.30769230591716)   translate(86.66666683333332,-138.66666677333333)" stroke-width="0.43333333366666665"  fill="none">
       <!-- hidden lines -->
       <g  stroke="rgb(160,160,160)" fill="none" stroke-dasharray="0.43333333366666665,0.43333333366666665" >

       </g>

       <!-- solid lines -->
       <g  stroke="rgb(0,0,0)" fill="none">
			<path d="M0.0,0.0 L0.0,-14.555381893430022 L0.0,-28.92772141432087 L0.0,-42.936278054171716 L0.0,-56.404886085282556 L0.0,-69.16416994699375 L0.0,-81.05367424163535 L0.0,-91.92388155425117 L0.0,-101.63809272084386 L0.0,-110.07414589967694 L0.0,-117.12595282731449 L0.0,-122.70483294008778 L0.0,-126.74062858363708 L0.0,-129.18258728612153 L0.0,-129.99999999999997 " />
			<path d="M0.0,130.0 L0.0,129.18258728612153 L0.0,126.74062858363708 L0.0,122.70483294008778 L0.0,117.1259528273145 L0.0,110.07414589967696 L0.0,101.63809272084389 L0.0,91.9238815542512 L0.0,81.05367424163538 L0.0,69.16416994699378 L0.0,56.40488608528258 L0.0,42.936278054171744 L0.0,28.927721414320903 L0.0,14.555381893430054 L0.0,1.184830011879967e-12 " />
			<path d="M3.175,0.0 L3.175,-14.555381893430022 L3.175,-28.92772141432087 L3.175,-42.936278054171716 L3.175,-56.404886085282556 L3.175,-69.16416994699375 L3.175,-81.05367424163535 L3.175,-91.92388155425117 L3.175,-101.63809272084386 L3.175,-110.07414589967694 L3.175,-117.12595282731449 L3.175,-122.70483294008778 L3.175,-126.74062858363708 L3.175,-129.18258728612153 L3.175,-129.99999999999997 " />
			<path d="M3.175,130.0 L3.175,129.18258728612153 L3.175,126.74062858363708 L3.175,122.70483294008778 L3.175,117.1259528273145 L3.175,110.07414589967696 L3.175,101.63809272084389 L3.175,91.9238815542512 L3.175,81.05367424163538 L3.175,69.16416994699378 L3.175,56.40488608528258 L3.175,42.936278054171744 L3.175,28.927721414320903 L3.175,14.555381893430054 L3.175,1.184830011879967e-12 " />
			<path d="M12.699999999999998,0.0 L12.699999999999998,-14.26567381151271 L12.699999999999998,-28.351948497708907 L12.699999999999998,-42.081680981362716 L12.699999999999998,-55.28221191031587 L12.699999999999998,-67.78753694901032 L12.699999999999998,-79.44039437932588 L12.699999999999998,-90.09424275793097 L12.699999999999998,-99.61510375995783 L12.699999999999998,-107.88324703417375 L12.699999999999998,-114.79469588161697 L12.699999999999998,-120.26253482291487 L12.699999999999998,-124.21800261086659 L12.699999999999998,-126.61135694302277 L12.699999999999998,-127.41249999999998 " />
			<path d="M12.699999999999998,127.4125 L12.699999999999998,126.61135694302277 L12.699999999999998,124.21800261086659 L12.699999999999998,120.26253482291487 L12.699999999999998,114.79469588161699 L12.699999999999998,107.88324703417378 L12.699999999999998,99.61510375995786 L12.699999999999998,90.094242757931 L12.699999999999998,79.44039437932591 L12.699999999999998,67.78753694901035 L12.699999999999998,55.282211910315894 L12.699999999999998,42.081680981362744 L12.699999999999998,28.35194849770894 L12.699999999999998,14.265673811512743 L12.699999999999998,1.1599610161283636e-12 " />
			<path d="M7.9375,89.46343176307678 L7.858507532053865,89.4659355482224 L7.779206414510655,89.4735466085401 L7.700292802138068,89.48637840330701 L7.622476863985019,89.50449797111598 L7.546482391611722,89.5279271447356 L7.473046363490495,89.5566427754168 L7.402918321644428,89.59057612077174 L7.336859437850153,89.62961152614773 L7.275641167990087,89.67358450521586 L7.220043414398686,89.7222793012911 L7.170852137306304,89.77542598669697 L7.148905476228279,89.8035688123334 L7.12885637774345,89.83269713328579 L7.110803365643909,89.86276042151967 L7.094844675527299,89.89370406302118 L7.081078110338637,89.92546921633878 L7.069600887211504,89.95799266332784 L7.060509476020443,89.99120665155301 L7.053899430139414,90.02503872770913 L7.049865209984242,90.0594115613263 L7.048500000000001,90.094242757931 " />
			<path d="M7.048500000000001,90.094242757931 L7.049865216208509,90.12906057464086 L7.053899450539226,90.16339380403676 L7.0605095131729145,90.19716132211853 L7.069600939890832,90.23028728043434 L7.0810781748042,90.26270088998984 L7.09484474657077,90.29433621665106 L7.110803437432262,90.32513198728452 L7.1288564444897755,90.35503140596573 L7.148905532717555,90.38398197967497 L7.170852179298787,90.41193535298703 L7.2200434199873165,90.46467683262976 L7.2756411377772086,90.51294600295296 L7.336859385678231,90.55649003678231 L7.402918273395899,90.59510925949827 L7.473046353605952,90.62865380282939 L7.546482456933884,90.65702080694929 L7.622477034301912,90.68015222563413 L7.70029308662978,90.69803331169601 L7.779206783199739,90.71069188236646 L7.85850789132011,90.71819848676249 L7.9375001612457465,90.72066762002639 L8.016492420764635,90.71819846724091 L8.095793503189164,90.71069184599757 L8.174707171402115,90.69803326150435 L8.252523197579757,90.68015216387 L8.328517751251303,90.65702073529364 L8.401953831571857,90.62865372311099 L8.472081887604348,90.59510917434535 L8.538140749169298,90.55648994985724 L8.599358969584442,90.51294591863345 L8.654956660379508,90.46467675520282 L8.704147876834696,90.41193528561227 L8.72609451293503,90.3839819179141 L8.74614359195463,90.35503134984329 L8.764196591095414,90.32513193658191 L8.78015527525281,90.29433617099549 L8.793921841368725,90.26270084901208 L8.80539907148486,90.23028724401038 L8.814490494084996,90.19716129071132 L8.821100553232071,90.16339377915493 L8.825134784922852,90.12906055943245 L8.8265,90.094242757931 " />
			<path d="M8.8265,90.094242757931 L8.82513478957922,90.05941155496626 L8.821100568823177,90.02503872026459 L8.814490522768464,89.99120664585375 L8.805399111973609,89.95799266050672 L8.79392188968971,89.92546921642874 L8.780155325541532,89.89370406541846 L8.764196636386096,89.86276042533076 L8.746143624932362,89.83269713757468 L8.726094526622274,89.80356881628487 L8.704147865190038,89.77542598971075 L8.654956586044898,89.72227930164172 L8.59935882970835,89.67358450333678 L8.53814055809037,89.62961152351382 L8.472081674769681,89.5905761189012 L8.40195363570027,89.55664277509686 L8.328517611291698,89.52792714573675 L8.252523141154485,89.5044979724674 L8.174707201455627,89.4863784039998 L8.095793583483132,89.47354660830398 L8.016492460672268,89.46593554778677 L7.937500000000011,89.46343176307678 " />
			<path d="M7.9375,-89.46343176307674 L8.016492460666699,-89.4659355477864 L8.095793583481166,-89.4735466083037 L8.174707201457728,-89.48637840400016 L8.252523141157909,-89.50449797246827 L8.32851761129379,-89.52792714573745 L8.401953635699929,-89.55664277509672 L8.47208167476747,-89.59057611890003 L8.538140558087806,-89.62961152351214 L8.59935882970693,-89.6735845033356 L8.654956586045284,-89.72227930164202 L8.704147865191754,-89.77542598971282 L8.726094526624198,-89.80356881628752 L8.746143624934136,-89.83269713757754 L8.764196636387405,-89.86276042533324 L8.780155325542168,-89.89370406541988 L8.793921889689628,-89.92546921642851 L8.80539911197296,-89.95799266050443 L8.814490522767562,-89.99120664584945 L8.821100568822422,-90.02503872025908 L8.825134789578907,-90.05941155496159 L8.8265,-90.09424275793097 " />
			<path d="M8.8265,-90.09424275793097 L8.825134784574777,-90.12906056386686 L8.821100551863461,-90.16339378788892 L8.814490491059475,-90.19716130357986 L8.805399066202755,-90.23028726082092 L8.79392183326755,-90.26270086954702 L8.78015526380766,-90.29433619501467 L8.764196575819248,-90.32513196382477 L8.746143572398438,-90.35503138003108 L8.72609448868793,-90.38398195075192 L8.704147847523936,-90.41193532079105 L8.654956619975247,-90.46467679408877 L8.59935891705012,-90.51294595986518 L8.538140683766652,-90.55648999202177 L8.472081808887937,-90.59510921600226 L8.401953739382607,-90.62865376281475 L8.328517645709447,-90.65702077161491 L8.252523079077434,-90.68015219541618 L8.174707040595862,-90.69803328694024 L8.095793360992355,-90.7106918640668 L8.016492268339842,-90.71819847678897 L7.937499999996822,-90.7206676200264 L7.858507731653971,-90.7181984767886 L7.779206639001883,-90.71069186406609 L7.700292959398882,-90.69803328693922 L7.622476920917857,-90.68015219541492 L7.546482354286419,-90.65702077161347 L7.473046260613844,-90.62865376281323 L7.402918191109087,-90.5951092160007 L7.336859316230901,-90.55648999202019 L7.275641082947902,-90.5129459598636 L7.220043380023189,-90.46467679408727 L7.1708521524748745,-90.41193532078962 L7.14890551131106,-90.38398195075057 L7.128856427600728,-90.35503138002983 L7.110803424180087,-90.32513196382362 L7.094844736191839,-90.29433619501364 L7.0810781667321,-90.26270086954612 L7.069600933797025,-90.23028726082013 L7.060509508940408,-90.19716130357924 L7.053899448136494,-90.16339378788845 L7.049865215425215,-90.1290605638666 L7.048500000000001,-90.09424275793099 " />
			<path d="M7.048500000000001,-90.09424275793097 L7.049865209984211,-90.05941156132667 L7.053899430139314,-90.02503872770974 L7.06050947602026,-89.99120665155377 L7.069600887211245,-89.95799266332862 L7.081078110338325,-89.92546921633955 L7.094844675526964,-89.89370406302186 L7.110803365643585,-89.86276042152022 L7.128856377743174,-89.83269713328619 L7.148905476228086,-89.80356881233364 L7.170852137306222,-89.77542598669707 L7.220043414398879,-89.7222793012909 L7.275641167990562,-89.67358450521549 L7.33685943785083,-89.62961152614727 L7.402918321645149,-89.59057612077135 L7.473046363491051,-89.55664277541655 L7.546482391611901,-89.52792714473551 L7.622476863984668,-89.50449797111605 L7.700292802137163,-89.48637840330717 L7.7792064145093995,-89.47354660854023 L7.858507532052776,-89.46593554822243 L7.9374999999999885,-89.46343176307674 " />
			<path d="M7.048500000000002,9.547918011776346e-15 L7.049811476511809,0.04827073354362072 L7.053726003858795,0.09625226503297743 L7.060204189793544,0.14378127763039103 L7.069194011921461,0.19069799478410812 L7.080630954623051,0.23684690539146416 L7.094438148558085,0.2820775062430236 L7.110526512751651,0.32624506174770657 L7.128794899262089,0.36921138093890277 L7.149130240430819,0.41084561176157136 L7.17140769871405,0.4510250526403284 L7.195490819096376,0.4896359813285204 L7.221231684086262,0.5265745010382846 L7.248481104658272,0.5617597122502221 L7.277158975452663,0.5952065000843688 L7.307171219061051,0.6269024344856275 L7.338418031669686,0.6568270627278554 L7.3708021375683215,0.6849631390540514 L7.404228711572313,0.7112964986070585 L7.473841750318377,0.7585130560483081 L7.546544608982457,0.7984202435578929 L7.621690313379923,0.8310146381370013 L7.698750431350077,0.8563408329993073 L7.777215555094682,0.8744311578774461 L7.856600058190361,0.8853114003975424 L7.936438632436298,0.8889993664648446 L8.016325024528129,0.8854985164759552 L8.095836103662768,0.8747860755562352 L8.174475833890556,0.8568333837741869 L8.251725665714282,0.8316148339001767 L8.32703994987581,0.7991117789024834 L8.399841070964344,0.7593166227787159 L8.469514140970459,0.7122372806280155 L8.502973872102942,0.6859739744174906 L8.535401084113294,0.6579021938985543 L8.56670567193367,0.628029645351904 L8.596793944268432,0.5963660867448357 L8.625568360077475,0.5629235612203736 L8.65293188451488,0.5277103597373353 L8.678787128275395,0.49072845098149204 L8.702981254996137,0.45206134661887754 L8.725364522996099,0.41181365701839234 L8.745798820005003,0.3700999879410751 L8.764157824803132,0.32704407849903105 L8.780327166163914,0.2827779566377825 L8.79420457909928,0.23744111214204133 L8.805700058407753,0.1911796871649029 L8.814736009525333,0.14414568428046204 L8.821247396679098,0.09649619205985066 L8.825181888343602,0.04839262817069728 L8.826499999999998,1.4765966227514582e-14 " />
			<path d="M8.826499999999998,-7.841470600912013e-15 L8.825184187869752,-0.04835043058157872 L8.821256755623384,-0.09641044000588976 L8.814757325243967,-0.14401589903419215 L8.805738231260749,-0.1910062483119505 L8.794264382950892,-0.23722522860546896 L8.780413123897024,-0.28252162862368907 L8.764274088900626,-0.32675005042516003 L8.74594905825126,-0.3697716924101807 L8.725551809351606,-0.4114551498981141 L8.703207965698356,-0.45167723328987397 L8.679054843218914,-0.4903238038155825 L8.653241293963944,-0.5272906268674021 L8.625919880111628,-0.5624936201655377 L8.597189543455807,-0.5959284536403997 L8.5671471853767,-0.6275869952475969 L8.535890163660506,-0.6574573873056276 L8.503511968249803,-0.6855300469346245 L8.470102483480252,-0.7117974316075921 L8.400532609186474,-0.7588951189109191 L8.327836425532821,-0.7987230330505921 L8.252626268044256,-0.8312739845067753 L8.175476831390474,-0.8565559061693999 L8.096930483813802,-0.8745872845800167 L8.01750215758175,-0.8853929415384083 L7.93768398543438,-0.8889999809614662 L7.85786010086329,-0.885425600290185 L7.778415905342516,-0.8746503589602166 L7.699846504111321,-0.8566456731350786 L7.622669481408616,-0.8313860388567699 L7.547429479096473,-0.7988529254184094 L7.474703047368475,-0.7590388528110916 L7.405103934827034,-0.7119518381865722 L7.37168052724345,-0.6856889367143006 L7.339288985701378,-0.6576203962772889 L7.30801924357603,-0.6277539250292528 L7.27796481197791,-0.5960992787152231 L7.249223042431353,-0.5626684934374881 L7.221890256332358,-0.5274691463466247 L7.196061889886093,-0.4905003053894472 L7.171891368037651,-0.45184559001566293 L7.149529110252299,-0.411610097145478 L7.129113751448654,-0.36990898245345194 L7.110771979401101,-0.32686658767281834 L7.094618374569811,-0.2826155845943549 L7.080755252358309,-0.23729613575980185 L7.069272507798618,-0.19105507184982956 L7.060247462663979,-0.14404508576655528 L7.053744715009132,-0.096423943410608 L7.049815991138179,-0.048353711152743284 L7.048500000000002,-1.2989609388114332e-14 " />
			<path d="M7.9375,-127.40939853578307 L7.336859441911669,-127.41081431462 L7.128856375066266,-127.4119646637893 L7.069600888026805,-127.41235452007946 L7.053899431177354,-127.41246244212277 L7.049865210421003,-127.41249048241559 L7.048500000000001,-127.4125 " />
			<path d="M7.048500000000001,-127.4125 L7.0498652162107405,-127.41249048237616 L7.053899450546089,-127.4124624419906 L7.069600939908346,-127.41235451972815 L7.128856444538518,-127.4119646633462 L7.336859385877377,-127.41081431488577 L7.9375001617090355,-127.40939853578307 L8.538140749357032,-127.41081431552313 L8.746143592010887,-127.41196466357843 L8.805399071500096,-127.41235451980563 L8.821100553236022,-127.41246244201685 L8.825134784923858,-127.41249048238411 L8.8265,-127.4125 " />
			<path d="M8.8265,-127.4125 L8.825134790015788,-127.41249048241869 L8.821100569860686,-127.41246244212999 L8.805399112788756,-127.41235452008479 L8.746143622256806,-127.4119646637726 L8.538140562149163,-127.41081431463898 L7.937500000000011,-127.40939853578307 " />
			<path d="M7.9375,127.40939853578307 L7.336859441905944,127.41081431462003 L7.128856375070114,127.41196466378928 L7.069600888025482,127.41235452007948 L7.053899431175769,127.41246244212279 L7.049865210420341,127.41249048241559 L7.048500000000001,127.4125 " />
			<path d="M7.626563638022704,127.40977794885316 L7.795520785911177,127.40947764196716 " />
			<path d="M8.079479267368548,127.40947764202744 L8.248436462375707,127.40977794909747 " />
			<path d="M8.460206759463519,127.41047075235862 L8.470223004998049,127.41051223818211 " />
			<path d="M8.8265,127.4125 L8.825134790015786,127.41249048241869 L8.821100569860684,127.41246244212999 L8.805399112788757,127.41235452008479 L8.746143622256833,127.41196466377258 L8.538140562149128,127.41081431463898 L7.9375000000000115,127.40939853578307 " />
			<path d="M7.048499999999999,-9.325873406851315e-15 L7.049811460674203,0.04827044232540903 L7.053725939701504,0.09625167596981038 L7.060204044617925,0.1437803918250972 L7.069193754048426,0.19069682059556914 L7.080630554507737,0.23684545783315336 L7.0944375797708235,0.2820758062685698 L7.11052575281298,0.32624313543843353 L7.128793930319559,0.3692092586082928 L7.149129049765336,0.41084332699160286 L7.171406279063506,0.45102264126463637 L7.195489168784311,0.4896334803773295 L7.221229806943307,0.5265719476600643 L7.248479007845229,0.5617571404155599 L7.277156675623112,0.5952039485548821 L7.307168741224644,0.6268999430880013 L7.3384154052614905,0.6568246672152305 L7.370799396116159,0.6849608709403846 L7.404225892365806,0.7112943849969438 L7.473838900874639,0.7585113142434989 L7.546541915402298,0.7984189246102179 L7.621687967332552,0.8310137465501539 L7.698748597957232,0.8563403218492104 L7.777214368254,0.8744309403352067 L7.8565996129230395,0.8853113596941357 L7.936438978171904,0.8889993668775071 L8.016326145462845,0.8854984166883154 L8.095837924365371,0.8747857460073492 L8.17447824446362,0.8568327170775493 L8.25172852851381,0.831613752185505 L8.327043106892182,0.79911023995257 L8.399844351868431,0.7593146250558502 L8.469517371858693,0.7122348672704579 L8.502977014231414,0.6859713842352096 L8.535404097024403,0.6578994557534913 L8.566708517544367,0.6280267943940726 L8.596796587583345,0.5963631644901967 L8.625570769938445,0.5629206156021105 L8.652934037900932,0.5277074403171765 L8.67878901729999,0.4907255974275464 L8.702982877064052,0.45205859993059994 L8.725365881513385,0.4118110579501628 L8.74579992442975,0.37009757587464054 L8.76415869048581,0.32704189034292147 L8.780327813989746,0.28277602576858957 L8.79420503494501,0.23743946740244642 L8.805700352425292,0.191178351933337 L8.814736175264631,0.14414467562728805 L8.821247470062708,0.09649552000495332 L8.825181906505316,0.0483922950573642 L8.8265,-7.771561172376096e-16 " />
			<path d="M8.826131709673259,-0.025586650636155155 L8.826131646263592,-0.025588852756718575 " />
			<path d="M8.826103950529781,-0.026533201391039783 L8.821104836539098,-0.09779299141124216 L8.810472681704148,-0.1680467253542584 L8.79438833766252,-0.23677709729753954 L8.773092747201616,-0.30348930473856095 " />
			<path d="M8.36264237825769,-0.7807528186874899 L8.324207834025605,-0.8004861396556517 L8.285094326560719,-0.8182293020466651 L8.245384927663107,-0.8339831367042112 L8.205160131449693,-0.8477494023512017 L8.164498054870515,-0.8595306134439398 L8.123474629885456,-0.8693298748334837 L8.040637646807188,-0.8829969596651726 L7.95721988985986,-0.8887812595223823 L7.873710797552468,-0.8867084888415125 L7.790517699195,-0.8767651935431987 L7.708197496089155,-0.8589187127232291 L7.667547486099024,-0.8470222166850361 L7.627338758896353,-0.8331392470015355 L7.587649893892074,-0.8172673423115256 L7.548561829060156,-0.7994048454393469 L7.510158060942972,-0.7795510710496316 L7.472524855224236,-0.7577064825956658 L7.4357514696630895,-0.7338728805388305 L7.3999303911829575,-0.7080536038165952 L7.365157588908785,-0.6802537465365356 L7.331532784946247,-0.6504803918738464 L7.299159744696555,-0.6187428651498189 L7.268146588500451,-0.5850530080687584 L7.238606126405015,-0.5494254760908104 L7.210643180946277,-0.51185952895701 L7.184396915091717,-0.4723947102374606 L7.160044853275815,-0.431143245906767 " />
			<path d="M7.15843297769882,-0.42822374647080186 L7.136227545816958,-0.38507588859159464 L7.116253658339982,-0.3404048053553088 " />
			<path d="M3.175,130.0 L0.0,130.0 " />
			<path d="M3.175,-130.0 L0.0,-130.0 " />
			<path d="M12.699999999999998,127.4125 L8.826500000000001,127.4125 " />
			<path d="M7.048500000000001,127.4125 L3.1749999999999994,127.4125 " />
			<path d="M12.699999999999998,-127.4125 L8.826500000000001,-127.4125 " />
			<path d="M7.048500000000001,-127.4125 L3.1749999999999994,-127.4125 " />

       </g>
    </g>
    
</svg>
