<?xml version="1.0" encoding="UTF-8" standalone="no"?>
<svg
   xmlns:svg="http://www.w3.org/2000/svg"
   xmlns="http://www.w3.org/2000/svg"
   width="800.0"
   height="800.0"

>
    <g transform="scale(2.068965515814506, -2.068965515814506)   translate(96.66666683333335,-154.66666677333336)" stroke-width="0.48333333366666675"  fill="none">
       <!-- hidden lines -->
       <g  stroke="rgb(160,160,160)" fill="none" stroke-dasharray="0.48333333366666675,0.48333333366666675" >

       </g>

       <!-- solid lines -->
       <g  stroke="rgb(0,0,0)" fill="none">
			<path d="M0.0,0.0 L0.0,-16.23484903497964 L0.0,-32.26553542366559 L0.0,-47.890463983499224 L0.0,-62.91314217204593 L0.0,-77.1446510947238 L0.0,-90.40602126951636 L0.0,-102.53048327204938 L0.0,-113.36556495786431 L0.0,-122.7750088881012 L0.0,-130.64048584585078 L0.0,-136.8630828947133 L0.0,-141.3645472663644 L0.0,-144.08827043452018 L0.0,-144.99999999999997 " />
			<path d="M0.0,145.0 L0.0,144.08827043452018 L0.0,141.3645472663644 L0.0,136.8630828947133 L0.0,130.6404858458508 L0.0,122.77500888810123 L0.0,113.36556495786434 L0.0,102.53048327204941 L0.0,90.40602126951639 L0.0,77.14465109472384 L0.0,62.91314217204595 L0.0,47.89046398349925 L0.0,32.265535423665625 L0.0,16.234849034979675 L0.0,1.3180567748349858e-12 " />
			<path d="M3.175,0.0 L3.175,-16.23484903497964 L3.175,-32.26553542366559 L3.175,-47.890463983499224 L3.175,-62.91314217204593 L3.175,-77.1446510947238 L3.175,-90.40602126951636 L3.175,-102.53048327204938 L3.175,-113.36556495786431 L3.175,-122.7750088881012 L3.175,-130.64048584585078 L3.175,-136.8630828947133 L3.175,-141.3645472663644 L3.175,-144.08827043452018 L3.175,-144.99999999999997 " />
			<path d="M3.175,145.0 L3.175,144.08827043452018 L3.175,141.3645472663644 L3.175,136.8630828947133 L3.175,130.6404858458508 L3.175,122.77500888810123 L3.175,113.36556495786434 L3.175,102.53048327204941 L3.175,90.40602126951639 L3.175,77.14465109472384 L3.175,62.91314217204595 L3.175,47.89046398349925 L3.175,32.265535423665625 L3.175,16.234849034979675 L3.175,1.3180567748349858e-12 " />
			<path d="M12.7,0.0 L12.7,-15.94514095306233 L12.7,-31.689762507053622 L12.7,-47.035866910690224 L12.7,-61.79046799707924 L12.7,-75.76801809674036 L12.7,-88.79274140720688 L12.7,-100.70084447572918 L12.7,-111.34257599697827 L12.7,-120.58411002259801 L12.7,-128.30922890015327 L12.7,-134.4207847775404 L12.7,-138.84192129359394 L12.7,-141.5170400914214 L12.7,-142.41249999999997 " />
			<path d="M12.7,142.4125 L12.7,141.5170400914214 L12.7,138.84192129359394 L12.7,134.4207847775404 L12.7,128.30922890015327 L12.7,120.58411002259804 L12.7,111.34257599697831 L12.7,100.70084447572921 L12.7,88.7927414072069 L12.7,75.76801809674039 L12.7,61.79046799707927 L12.7,47.03586691069025 L12.7,31.689762507053658 L12.7,15.945140953062365 L12.7,1.2967404927621828e-12 " />
			<path d="M7.048499999999999,1.099120794378905e-14 L7.0498114791569835,0.04827078218233813 L7.053726014574248,0.09625236341706997 L7.06020421404052,0.14378142557549936 L7.06919405499089,0.1906981908939592 L7.080631021449372,0.23684714715833885 L7.094438243555408,0.2820777901670913 L7.110526639674292,0.3262453834727306 L7.128795061091537,0.36921173540181984 L7.149130439291173,0.4108459933534503 L7.171407935817972,0.45102545537621014 L7.1954910947236215,0.48963639902364414 L7.221231997596812,0.5265749274882043 L7.248481454855919,0.5617601417813046 L7.277159359555785,0.5952069262228882 L7.3071716328926195,0.6269028505801768 L7.338418470313638,0.6568274628074044 L7.370802595425129,0.684963517855608 L7.40422918241427,0.7112968516040844 L7.473842226209524,0.7585133469490768 L7.54654505884347,0.7984204638372803 L7.621690705202666,0.8310147870437617 L7.6987507375602435,0.8563409183703309 L7.77721575333221,0.8744311942132642 L7.856600132587382,0.885311407198409 L7.936438574738505,0.8889993663960168 L8.016324837372744,0.8854985331367257 L8.095835799643174,0.8747861305836683 L8.174475431357333,0.8568334951028426 L8.251725187652989,0.8316150145355428 L8.327039422674058,0.7991120358958742 L8.399840523067699,0.7593169563877908 L8.469513601421589,0.7122376836494269 L8.50297334737477,0.6859744069695812 L8.535400580962374,0.6579026511615902 L8.566705196719964,0.6280301214560788 L8.596793502836238,0.5963665747572817 L8.625567957630263,0.5629240531366144 L8.652931524897427,0.527710847280728 L8.678786812805265,0.49072892752722946 L8.702980984107178,0.45206180531975476 L8.725364296119903,0.4118140910680458 L8.745798635562409,0.3701003907623177 L8.76415768023087,0.3270444439276792 L8.780327057974322,0.28277827909949 L8.794204502971018,0.23744138681965343 L8.805700009305452,0.19117991015384628 L8.814735981846072,0.14414585272968428 L8.82124738442368,0.0964963042958244 L8.82518188531051,0.048392683802002456 L8.8265,1.5654144647214707e-14 " />
			<path d="M8.826499999999998,-8.631061216025425e-15 L8.82518861896723,-0.048269009930677606 L8.821274367880894,-0.09624885816551518 L8.81479663609246,-0.1437762360604195 L8.805807440493,-0.19069137844599332 L8.794371288865534,-0.2368387876655698 L8.780565040617853,-0.2820679750184501 L8.764477764895807,-0.3262342196083529 L8.74621059607705,-0.3691993445970752 L8.725876586645281,-0.41083251086336536 L8.703600557444929,-0.4510110280670078 L8.679518945316316,-0.48962118311811903 L8.653779648111295,-0.526559086051656 L8.626531854329727,-0.5617438171853413 L8.597855681843136,-0.5951902384083396 L8.567845186499774,-0.6268859388440192 L8.53660016326929,-0.6568104669557001 L8.504217879289321,-0.6849465778038027 L8.470793151429504,-0.7112801070003437 L8.401183845592927,-0.7584974093717615 L8.328484722788955,-0.7984058802688416 L8.253343047091935,-0.8310019627394013 L8.17628755600651,-0.8563302444529932 L8.097827189949651,-0.8744233179396284 L8.018447114488477,-0.8853070830276264 L7.938612246314954,-0.8889993042665362 L7.858728989153121,-0.8855033229883834 L7.779220675889285,-0.8747963507453443 L7.700583264166444,-0.8568497264270903 L7.6233352203800235,-0.8316378371588274 L7.548022104179127,-0.7991420251732687 L7.475221433749643,-0.7593546778191277 L7.405547990921514,-0.7122836865640545 L7.37208772855343,-0.6860247494756668 L7.339659734733425,-0.6579574608784479 L7.308354097971809,-0.6280895214719868 L7.278264492088188,-0.5964306828865729 L7.249488439648624,-0.5629929810968948 L7.222122603993817,-0.527784223621226 L7.196262245575081,-0.49080302778869933 L7.172060888723582,-0.4521327035261112 L7.1496693713898845,-0.4118784965386858 L7.129226713902178,-0.3701557471603884 L7.110859955724676,-0.32708901436353105 L7.094683994656366,-0.28281121653328034 L7.080801428470137,-0.23746278900706674 L7.069302398992263,-0.1911908583788955 L7.060264438622251,-0.14414843356855922 L7.0537523192930545,-0.0964936136557521 L7.049817903871655,-0.04838881247908555 L7.048499999999999,-1.3322676295501878e-14 " />
			<path d="M7.9375,-100.07026447656975 L8.016492045120915,-100.0727664111897 L8.095793005367156,-100.08037192358644 L8.174706610734205,-100.09319455475688 L8.252522611921554,-100.11130153656684 L8.328517165870435,-100.13471501469465 L8.40195326524634,-100.16341227579863 L8.47208135609626,-100.19732513297758 L8.538140266547368,-100.23633859944181 L8.59935854805059,-100.28028895616282 L8.654956309309268,-100.32896129511867 L8.704147601669886,-100.38208659560192 L8.726094276299353,-100.410219423466 L8.746143393388556,-100.43933836690658 L8.764196429486978,-100.46939301452225 L8.780155148823734,-100.50032886656011 L8.793921747646632,-100.53208719222192 L8.805399007242388,-100.56460487911598 L8.814490455220962,-100.59781427431331 L8.821100534563547,-100.631643016372 L8.825134779850224,-100.66601385759964 L8.8265,-100.70084447572918 " />
			<path d="M8.8265,-100.70084447572918 L8.825134774412936,-100.73566312075877 L8.821100516579472,-100.76999852891379 L8.814490422326875,-100.8037695128598 L8.805398960697623,-100.8369001497479 L8.793921691309677,-100.86931956658046 L8.780155088231462,-100.90096173702925 L8.764196371038176,-100.93176528894517 L8.746143343632609,-100.9616733218871 L8.726094241330324,-100.99063323408566 L8.704147586625695,-101.01859655834568 L8.65495634382468,-101.07135932195042 L8.59935863324187,-101.11965085859552 L8.538140388323352,-101.16321744826375 L8.472081486803567,-101.20185857096179 L8.401953368330766,-101.23542358470651 L8.328517203474014,-101.26380894798987 L8.252522555381471,-101.28695604172268 L8.174706454018603,-101.30484966822935 L8.095792781574001,-101.31751732743847 L8.01649184627949,-101.32502939298583 L7.937500000550134,-101.32750033351942 L7.858508154785418,-101.3250293930525 L7.7792072194033866,-101.31751732756268 L7.70029354686203,-101.30484966840076 L7.622477445409803,-101.28695604193356 L7.546482797236234,-101.26380894823448 L7.473046632300845,-101.23542358497859 L7.402918513745494,-101.20185857125237 L7.336859612136505,-101.16321744856035 L7.27564136712429,-101.11965085888323 L7.220043656449477,-101.07135932221466 L7.170852413565863,-101.01859655857567 L7.148905758825501,-100.99063323429654 L7.128856656491815,-100.96167332207877 L7.110803629059243,-100.93176528911836 L7.094844911843079,-100.90096173718524 L7.081078308745573,-100.86931956672049 L7.069601039341243,-100.83690014987238 L7.060509577697925,-100.80376951296712 L7.053899483433413,-100.76999852899878 L7.049865225590928,-100.73566312081073 L7.0485,-100.70084447572918 " />
			<path d="M7.0485,-100.70084447572918 L7.0498652197188045,-100.66601386387795 L7.053899464412214,-100.63164302372105 L7.0605095435831915,-100.59781427993987 L7.0696009919527505,-100.5646048819018 L7.081078252380841,-100.53208719213445 L7.094844852230892,-100.50032886419521 L7.110803572516615,-100.46939301076173 L7.128856609252778,-100.4393383626742 L7.148905726514763,-100.41021941956635 L7.170852400794865,-100.38208659262737 L7.220043691129536,-100.32896129477184 L7.2756414496783455,-100.28028895801617 L7.336859729445776,-100.23633860204018 L7.40291864036369,-100.19732513482309 L7.47304673395406,-100.16341227611454 L7.546482836994895,-100.1347150137073 L7.6224773931516205,-100.11130153523386 L7.700293392813581,-100.09319455407349 L7.779206992652617,-100.08037192381926 L7.858507947698083,-100.07276641161931 L7.937499999999989,-100.07026447656975 " />
			<path d="M7.9375,-142.40972521302749 L7.767093199517173,-142.40982716624185 " />
			<path d="M7.626564121696217,-142.41006466073534 L7.221438475649609,-142.4115254450743 L7.095240082547775,-142.41221589752237 L7.060614040209041,-142.4124248954662 L7.051581328783716,-142.41248079931358 L7.0485,-142.4125 " />
			<path d="M7.0485,-142.4125 L7.049865225158597,-142.4124914847916 L7.053899482404266,-142.4124663976985 L7.069601038518922,-142.41236984226413 L7.128856659067216,-142.41202104817808 L7.3368596079060735,-142.41099186550008 L7.937499999998913,-142.40972521302749 L8.538140392093142,-142.41099186550008 L8.746143340932486,-142.41202104817805 L8.805398961480948,-142.41236984226413 L8.821100517595685,-142.4124663976985 L8.825134774841388,-142.4124914847916 L8.8265,-142.4125 " />
			<path d="M8.8265,-142.4125 L8.823418672009126,-142.41248079931856 L8.81438596111354,-142.41242489547423 L8.779759916865393,-142.41221589751885 L8.653561525721432,-142.41152544508103 L8.248435878303034,-142.41006466073475 " />
			<path d="M8.107906800482253,-142.4098271662423 L7.937500000000011,-142.40972521302749 " />
			<path d="M7.9375,142.40972521302749 L7.33685972944548,142.41099186498604 L7.128856609252876,142.41202104846286 L7.069600991952826,142.41236984254604 L7.053899464412237,142.41246639780823 L7.049865219718809,142.41249148482467 L7.0485,142.4125 " />
			<path d="M8.8265,142.4125 L8.825134780281193,142.41249148482467 L8.82110053558778,142.41246639780823 L8.805399008047228,142.41236984254604 L8.746143390747173,142.41202104846286 L8.538140270554301,142.41099186498602 L7.9375000000000115,142.40972521302749 " />
			<path d="M7.9375,100.07026447656982 L7.8585079549013654,100.07276641118843 L7.779206994638938,100.08037192358576 L7.700293389254695,100.09319455475902 L7.622477388062618,100.11130153657102 L7.546482834120637,100.13471501469775 L7.473046734756173,100.16341227579765 L7.402918643914811,100.19732513297183 L7.336859733465167,100.2363385994337 L7.275641451956534,100.28028895615702 L7.220043690689394,100.32896129511974 L7.170852398322439,100.3820865956112 L7.148905723691872,100.41021942347818 L7.128856606603199,100.43933836691981 L7.110803570506756,100.46939301453403 L7.0948448511729545,100.50032886656756 L7.081078252353259,100.53208719222226 L7.069600992760103,100.56460487910738 L7.060509544782751,100.59781427429583 L7.05389946543964,100.63164301634913 L7.0498652201511165,100.6660138575801 L7.0485,100.70084447572921 " />
			<path d="M7.0485,100.70084447572921 L7.049865225158582,100.73566311451513 L7.053899482404215,100.76999852162342 L7.0605095764916985,100.8037695073043 L7.06960103851876,100.83690014703618 L7.081078308746259,100.86931956673963 L7.094844912859732,100.90096173946213 L7.110803631011648,100.93176529277198 L7.128856659066829,100.9616733261884 L7.148905761556468,100.99063323806217 L7.170852415929231,101.01859656141004 L7.220043656747529,101.0713593224224 L7.275641364671109,101.11965085690116 L7.3368596079053034,101.16321744584101 L7.402918509937702,101.20185856928444 L7.473046631187924,101.23542358453203 L7.546482799740201,101.26380894908627 L7.62247745007309,101.28695604314069 L7.7002935499556,101.30484966898683 L7.779207216934072,101.31751732727157 L7.8585081470890605,101.32502939259747 L7.937499999996515,101.32750033351941 L8.01649185290409,101.3250293925979 L8.095792783059494,101.31751732727238 L8.174706450038542,101.30484966898797 L8.252522549921707,101.28695604314208 L8.328517200255272,101.26380894908785 L8.401953368808211,101.23542358453372 L8.472081490059056,101.20185856928616 L8.538140392092021,101.16321744584275 L8.599358635326725,101.11965085690287 L8.654956343250761,101.07135932242404 L8.704147584069474,101.01859656141158 L8.726094238442432,100.99063323806365 L8.746143340932255,100.96167332618981 L8.764196368987612,100.93176529277329 L8.780155087139695,100.90096173946333 L8.79392169125332,100.8693195667407 L8.805398961480956,100.83690014703708 L8.814490423508133,100.80376950730502 L8.821100517595706,100.76999852162395 L8.825134774841397,100.73566311451542 L8.8265,100.70084447572923 " />
			<path d="M8.8265,100.70084447572921 L8.82513477984913,100.66601385758366 L8.821100534560932,100.63164301635322 L8.814490455217891,100.59781427429884 L8.805399007240277,100.56460487910869 L8.793921747646603,100.5320871922219 L8.780155148826287,100.50032886656588 L8.764196429491927,100.46939301453158 L8.746143393395124,100.43933836691714 L8.726094276306382,100.41021942347578 L8.704147601676068,100.38208659560941 L8.654956309310426,100.32896129511961 L8.599358548045007,100.28028895615827 L8.53814026653748,100.2363385994354 L8.472081356087575,100.19732513297308 L8.401953265244527,100.16341227579795 L8.328517165877754,100.13471501469719 L8.252522611934273,100.1113015365702 L8.174706610742897,100.09319455475857 L8.095793005361784,100.08037192358584 L8.01649204510247,100.07276641118865 L7.9375000000000115,100.07026447656982 " />
			<path d="M3.175,145.0 L0.0,145.0 " />
			<path d="M3.175,-145.0 L0.0,-145.0 " />
			<path d="M12.7,142.4125 L8.8265,142.4125 " />
			<path d="M7.0485,142.4125 L3.175,142.4125 " />
			<path d="M12.7,-142.4125 L8.8265,-142.4125 " />
			<path d="M7.0485,-142.4125 L3.175,-142.4125 " />

       </g>
    </g>
    
</svg>
