<?xml version="1.0" encoding="UTF-8" standalone="no"?>
<svg
   version="1.1"
   width="750"
   height="750"
   viewBox="-250 -250 500 500"
   id="svg1478"
   sodipodi:docname="collar_face.svg"
   inkscape:version="1.1 (c68e22c387, 2021-05-23)"
   xmlns:inkscape="http://www.inkscape.org/namespaces/inkscape"
   xmlns:sodipodi="http://sodipodi.sourceforge.net/DTD/sodipodi-0.dtd"
   xmlns="http://www.w3.org/2000/svg"
   xmlns:svg="http://www.w3.org/2000/svg"
   xmlns:svgjs="http://svgjs.com/svgjs">
  <defs
     id="defs1482" />
  <sodipodi:namedview
     id="namedview1480"
     pagecolor="#ffffff"
     bordercolor="#999999"
     borderopacity="1"
     inkscape:pageshadow="0"
     inkscape:pageopacity="0"
     inkscape:pagecheckerboard="0"
     showgrid="false"
     inkscape:zoom="1.4142136"
     inkscape:cx="205.41452"
     inkscape:cy="315.01607"
     inkscape:window-width="1920"
     inkscape:window-height="1017"
     inkscape:window-x="-8"
     inkscape:window-y="-8"
     inkscape:window-maximized="1"
     inkscape:current-layer="svg1478" />
  <g
     id="g1424">
    <line
       x1="-250"
       y1="0"
       x2="250"
       y2="0"
       stroke-opacity="0.6"
       stroke-width="0.1"
       stroke="grey"
       id="line1420" />
    <line
       x1="0"
       y1="-250"
       x2="0"
       y2="250"
       stroke-opacity="0.6"
       stroke-width="0.1"
       stroke="grey"
       id="line1422" />
  </g>
  <rect
     width="109.99809"
     height="95.25"
     fill="none"
     stroke-width="0.1"
     stroke="#000000"
     id="rect1426"
     x="-52.332382"
     y="-150.29167" />
  <g
     id="g1448"
     transform="translate(2.6666667,-102.66667)">
    <circle
       r="2.0193"
       fill="#228833"
       stroke-width="0.1"
       stroke="#000000"
       class="10-32"
       transform="translate(38.133128,15.795259)"
       id="circle1428"
       cx="0"
       cy="0" />
    <circle
       r="2.0193"
       fill="#228833"
       stroke-width="0.1"
       stroke="#000000"
       class="10-32"
       transform="translate(15.795259,38.133128)"
       id="circle1430"
       cx="0"
       cy="0" />
    <circle
       r="2.0193"
       fill="#228833"
       stroke-width="0.1"
       stroke="#000000"
       class="10-32"
       transform="translate(-15.795259,38.133128)"
       id="circle1432"
       cx="0"
       cy="0" />
    <circle
       r="2.0193"
       fill="#228833"
       stroke-width="0.1"
       stroke="#000000"
       class="10-32"
       transform="translate(-38.133128,15.795259)"
       id="circle1434"
       cx="0"
       cy="0" />
    <circle
       r="2.0193"
       fill="#228833"
       stroke-width="0.1"
       stroke="#000000"
       class="10-32"
       transform="translate(-38.133128,-15.795259)"
       id="circle1436"
       cx="0"
       cy="0" />
    <circle
       r="2.0193"
       fill="#228833"
       stroke-width="0.1"
       stroke="#000000"
       class="10-32"
       transform="translate(-15.795259,-38.133128)"
       id="circle1438"
       cx="0"
       cy="0" />
    <circle
       r="2.0193"
       fill="#228833"
       stroke-width="0.1"
       stroke="#000000"
       class="10-32"
       transform="translate(15.795259,-38.133128)"
       id="circle1440"
       cx="0"
       cy="0" />
    <circle
       r="2.0193"
       fill="#228833"
       stroke-width="0.1"
       stroke="#000000"
       class="10-32"
       transform="translate(38.133128,-15.795259)"
       id="circle1442"
       cx="0"
       cy="0" />
    <circle
       r="26.162001"
       fill="none"
       stroke-width="0.1"
       stroke="#000000"
       id="circle1444"
       cx="0"
       cy="0" />
    <circle
       r="25.018999"
       fill="none"
       stroke-width="0.1"
       stroke="#000000"
       id="circle1446"
       cx="0"
       cy="0" />
  </g>
  <g
     id="g1458"
     transform="translate(2.6666667,-102.66667)">
    <circle
       r="1.1303"
       stroke-width="0.1"
       stroke="#000000"
       class="4-40"
       transform="translate(-44.45,-38.1)"
       fill="#ee6677"
       id="circle1450"
       cx="0"
       cy="0" />
    <circle
       r="1.1303"
       stroke-width="0.1"
       stroke="#000000"
       class="4-40"
       transform="translate(-44.45,38.1)"
       fill="#ee6677"
       id="circle1452"
       cx="0"
       cy="0" />
    <circle
       r="1.1303"
       stroke-width="0.1"
       stroke="#000000"
       class="4-40"
       transform="translate(44.45,-38.1)"
       fill="#ee6677"
       id="circle1454"
       cx="0"
       cy="0" />
    <circle
       r="1.1303"
       stroke-width="0.1"
       stroke="#000000"
       class="4-40"
       transform="translate(44.45,38.1)"
       fill="#ee6677"
       id="circle1456"
       cx="0"
       cy="0" />
  </g>
  <g
     transform="translate(-47.333333,-32.666666)"
     id="g1472">
    <circle
       r="1.1303"
       fill="#ee6677"
       stroke-width="0.1"
       stroke="#000000"
       id="circle1460"
       cx="0"
       cy="0" />
    <text
       font-family="Helvetica"
       font-size="10px"
       text-anchor="left"
       alignment-baseline="middle"
       transform="translate(20)"
       svgjs:data="{&quot;leading&quot;:&quot;1.5em&quot;}"
       id="text1462">4</text>
    <text
       font-family="Helvetica"
       font-size="10px"
       text-anchor="left"
       alignment-baseline="middle"
       transform="translate(50)"
       svgjs:data="{&quot;leading&quot;:&quot;1.5em&quot;}"
       id="text1464">blindtap 4-40</text>
    <circle
       r="2.0193"
       fill="#228833"
       stroke-width="0.1"
       stroke="#000000"
       transform="translate(0,18)"
       id="circle1466"
       cx="0"
       cy="0" />
    <text
       font-family="Helvetica"
       font-size="10px"
       text-anchor="left"
       alignment-baseline="middle"
       transform="translate(20,18)"
       svgjs:data="{&quot;leading&quot;:&quot;1.5em&quot;}"
       id="text1468">8</text>
    <text
       font-family="Helvetica"
       font-size="10px"
       text-anchor="left"
       alignment-baseline="middle"
       transform="translate(50,18)"
       svgjs:data="{&quot;leading&quot;:&quot;1.5em&quot;}"
       id="text1470">blindtap 10-32</text>
  </g>
  <text
     font-family="Helvetica"
     font-size="14px"
     text-anchor="Left"
     alignment-baseline="middle"
     svgjs:data="{&quot;leading&quot;:&quot;1.5em&quot;}"
     id="text1474"
     x="-97.333336"
     y="-172.66667">Each side face of the collar (12x)</text>
  <text
     font-family="Helvetica"
     font-size="14px"
     text-anchor="Left"
     alignment-baseline="middle"
     svgjs:data="{&quot;leading&quot;:&quot;1.5em&quot;}"
     id="text1476"
     x="-122.33334"
     y="7.333334">Total of 48 blindtap 4-40, 96 blindtap 10-32</text>
  <text
     xml:space="preserve"
     style="font-size:13.3333px;line-height:1.25;font-family:sans-serif;stroke-width:0.666667"
     x="-101.90066"
     y="38.559315"
     id="text16415"><tspan
       sodipodi:role="line"
       id="tspan16413"
       style="font-size:13.3333px;stroke-width:0.666667"
       x="-101.90066"
       y="38.559315">Both tapped to 0.375 inch Depth</tspan></text>
  <text
     xml:space="preserve"
     style="font-size:17.7778px;line-height:1.25;font-family:sans-serif;stroke-width:0.666667"
     x="-75.590759"
     y="93.070274"
     id="text2129"><tspan
       sodipodi:role="line"
       id="tspan2127"
       style="stroke-width:0.666667"
       x="-75.590759"
       y="93.070274">Polish Visible Surface</tspan></text>
  <path
     style="opacity:0.25;fill:#0c00ff;fill-opacity:1;stroke:none;stroke-width:1.20192"
     d="m -52.020826,-126.55488 v -23.58774 h 27.193507 27.1935136 v 10.49521 10.4952 l -1.7277667,0.17953 c -13.2425139,1.37599 -22.9017799,11.03526 -24.2777739,24.27778 l -0.179533,1.72776 h -14.100973 -14.100974 z m 17.52276,10.02112 c 0.891974,-0.46949 1.097054,-0.83843 1.102447,-1.98326 0.006,-1.21188 -0.90038,-2.17849 -2.042107,-2.17849 -2.023553,0 -2.952813,2.63806 -1.3683,3.88444 0.9029,0.71022 1.37722,0.76722 2.30796,0.27731 z m 22.869987,-22.66233 c 1.373827,-1.37382 0.556347,-3.50812 -1.40812,-3.6764 -1.97236,-0.16895 -3.107307,2.16488 -1.725013,3.54718 0.728713,0.72871 2.46216,0.8002 3.133133,0.12922 z m -29.555687,-0.44028 c 0.376094,-0.20128 0.581207,-0.62878 0.581207,-1.21135 0,-1.01119 -0.518593,-1.34316 -1.653313,-1.05836 -0.586847,0.14729 -0.750534,0.38046 -0.750534,1.06915 0,0.52186 0.214294,1.0056 0.525847,1.18707 0.659733,0.38426 0.60508,0.38369 1.296793,0.0135 z"
     id="path20079" />
  <path
     style="opacity:0.25;fill:#0c00ff;fill-opacity:1;stroke:none;stroke-width:1.20192"
     d="m 28.972701,-104.6949 c -0.771686,-7.42667 -4.412513,-14.30207 -9.828206,-18.55977 -3.92742,-3.08765 -9.1945804,-5.17198 -14.4495738,-5.71801 l -1.7277666,-0.17953 v -10.4952 -10.49521 H 30.160668 57.354175 v 23.58774 23.58774 H 43.253201 29.152228 Z m 13.166674,-12.11617 c 1.58452,-1.24638 0.655253,-3.88444 -1.3683,-3.88444 -1.141727,0 -2.047814,0.96661 -2.042107,2.17849 0.0053,1.11875 0.203247,1.49116 1.047087,1.96967 0.882593,0.50048 1.475973,0.43427 2.36332,-0.26372 z m -22.044814,-22.51424 c 1.3823,-1.3823 0.247347,-3.71613 -1.725013,-3.54718 -1.964467,0.16828 -2.78194,2.30258 -1.40812,3.6764 0.67098,0.67098 2.40442,0.59949 3.133133,-0.12922 z m 27.663987,-0.31106 c 0.372693,-0.19946 0.581207,-0.6286 0.581207,-1.1962 0,-0.69334 -0.162627,-0.92596 -0.750527,-1.07351 -0.412793,-0.10361 -0.95366,-0.11043 -1.201927,-0.0151 -0.635613,0.2439 -0.581686,1.88921 0.07445,2.27137 0.65974,0.38426 0.60508,0.38369 1.2968,0.0135 z"
     id="path20118" />
  <path
     style="opacity:0.25;fill:#0c00ff;fill-opacity:1;stroke:none;stroke-width:1.20192"
     d="m 2.9671546,-65.685898 v -10.495207 l 1.7277666,-0.179527 c 7.4266598,-0.771686 14.3020668,-4.412513 18.5597598,-9.828206 3.087654,-3.92742 5.171987,-9.19458 5.71802,-14.449572 l 0.179527,-1.72777 h 14.100973 14.100974 v 23.587742 23.587747 H 30.160668 2.9671546 Z m 17.1157004,2.626047 c 1.312486,-1.408794 0.35754,-3.549114 -1.583507,-3.549114 -1.27422,0 -1.9569,0.518967 -2.180233,1.657387 -0.408534,2.082487 2.312073,3.449913 3.76374,1.891727 z m 27.7816,-0.426214 c 0.70096,-0.26898 0.612866,-1.826206 -0.12566,-2.221453 -0.890114,-0.476373 -1.802887,0.11214 -1.802887,1.162413 0,0.462434 0.09015,0.930934 0.20032,1.041107 0.249927,0.249927 1.100653,0.25876 1.728227,0.01793 z m -5.590974,-21.764413 c 1.558187,-1.451667 0.19076,-4.172274 -1.891726,-3.76374 -1.13842,0.223333 -1.657387,0.906013 -1.657387,2.180233 0,1.941047 2.14032,2.895993 3.549113,1.583507 z"
     id="path20157" />
  <path
     style="opacity:0.25;fill:#0c00ff;fill-opacity:1;stroke:none;stroke-width:1.20192"
     d="m -52.020826,-78.778438 v -23.587742 h 14.100974 14.100973 l 0.179533,1.72777 c 0.771687,7.426658 4.412507,14.302065 9.8282,18.559758 3.9274272,3.087654 9.1945805,5.171987 14.4495739,5.71802 l 1.7277667,0.179527 v 10.495207 10.495207 H -24.827319 -52.020826 Z m 40.649314,15.4258 c 1.070787,-1.44042 0.09015,-3.256327 -1.758514,-3.256327 -1.988226,0 -2.944866,2.126474 -1.604086,3.565634 0.876553,0.940873 2.547493,0.787173 3.3626,-0.309307 z m -29.288614,-1.057873 c 0.06947,-0.71708 -0.0622,-1.03948 -0.525846,-1.28762 -0.917767,-0.491174 -1.820434,0.09297 -1.820434,1.178066 0,0.946927 0.355074,1.212587 1.502407,1.124094 0.609507,-0.047 0.76868,-0.238387 0.843873,-1.01454 z m 6.668147,-20.828261 c 0.728713,-0.728713 0.800207,-2.462153 0.129227,-3.133133 -1.37382,-1.37382 -3.508127,-0.556347 -3.6764,1.40812 -0.168954,1.97236 2.164873,3.107313 3.547173,1.725013 z"
     id="path20196" />
  <path
     style="opacity:0.25;fill:#0c00ff;fill-opacity:1;stroke:none;stroke-width:0.150241"
     d="m -23.437486,-102.86384 c 3.4e-4,-0.40485 0.08927,-1.8441 0.15144,-2.4508 0.91084,-8.88921 6.299827,-16.68869 14.2940072,-20.68773 2.8588933,-1.43015 5.9809667,-2.32647 9.17974669,-2.63543 0.53536667,-0.0517 1.91702001,-0.13313 2.25911331,-0.13313 h 0.1447334 v 0.50154 0.50155 l -0.6479134,0.0251 c -3.1023,0.12015 -5.8232933,0.68164 -8.5355267,1.76134 -6.4408205,2.56398 -11.4922065,7.61536 -14.0561865,14.05618 -1.0762,2.70344 -1.64346,5.44674 -1.761107,8.51675 l -0.02553,0.6667 h -0.501427 -0.501433 l 10e-5,-0.12207 z"
     id="path24915" />
  <path
     style="opacity:0.25;fill:#0c00ff;fill-opacity:1;stroke:none;stroke-width:0.150241"
     d="m 1.4084146,-76.604932 c -8.1981667,-0.402406 -15.7478666,-4.650773 -20.3491136,-11.450846 -2.41842,-3.57412 -3.905187,-7.667254 -4.345347,-11.962892 -0.06213,-0.6067 -0.1511,-2.04595 -0.15144,-2.45079 l -1.06e-4,-0.12208 h 0.499533 0.499533 l 0.04547,0.96718 c 0.0712,1.51452 0.195653,2.541315 0.476887,3.934415 1.98836,9.849473 9.65474,17.549753 19.5010465,19.587273 1.3666534,0.282807 2.80083339,0.452174 4.3212134,0.51032 l 0.6854733,0.0262 v 0.501874 0.501873 l -0.2723066,-0.0053 c -0.1497734,-0.0033 -0.5596467,-0.01973 -0.9108334,-0.03693 z"
     id="path24991" />
  <path
     style="opacity:0.25;fill:#0c00ff;fill-opacity:1;stroke:none;stroke-width:0.150241"
     d="m 2.7417946,-77.064085 v -0.5017 l 0.6666933,-0.02547 c 1.59576,-0.061 2.9020467,-0.215373 4.3516067,-0.514313 6.4441264,-1.328973 12.1404804,-5.171947 15.7789264,-10.64506 2.61454,-3.932907 4.018374,-8.327307 4.202627,-13.155422 l 0.02613,-0.68547 h 0.501567 0.501567 l -2.6e-4,0.10329 c -6.67e-4,0.4149 -0.09076,1.88185 -0.151127,2.46957 -0.9189,8.946545 -6.362153,16.774865 -14.430807,20.753932 -2.7729,1.36746 -5.7904397,2.234833 -8.8740864,2.5508 -0.6067,0.0622 -2.0459534,0.151107 -2.4507934,0.151447 l -0.1220733,1e-4 z"
     id="path25030" />
  <path
     style="opacity:0.25;fill:#0c00ff;fill-opacity:1;stroke:none;stroke-width:0.150241"
     d="m 27.726415,-103.70895 c -0.114934,-2.44501 -0.513514,-4.6351 -1.246007,-6.84651 -2.17,-6.55126 -7.001287,-11.97941 -13.221787,-14.85523 -3.13256,-1.44823 -6.2854397,-2.19326 -9.8689131,-2.33206 l -0.6479133,-0.0251 v -0.50155 -0.50154 h 0.1447333 c 0.3421,0 1.7237533,0.0814 2.2591134,0.13313 7.0735397,0.6832 13.5461397,4.202 17.9601397,9.76396 3.092207,3.8964 5.00426,8.5984 5.513787,13.55919 0.0604,0.58772 0.15014,2.05468 0.151127,2.46958 l 2.46e-4,0.10329 h -0.499526 -0.499534 z"
     id="path25069" />
  <rect
     style="opacity:0.25;fill:#0c00ff;fill-opacity:1;stroke:none;stroke-width:4.38096"
     id="rect25130"
     width="28.623016"
     height="39.094845"
     x="-116.87555"
     y="65.478233" />
  <path
     style="opacity:0.25;fill:#0c00ff;fill-opacity:1;stroke:none;stroke-width:0.0104167"
     d="m 5.6796879,-128.70601 c -0.6816266,-0.0809 -1.4597333,-0.13799 -2.1966133,-0.16113 -0.1906334,-0.006 -0.5727267,-0.0129 -0.7168,-0.0131 l -0.047533,-3e-5 v -0.91537 -0.91536 h 0.1237 0.1237 v 0.7797 0.7797 l 0.012333,0.001 c 0.0068,6.6e-4 0.3797533,0.0397 0.82878,0.0863 1.0928933,0.11337 1.0918133,0.11325 1.3424467,0.14334 0.1752133,0.0211 0.5685,0.073 0.6126266,0.0809 l 0.00847,0.001 v 0.0713 c 0,0.0555 -6.667e-4,0.0712 -0.00333,0.071 -0.002,-1.8e-4 -0.041333,-0.005 -0.087893,-0.0104 z"
     id="path29419" />
  <path
     style="opacity:0.25;fill:#0c00ff;fill-opacity:1;stroke:none;stroke-width:0.0104167"
     d="m 0.21874789,-128.84493 v -0.0793 l 0.008467,-0.001 c 0.0107333,-0.002 0.13907333,-0.0164 0.26367333,-0.03 0.053,-0.006 0.49127334,-0.0515 0.97395998,-0.10158 0.48268,-0.0501 0.8831667,-0.0918 0.8899733,-0.0927 l 0.012333,-0.001 v -0.7797 -0.77971 h 0.1237 0.1236933 v 0.91502 0.91502 l -0.1569,0.002 c -0.7771467,0.009 -1.46944664,0.0429 -2.16665998,0.10711 -0.0383333,0.003 -0.0702467,0.007 -0.0709667,0.007 -6.6667e-4,0 -0.001333,-0.0357 -0.001333,-0.0793 z"
     id="path29458" />
  <path
     style="opacity:0.25;fill:#0c00ff;fill-opacity:1;stroke:none;stroke-width:0.0104167"
     d="m 2.7187479,-131.75261 v -1.04166 h 0.1237 0.1237 v 1.04166 1.04167 h -0.1237 -0.1237 z"
     id="path29497" />
  <path
     style="opacity:0.25;fill:#0c00ff;fill-opacity:1;stroke:none;stroke-width:0.0104167"
     d="m 2.3671879,-131.75261 v -1.04166 h 0.1237 0.1236933 v 1.04166 1.04167 h -0.1236933 -0.1237 z"
     id="path29536" />
  <path
     style="opacity:0.25;fill:#0c00ff;fill-opacity:1;stroke:none;stroke-width:0.0589255"
     d="m 2.7173012,-140.49044 v -7.68979 h 0.1178534 0.1178533 v 7.68979 7.68979 H 2.8351546 2.7173012 Z"
     id="path29575" />
  <path
     style="opacity:0.25;fill:#0c00ff;fill-opacity:1;stroke:none;stroke-width:0.0589255"
     d="m 2.3784812,-140.49044 v -7.68979 h 0.1178534 0.1178466 v 7.68979 7.68979 H 2.4963346 2.3784812 Z"
     id="path29614" />
  <path
     style="opacity:0.25;fill:#0c00ff;fill-opacity:1;stroke:none;stroke-width:0.0589255"
     d="m 2.7173012,-149.20405 v -1.02384 h 9.1408338 9.140826 v 0.0368 0.0368 l -9.019293,0.004 -9.0193001,0.004 -0.004,0.98332 -0.004,0.98332 H 2.8346212 2.7168746 Z"
     id="path29653" />
  <path
     style="opacity:0.25;fill:#0c00ff;fill-opacity:1;stroke:none;stroke-width:0.0589255"
     d="m 2.3749012,-149.16355 -0.004,-0.98332 -6.38974,-0.004 -6.3897402,-0.004 v -0.0368 -0.0368 h 6.5112735 6.5112734 v 1.02384 1.02382 H 2.4962212 2.3784746 Z"
     id="path29692" />
  <path
     style="opacity:0.25;fill:#0c00ff;fill-opacity:1;stroke:none;stroke-width:0.0294628"
     d="m 28.880195,-102.90513 c -1.87e-4,-0.61707 -0.04533,-1.49473 -0.11452,-2.22628 -0.0286,-0.30275 -0.0857,-0.81483 -0.09542,-0.85627 -0.004,-0.0163 -0.0027,-0.0166 0.06473,-0.0166 h 0.06859 l 0.03867,0.27806 c 0.07485,0.53855 0.09515,0.71665 0.222267,1.95007 0.04507,0.43752 0.08331,0.79963 0.08492,0.8047 0.0027,0.007 1.274153,0.009 6.32662,0.009 h 6.32368 v 0.12153 0.12154 h -6.459714 -6.459713 l -6e-5,-0.18598 z"
     id="path29731" />
  <path
     style="opacity:0.25;fill:#0c00ff;fill-opacity:1;stroke:none;stroke-width:0.0294628"
     d="m 32.356861,-102.4945 v -0.12153 h 7.851834 7.851833 v 0.12153 0.12154 h -7.851833 -7.851834 z"
     id="path29807" />
  <path
     style="opacity:0.25;fill:#0c00ff;fill-opacity:1;stroke:none;stroke-width:0.0294628"
     d="m 41.799681,-102.84068 v -0.12154 h 3.130427 3.13042 v 0.12154 0.12153 h -3.13042 -3.130427 z"
     id="path29846" />
  <path
     style="opacity:0.25;fill:#0c00ff;fill-opacity:1;stroke:none;stroke-width:0.117851"
     d="m 27.616121,-94.540425 c -0.0013,-0.0228 0.04253,-0.181867 0.09786,-0.353553 0.670614,-2.080407 1.100687,-4.669107 1.156867,-6.963382 l 0.0186,-0.75867 h 1.733713 1.73372 v 0.11785 0.11786 h -1.604386 -1.604387 l -0.0156,0.0957 c -0.0086,0.0527 -0.04973,0.43384 -0.0914,0.84705 -0.198793,1.970908 -0.404033,3.227608 -0.765073,4.684582 -0.220707,0.890633 -0.651634,2.335533 -0.659867,2.212513 z"
     id="path29885" />
  <path
     style="opacity:0.25;fill:#0c00ff;fill-opacity:1;stroke:none;stroke-width:0.117851"
     d="m 50.380721,-102.96222 c 1.284207,-0.004 3.38564,-0.004 4.669847,0 1.284214,0.004 0.233494,0.008 -2.33492,0.008 -2.56842,0 -3.61914,-0.003 -2.334927,-0.008 z"
     id="path29961" />
  <path
     style="opacity:0.25;fill:#0c00ff;fill-opacity:1;stroke:none;stroke-width:0.0208333"
     d="m 48.062501,-102.84122 v -0.12246 l 0.897134,0.003 c 1.1736,0.003 6.354053,0.003 7.5,0 l 0.894533,-0.003 v -0.77594 -0.77594 h 0.130207 0.130207 v 0.89844 0.89843 h -4.776041 -4.77604 z"
     id="path30074" />
  <path
     style="opacity:0.25;fill:#0c00ff;fill-opacity:1;stroke:none;stroke-width:0.0294628"
     d="m 48.060528,-102.4945 v -0.12153 h 3.811747 3.811747 v 0.12153 0.12154 h -3.811747 -3.811747 z"
     id="path30709" />
  <path
     style="opacity:0.25;fill:#0c00ff;fill-opacity:1;stroke:none;stroke-width:0.0833333"
     d="m 2.7291679,-65.768638 v -10.664474 l 0.3281267,-0.0122 c 1.2584933,-0.0468 1.75382,-0.07751 2.4114533,-0.1494 2.9812867,-0.32588 5.7417601,-1.107473 8.4860071,-2.402726 0.221473,-0.104527 0.423033,-0.1896 0.44792,-0.189054 0.0554,0.0013 -0.07722,0.07159 -0.538094,0.28552 -2.787473,1.2939 -5.7800464,2.138 -8.8437464,2.49452 -0.1432267,0.01667 -0.62604,0.06788 -1.07292,0.1138 -0.4468734,0.04593 -0.85234,0.08895 -0.90104,0.09561 l -0.08854,0.01213 v 10.498721 10.498726 h 8.6354134 c 8.621533,0 8.63542,0 8.63542,0.04167 0,0.0416 -0.01387,0.04167 -8.75,0.04167 H 2.7291679 Z"
     id="path31712" />
  <path
     style="opacity:0.25;fill:#0c00ff;fill-opacity:1;stroke:none;stroke-width:0.0833333"
     d="m -24.187499,-55.145831 c 0,-0.0416 0.01387,-0.04167 13.281247,-0.04167 H 2.3750012 v -10.498167 -10.498173 l -0.078127,-0.0122 c -0.043,-0.0067 -0.4484334,-0.05 -0.90104,-0.09624 -1.36961337,-0.13984 -2.07689338,-0.234894 -2.9556334,-0.397214 -1.90486,-0.351873 -3.8119333,-0.905893 -5.6589533,-1.64398 -0.8195467,-0.3275 -1.9440467,-0.8404 -1.8631601,-0.849813 0.0338,-0.004 0.2023467,0.064 0.4583334,0.184853 2.4850533,1.1729 4.9825467,1.92394 7.64441335,2.298814 1.02759334,0.14472 1.68062001,0.19574 3.25520665,0.254326 l 0.3281267,0.0122 v 10.664474 10.664473 H -10.791665 c -13.381947,0 -13.395834,0 -13.395834,-0.04167 z"
     id="path31751" />
  <path
     style="opacity:0.25;fill:#0c00ff;fill-opacity:1;stroke:none;stroke-width:0.0833333"
     d="m -52.270832,-106.66667 v -3.9375 h 0.125 0.125 v 3.82292 3.82292 h 14.102333 14.10234 l 0.01207,-0.0781 c 0.0067,-0.043 0.0544,-0.49062 0.106166,-0.99479 0.145,-1.41229 0.221867,-1.9837 0.396554,-2.94792 0.176113,-0.97214 0.377526,-1.83508 0.6467,-2.77083 0.230006,-0.79959 0.24454,-0.84243 0.288726,-0.85094 0.02907,-0.005 0.03587,0.002 0.02767,0.0311 -0.006,0.0212 -0.05387,0.17919 -0.106287,0.35106 -0.54332,1.78041 -0.901293,3.73338 -1.044406,5.69793 -0.02487,0.3416 -0.07234,1.46435 -0.07331,1.73437 l -2.07e-4,0.0573 h -14.35418 -14.354166 z"
     id="path31790" />
  <path
     style="opacity:0.25;fill:#0c00ff;fill-opacity:1;stroke:none;stroke-width:0.0147314"
     d="m -41.060706,-102.49265 v -0.12338 h 3.925914 3.925913 v 0.12338 0.12337 h -3.925913 -3.925914 z"
     id="path31903" />
  <path
     style="opacity:0.25;fill:#0c00ff;fill-opacity:1;stroke:none;stroke-width:0.0104167"
     d="m -51.570312,-102.49088 v -0.1237 h 2.77604 2.776046 v 0.1237 0.1237 h -2.776046 -2.77604 z"
     id="path32534" />
  <path
     style="opacity:0.25;fill:#0c00ff;fill-opacity:1;stroke:none;stroke-width:0.0416667"
     d="m -46.010419,-102.49479 v -0.11979 h 2.47396 2.47396 v 0.11979 0.11979 h -2.47396 -2.47396 z"
     id="path32573" />
  <path
     style="opacity:0.25;fill:#0c00ff;fill-opacity:1;stroke:none;stroke-width:0.0416667"
     d="m -23.210399,-97.875185 c -0.183187,-0.915287 -0.312907,-1.749447 -0.409007,-2.630015 -0.03233,-0.2964 -0.193093,-1.8439 -0.193093,-1.85888 0,-0.008 -1.430073,-0.0109 -4.69792,-0.0109 h -4.697913 v -0.11979 -0.11979 h 4.82664 4.826646 l 0.007,0.33073 c 0.02913,1.38045 0.125827,2.487918 0.33004,3.779592 0.04093,0.25894 0.04127,0.26372 0.03853,0.51544 l -0.0027,0.254073 z"
     id="path32612" />
  <path
     style="fill:#ffffff;stroke-width:0.0625"
     d="m 345.90866,200.13672 c 1.72295,-2.75065 3.99146,-5.4915 6.40471,-7.73828 5.65682,-5.2666 12.66196,-8.71882 20.27387,-9.99121 0.71437,-0.11942 1.69623,-0.25481 2.22917,-0.30739 l 0.10547,-0.0104 v 0.7512 0.7512 l -0.0664,0.009 c -0.0365,0.005 -0.21758,0.0268 -0.40234,0.0488 -2.47668,0.29452 -4.85676,0.81945 -7.16407,1.58005 -3.93866,1.29836 -7.61546,3.2149 -10.90625,5.68488 -1.05155,0.78927 -1.93949,1.53081 -2.99205,2.49872 -0.35216,0.32384 -1.5457,1.512 -1.87663,1.86817 -1.38143,1.48677 -2.61603,3.03577 -3.67783,4.61439 l -0.24882,0.36995 h -0.87979 -0.87978 z"
     id="path921"
     transform="matrix(0.66666667,0,0,0.66666667,-250,-250)" />
  <path
     style="fill:#ffffff;stroke-width:0.25"
     d="m 375.125,182.82784 v -0.74821 l 0.57813,-0.0414 c 1.3061,-0.0935 2.47434,-0.16075 2.8125,-0.16196 l 0.35937,-0.001 v 0.71274 0.71273 l -0.67187,0.0387 c -1.85907,0.10707 -2.81029,0.1729 -2.9375,0.20329 -0.13988,0.0334 -0.14063,0.0296 -0.14063,-0.71462 z"
     id="path960"
     transform="matrix(0.66666667,0,0,0.66666667,-250,-250)" />
  <path
     style="fill:#ffffff;stroke-width:0.25"
     d="m 416.66129,220.20313 c -0.22198,-3.90064 -0.46525,-5.66621 -1.16743,-8.47277 -1.90691,-7.62171 -6.33026,-14.62478 -12.46261,-19.73083 -5.58645,-4.65152 -12.48005,-7.58079 -19.77636,-8.4035 -0.78417,-0.0884 -1.86559,-0.16912 -3.45801,-0.25804 l -0.67188,-0.0375 v -0.71273 -0.71274 h 0.31492 c 1.14998,0 3.93449,0.24333 5.43508,0.47495 7.2792,1.12358 13.99441,4.20752 19.59375,8.99835 1.20098,1.02757 3.15538,2.98197 4.18295,4.18295 4.98532,5.82665 8.14385,12.91549 9.12705,20.48426 0.11459,0.88214 0.25985,2.67201 0.31957,3.93762 l 0.0435,0.92187 h -0.72114 -0.72114 z"
     id="path999"
     transform="matrix(0.66666667,0,0,0.66666667,-250,-250)" />
  <path
     style="fill:#ffffff;stroke-width:0.25"
     d="m 339.875,220.54334 c 0,-0.55925 0.18313,-3.15054 0.28575,-4.04334 0.62229,-5.41404 2.42332,-10.72815 5.25847,-15.51562 l 0.39789,-0.67188 h 0.84762 0.84762 l -0.12504,0.20313 c -3.48247,5.65746 -5.24802,10.72506 -5.852,16.79687 -0.0786,0.78969 -0.22117,3.00309 -0.22249,3.45313 -2.9e-4,0.0978 -0.0763,0.10937 -0.71907,0.10937 H 339.875 Z"
     id="path1038"
     transform="matrix(0.66666667,0,0,0.66666667,-250,-250)" />
  <path
     style="fill:#ffffff;stroke-width:0.25"
     d="m 373.53125,259.71707 c -3.46837,-0.50713 -6.91863,-1.486 -10.125,-2.87255 -1.04863,-0.45348 -3.26818,-1.5908 -4.28125,-2.19376 -9.9311,-5.9109 -16.69504,-15.71077 -18.65337,-27.02576 -0.29169,-1.68537 -0.59663,-4.83801 -0.59663,-6.16834 V 221.125 h 0.71875 c 0.70344,0 0.71877,0.003 0.71966,0.14063 0.007,1.05552 0.22458,3.73158 0.40924,5.029 1.40076,9.84159 6.6353,18.74654 14.52735,24.71375 5.14103,3.88716 11.3776,6.47046 17.5625,7.27471 0.42969,0.0559 0.84453,0.11401 0.92188,0.12919 0.13606,0.0267 0.14062,0.0509 0.14062,0.74516 v 0.71756 l -0.17187,-0.006 c -0.0945,-0.003 -0.62188,-0.0717 -1.17188,-0.15207 z"
     id="path1077"
     transform="matrix(0.66666667,0,0,0.66666667,-250,-250)" />
  <path
     style="fill:#ffffff;stroke-width:0.25"
     d="m 379.125,259.41226 v -0.71273 l 0.67188,-0.0377 c 0.36953,-0.0208 1.15,-0.0678 1.73437,-0.10458 10.80944,-0.67982 21.03543,-6.20684 27.53306,-14.88127 3.34534,-4.46607 5.6184,-9.4446 6.74343,-14.76968 0.48027,-2.27321 0.66671,-3.82612 0.85355,-7.10937 l 0.0382,-0.67188 h 0.72114 0.72114 l -0.0435,0.92188 c -0.10151,2.15131 -0.27994,3.89651 -0.57031,5.57812 -1.2006,6.95287 -4.26067,13.44917 -8.87631,18.84375 -1.02757,1.20098 -2.98197,3.15538 -4.18295,4.18295 -5.958,5.0977 -13.26333,8.29373 -21.00617,9.19002 -0.87054,0.10077 -3.45142,0.28328 -4.00592,0.28328 H 379.125 Z"
     id="path1116"
     transform="matrix(0.66666667,0,0,0.66666667,-250,-250)" />
  <path
     style="fill:#ffffff;stroke-width:0.25"
     d="m 377.125,260.06087 c -0.42969,-0.0247 -1.05547,-0.0659 -1.39062,-0.0916 l -0.60938,-0.0467 v -0.74935 c 0,-0.74536 7.5e-4,-0.74916 0.14063,-0.71582 0.1298,0.0309 1.29724,0.11214 2.9375,0.20431 l 0.67187,0.0377 v 0.71273 0.71274 l -0.48437,-0.01 c -0.26641,-0.005 -0.83594,-0.0298 -1.26563,-0.0545 z"
     id="path1155"
     transform="matrix(0.66666667,0,0,0.66666667,-250,-250)" />
</svg>
