<?xml version="1.0" encoding="UTF-8" standalone="no"?>
<svg
   version="1.1"
   width="750"
   height="750"
   viewBox="-250 -250 550 500"
   id="svg1270"
   sodipodi:docname="collar_top.svg"
   inkscape:version="1.1 (c68e22c387, 2021-05-23)"
   xmlns:inkscape="http://www.inkscape.org/namespaces/inkscape"
   xmlns:sodipodi="http://sodipodi.sourceforge.net/DTD/sodipodi-0.dtd"
   xmlns="http://www.w3.org/2000/svg"
   xmlns:svg="http://www.w3.org/2000/svg"
   xmlns:svgjs="http://svgjs.com/svgjs">
  <defs
     id="defs1274" />
  <sodipodi:namedview
     id="namedview1272"
     pagecolor="#ffffff"
     bordercolor="#999999"
     borderopacity="1"
     inkscape:pageshadow="0"
     inkscape:pageopacity="0"
     inkscape:pagecheckerboard="0"
     showgrid="false"
     inkscape:zoom="0.76273254"
     inkscape:cx="338.91304"
     inkscape:cy="484.44242"
     inkscape:window-width="1920"
     inkscape:window-height="1017"
     inkscape:window-x="-8"
     inkscape:window-y="-8"
     inkscape:window-maximized="1"
     inkscape:current-layer="svg1270" />
  <polygon
     fill="none"
     stroke-width="0.1"
     stroke="black"
     points="212.5,0 184.03039830419323,106.24999999999999 106.25000000000003,184.0303983041932 1.3011872240940628e-14,212.5 -106.24999999999996,184.03039830419323 -184.03039830419323,106.24999999999999 -212.5,2.6023744481881257e-14 -184.03039830419326,-106.24999999999994 -106.2500000000001,-184.03039830419317 -3.903561672282188e-14,-212.5 106.25000000000003,-184.0303983041932 184.03039830419314,-106.2500000000001"
     transform="matrix(0.9659258262890683,0.25881904510252074,-0.25881904510252074,0.9659258262890683,0,0)"
     id="polygon1050" />
  <circle
     r="63.5"
     stroke-width="0.1"
     stroke="black"
     fill="none"
     transform="matrix(1,0,0,1,-80,0)"
     id="circle1052" />
  <g
     transform="matrix(1,0,0,1,0,0)"
     id="g1072">
    <g
       fill="none"
       stroke-width="0.1"
       stroke="black"
       transform="matrix(1,0,0,1,0,-125)"
       id="g1070">
      <circle
         r="2.0193"
         fill="#ee6677"
         stroke-width="0.1"
         stroke="black"
         class="10-32"
         transform="matrix(1,0,0,1,30.987999999999996,0)"
         id="circle1054" />
      <circle
         r="2.0193"
         fill="#ee6677"
         stroke-width="0.1"
         stroke="black"
         class="10-32"
         transform="matrix(1,0,0,1,15.494000000000002,26.83639521247218)"
         id="circle1056" />
      <circle
         r="2.0193"
         fill="#ee6677"
         stroke-width="0.1"
         stroke="black"
         class="10-32"
         transform="matrix(1,0,0,1,-15.493999999999991,26.836395212472183)"
         id="circle1058" />
      <circle
         r="2.0193"
         fill="#ee6677"
         stroke-width="0.1"
         stroke="black"
         class="10-32"
         transform="matrix(1,0,0,1,-30.987999999999996,3.7949355011978176e-15)"
         id="circle1060" />
      <circle
         r="2.0193"
         fill="#ee6677"
         stroke-width="0.1"
         stroke="black"
         class="10-32"
         transform="matrix(1,0,0,1,-15.494000000000012,-26.836395212472176)"
         id="circle1062" />
      <circle
         r="2.0193"
         fill="#ee6677"
         stroke-width="0.1"
         stroke="black"
         class="10-32"
         transform="matrix(1,0,0,1,15.494000000000002,-26.83639521247218)"
         id="circle1064" />
      <circle
         r="20.6"
         fill="none"
         stroke-width="0.1"
         stroke="black"
         id="circle1066" />
      <circle
         r="19.431"
         fill="none"
         stroke-width="0.1"
         stroke="black"
         id="circle1068" />
    </g>
  </g>
  <g
     transform="matrix(0.7071067811865476,0.7071067811865475,-0.7071067811865475,0.7071067811865476,0,0)"
     id="g1092">
    <g
       fill="none"
       stroke-width="0.1"
       stroke="black"
       transform="matrix(1,0,0,1,0,-125)"
       id="g1090">
      <circle
         r="2.0193"
         fill="#ee6677"
         stroke-width="0.1"
         stroke="black"
         class="10-32"
         transform="matrix(1,0,0,1,30.987999999999996,0)"
         id="circle1074" />
      <circle
         r="2.0193"
         fill="#ee6677"
         stroke-width="0.1"
         stroke="black"
         class="10-32"
         transform="matrix(1,0,0,1,15.494000000000002,26.83639521247218)"
         id="circle1076" />
      <circle
         r="2.0193"
         fill="#ee6677"
         stroke-width="0.1"
         stroke="black"
         class="10-32"
         transform="matrix(1,0,0,1,-15.493999999999991,26.836395212472183)"
         id="circle1078" />
      <circle
         r="2.0193"
         fill="#ee6677"
         stroke-width="0.1"
         stroke="black"
         class="10-32"
         transform="matrix(1,0,0,1,-30.987999999999996,3.7949355011978176e-15)"
         id="circle1080" />
      <circle
         r="2.0193"
         fill="#ee6677"
         stroke-width="0.1"
         stroke="black"
         class="10-32"
         transform="matrix(1,0,0,1,-15.494000000000012,-26.836395212472176)"
         id="circle1082" />
      <circle
         r="2.0193"
         fill="#ee6677"
         stroke-width="0.1"
         stroke="black"
         class="10-32"
         transform="matrix(1,0,0,1,15.494000000000002,-26.83639521247218)"
         id="circle1084" />
      <circle
         r="20.6"
         fill="none"
         stroke-width="0.1"
         stroke="black"
         id="circle1086" />
      <circle
         r="19.431"
         fill="none"
         stroke-width="0.1"
         stroke="black"
         id="circle1088" />
    </g>
  </g>
  <g
     transform="matrix(6.123233995736766e-17,1,-1,6.123233995736766e-17,0,0)"
     id="g1112">
    <g
       fill="none"
       stroke-width="0.1"
       stroke="black"
       transform="matrix(1,0,0,1,0,-125)"
       id="g1110">
      <circle
         r="2.0193"
         fill="#ee6677"
         stroke-width="0.1"
         stroke="black"
         class="10-32"
         transform="matrix(1,0,0,1,30.987999999999996,0)"
         id="circle1094" />
      <circle
         r="2.0193"
         fill="#ee6677"
         stroke-width="0.1"
         stroke="black"
         class="10-32"
         transform="matrix(1,0,0,1,15.494000000000002,26.83639521247218)"
         id="circle1096" />
      <circle
         r="2.0193"
         fill="#ee6677"
         stroke-width="0.1"
         stroke="black"
         class="10-32"
         transform="matrix(1,0,0,1,-15.493999999999991,26.836395212472183)"
         id="circle1098" />
      <circle
         r="2.0193"
         fill="#ee6677"
         stroke-width="0.1"
         stroke="black"
         class="10-32"
         transform="matrix(1,0,0,1,-30.987999999999996,3.7949355011978176e-15)"
         id="circle1100" />
      <circle
         r="2.0193"
         fill="#ee6677"
         stroke-width="0.1"
         stroke="black"
         class="10-32"
         transform="matrix(1,0,0,1,-15.494000000000012,-26.836395212472176)"
         id="circle1102" />
      <circle
         r="2.0193"
         fill="#ee6677"
         stroke-width="0.1"
         stroke="black"
         class="10-32"
         transform="matrix(1,0,0,1,15.494000000000002,-26.83639521247218)"
         id="circle1104" />
      <circle
         r="20.6"
         fill="none"
         stroke-width="0.1"
         stroke="black"
         id="circle1106" />
      <circle
         r="19.431"
         fill="none"
         stroke-width="0.1"
         stroke="black"
         id="circle1108" />
    </g>
  </g>
  <g
     transform="matrix(-0.7071067811865475,0.7071067811865476,-0.7071067811865476,-0.7071067811865475,0,0)"
     id="g1132">
    <g
       fill="none"
       stroke-width="0.1"
       stroke="black"
       transform="matrix(1,0,0,1,0,-125)"
       id="g1130">
      <circle
         r="2.0193"
         fill="#ee6677"
         stroke-width="0.1"
         stroke="black"
         class="10-32"
         transform="matrix(1,0,0,1,30.987999999999996,0)"
         id="circle1114" />
      <circle
         r="2.0193"
         fill="#ee6677"
         stroke-width="0.1"
         stroke="black"
         class="10-32"
         transform="matrix(1,0,0,1,15.494000000000002,26.83639521247218)"
         id="circle1116" />
      <circle
         r="2.0193"
         fill="#ee6677"
         stroke-width="0.1"
         stroke="black"
         class="10-32"
         transform="matrix(1,0,0,1,-15.493999999999991,26.836395212472183)"
         id="circle1118" />
      <circle
         r="2.0193"
         fill="#ee6677"
         stroke-width="0.1"
         stroke="black"
         class="10-32"
         transform="matrix(1,0,0,1,-30.987999999999996,3.7949355011978176e-15)"
         id="circle1120" />
      <circle
         r="2.0193"
         fill="#ee6677"
         stroke-width="0.1"
         stroke="black"
         class="10-32"
         transform="matrix(1,0,0,1,-15.494000000000012,-26.836395212472176)"
         id="circle1122" />
      <circle
         r="2.0193"
         fill="#ee6677"
         stroke-width="0.1"
         stroke="black"
         class="10-32"
         transform="matrix(1,0,0,1,15.494000000000002,-26.83639521247218)"
         id="circle1124" />
      <circle
         r="20.6"
         fill="none"
         stroke-width="0.1"
         stroke="black"
         id="circle1126" />
      <circle
         r="19.431"
         fill="none"
         stroke-width="0.1"
         stroke="black"
         id="circle1128" />
    </g>
  </g>
  <g
     transform="matrix(-1,1.2246467991473532e-16,-1.2246467991473532e-16,-1,0,0)"
     id="g1152">
    <g
       fill="none"
       stroke-width="0.1"
       stroke="black"
       transform="matrix(1,0,0,1,0,-125)"
       id="g1150">
      <circle
         r="2.0193"
         fill="#ee6677"
         stroke-width="0.1"
         stroke="black"
         class="10-32"
         transform="matrix(1,0,0,1,30.987999999999996,0)"
         id="circle1134" />
      <circle
         r="2.0193"
         fill="#ee6677"
         stroke-width="0.1"
         stroke="black"
         class="10-32"
         transform="matrix(1,0,0,1,15.494000000000002,26.83639521247218)"
         id="circle1136" />
      <circle
         r="2.0193"
         fill="#ee6677"
         stroke-width="0.1"
         stroke="black"
         class="10-32"
         transform="matrix(1,0,0,1,-15.493999999999991,26.836395212472183)"
         id="circle1138" />
      <circle
         r="2.0193"
         fill="#ee6677"
         stroke-width="0.1"
         stroke="black"
         class="10-32"
         transform="matrix(1,0,0,1,-30.987999999999996,3.7949355011978176e-15)"
         id="circle1140" />
      <circle
         r="2.0193"
         fill="#ee6677"
         stroke-width="0.1"
         stroke="black"
         class="10-32"
         transform="matrix(1,0,0,1,-15.494000000000012,-26.836395212472176)"
         id="circle1142" />
      <circle
         r="2.0193"
         fill="#ee6677"
         stroke-width="0.1"
         stroke="black"
         class="10-32"
         transform="matrix(1,0,0,1,15.494000000000002,-26.83639521247218)"
         id="circle1144" />
      <circle
         r="20.6"
         fill="none"
         stroke-width="0.1"
         stroke="black"
         id="circle1146" />
      <circle
         r="19.431"
         fill="none"
         stroke-width="0.1"
         stroke="black"
         id="circle1148" />
    </g>
  </g>
  <g
     transform="matrix(1,0,0,1,-75,120)"
     id="g1170">
    <circle
       r="2.0193"
       fill="#ee6677"
       stroke-width="0.1"
       stroke="black"
       class="10-32"
       transform="matrix(1,0,0,1,24.002999999999997,0)"
       id="circle1154" />
    <circle
       r="2.0193"
       fill="#ee6677"
       stroke-width="0.1"
       stroke="black"
       class="10-32"
       transform="matrix(1,0,0,1,12.001500000000002,20.787207767037877)"
       id="circle1156" />
    <circle
       r="2.0193"
       fill="#ee6677"
       stroke-width="0.1"
       stroke="black"
       class="10-32"
       transform="matrix(1,0,0,1,-12.001499999999993,20.78720776703788)"
       id="circle1158" />
    <circle
       r="2.0193"
       fill="#ee6677"
       stroke-width="0.1"
       stroke="black"
       class="10-32"
       transform="matrix(1,0,0,1,-24.002999999999997,2.9395197119933913e-15)"
       id="circle1160" />
    <circle
       r="2.0193"
       fill="#ee6677"
       stroke-width="0.1"
       stroke="black"
       class="10-32"
       transform="matrix(1,0,0,1,-12.001500000000009,-20.787207767037874)"
       id="circle1162" />
    <circle
       r="2.0193"
       fill="#ee6677"
       stroke-width="0.1"
       stroke="black"
       class="10-32"
       transform="matrix(1,0,0,1,12.001500000000002,-20.787207767037877)"
       id="circle1164" />
    <circle
       r="13.1"
       fill="none"
       stroke-width="0.1"
       stroke="black"
       id="circle1166" />
    <circle
       r="12.446"
       fill="none"
       stroke-width="0.1"
       stroke="black"
       id="circle1168" />
  </g>
  <g
     transform="matrix(1,0,0,1,-75,-120)"
     id="g1188">
    <circle
       r="2.0193"
       fill="#ee6677"
       stroke-width="0.1"
       stroke="black"
       class="10-32"
       transform="matrix(1,0,0,1,24.002999999999997,0)"
       id="circle1172" />
    <circle
       r="2.0193"
       fill="#ee6677"
       stroke-width="0.1"
       stroke="black"
       class="10-32"
       transform="matrix(1,0,0,1,12.001500000000002,20.787207767037877)"
       id="circle1174" />
    <circle
       r="2.0193"
       fill="#ee6677"
       stroke-width="0.1"
       stroke="black"
       class="10-32"
       transform="matrix(1,0,0,1,-12.001499999999993,20.78720776703788)"
       id="circle1176" />
    <circle
       r="2.0193"
       fill="#ee6677"
       stroke-width="0.1"
       stroke="black"
       class="10-32"
       transform="matrix(1,0,0,1,-24.002999999999997,2.9395197119933913e-15)"
       id="circle1178" />
    <circle
       r="2.0193"
       fill="#ee6677"
       stroke-width="0.1"
       stroke="black"
       class="10-32"
       transform="matrix(1,0,0,1,-12.001500000000009,-20.787207767037874)"
       id="circle1180" />
    <circle
       r="2.0193"
       fill="#ee6677"
       stroke-width="0.1"
       stroke="black"
       class="10-32"
       transform="matrix(1,0,0,1,12.001500000000002,-20.787207767037877)"
       id="circle1182" />
    <circle
       r="13.1"
       fill="none"
       stroke-width="0.1"
       stroke="black"
       id="circle1184" />
    <circle
       r="12.446"
       fill="none"
       stroke-width="0.1"
       stroke="black"
       id="circle1186" />
  </g>
  <g
     transform="matrix(1,0,0,1,-80,0)"
     id="g1202">
    <circle
       r="2.5"
       fill="#228833"
       stroke-width="0.1"
       stroke="black"
       class="M6"
       transform="matrix(1,0,0,1,82.55,0)"
       id="circle1190" />
    <circle
       r="2.5"
       fill="#228833"
       stroke-width="0.1"
       stroke="black"
       class="M6"
       transform="matrix(1,0,0,1,41.275000000000006,71.49039708240541)"
       id="circle1192" />
    <circle
       r="2.5"
       fill="#228833"
       stroke-width="0.1"
       stroke="black"
       class="M6"
       transform="matrix(1,0,0,1,-41.27499999999998,71.49039708240541)"
       id="circle1194" />
    <circle
       r="2.5"
       fill="#228833"
       stroke-width="0.1"
       stroke="black"
       class="M6"
       transform="matrix(1,0,0,1,-82.55,1.0109459326961401e-14)"
       id="circle1196" />
    <circle
       r="2.5"
       fill="#228833"
       stroke-width="0.1"
       stroke="black"
       class="M6"
       transform="matrix(1,0,0,1,-41.275000000000034,-71.4903970824054)"
       id="circle1198" />
    <circle
       r="2.5"
       fill="#228833"
       stroke-width="0.1"
       stroke="black"
       class="M6"
       transform="matrix(1,0,0,1,41.275000000000006,-71.49039708240541)"
       id="circle1200" />
  </g>
  <g
     transform="matrix(1,0,0,1,-80,0)"
     id="g1208">
    <circle
       r="73.8124"
       fill="none"
       stroke-width="0.1"
       stroke="black"
       id="circle1204" />
    <circle
       r="69.6468"
       fill="none"
       stroke-width="0.1"
       stroke="black"
       id="circle1206" />
  </g>
  <circle
     r="2.5527"
     class="q-20"
     fill="#4477aa"
     stroke-width="0.1"
     stroke="black"
     transform="matrix(1,0,0,1,127,127)"
     id="circle1210" />
  <circle
     r="2.5527"
     class="q-20"
     fill="#4477aa"
     stroke-width="0.1"
     stroke="black"
     transform="matrix(1,0,0,1,-127,127)"
     id="circle1212" />
  <circle
     r="2.5527"
     class="q-20"
     fill="#4477aa"
     stroke-width="0.1"
     stroke="black"
     transform="matrix(1,0,0,1,-127,-127)"
     id="circle1214" />
  <circle
     r="2.5527"
     class="q-20"
     fill="#4477aa"
     stroke-width="0.1"
     stroke="black"
     transform="matrix(1,0,0,1,127,-127)"
     id="circle1216" />
  <circle
     r="2.5527"
     class="q-20"
     fill="#4477aa"
     stroke-width="0.1"
     stroke="black"
     transform="matrix(1,0,0,1,185,-50.8)"
     id="circle1218" />
  <circle
     r="2.5527"
     class="q-20"
     fill="#4477aa"
     stroke-width="0.1"
     stroke="black"
     transform="matrix(1,0,0,1,-50.8,185)"
     id="circle1220" />
  <circle
     r="2.5527"
     class="q-20"
     fill="#4477aa"
     stroke-width="0.1"
     stroke="black"
     transform="matrix(1,0,0,1,185,0)"
     id="circle1222" />
  <circle
     r="2.5527"
     class="q-20"
     fill="#4477aa"
     stroke-width="0.1"
     stroke="black"
     transform="matrix(1,0,0,1,0,185)"
     id="circle1224" />
  <circle
     r="2.5527"
     class="q-20"
     fill="#4477aa"
     stroke-width="0.1"
     stroke="black"
     transform="matrix(1,0,0,1,185,50.8)"
     id="circle1226" />
  <circle
     r="2.5527"
     class="q-20"
     fill="#4477aa"
     stroke-width="0.1"
     stroke="black"
     transform="matrix(1,0,0,1,50.8,185)"
     id="circle1228" />
  <circle
     r="2.5527"
     class="q-20"
     fill="#4477aa"
     stroke-width="0.1"
     stroke="black"
     transform="matrix(1,0,0,1,-185,-50.8)"
     id="circle1230" />
  <circle
     r="2.5527"
     class="q-20"
     fill="#4477aa"
     stroke-width="0.1"
     stroke="black"
     transform="matrix(1,0,0,1,-50.8,-185)"
     id="circle1232" />
  <circle
     r="2.5527"
     class="q-20"
     fill="#4477aa"
     stroke-width="0.1"
     stroke="black"
     transform="matrix(1,0,0,1,-185,0)"
     id="circle1234" />
  <circle
     r="2.5527"
     class="q-20"
     fill="#4477aa"
     stroke-width="0.1"
     stroke="black"
     transform="matrix(1,0,0,1,0,-185)"
     id="circle1236" />
  <circle
     r="2.5527"
     class="q-20"
     fill="#4477aa"
     stroke-width="0.1"
     stroke="black"
     transform="matrix(1,0,0,1,-185,50.8)"
     id="circle1238" />
  <circle
     r="2.5527"
     class="q-20"
     fill="#4477aa"
     stroke-width="0.1"
     stroke="black"
     transform="matrix(1,0,0,1,50.8,-185)"
     id="circle1240" />
  <circle
     r="2.5527"
     class="q-20"
     fill="#4477aa"
     stroke-width="0.1"
     stroke="black"
     transform="matrix(1,0,0,1,85,-40)"
     id="circle1242" />
  <circle
     r="2.5527"
     class="q-20"
     fill="#4477aa"
     stroke-width="0.1"
     stroke="black"
     transform="matrix(1,0,0,1,165,-40)"
     id="circle1244" />
  <circle
     r="2.5527"
     class="q-20"
     fill="#4477aa"
     stroke-width="0.1"
     stroke="black"
     transform="matrix(1,0,0,1,85,40)"
     id="circle1246" />
  <circle
     r="2.5527"
     class="q-20"
     fill="#4477aa"
     stroke-width="0.1"
     stroke="black"
     transform="matrix(1,0,0,1,165,40)"
     id="circle1248" />
  <g
     transform="translate(58.555536,214.25629)"
     id="g1268">
    <circle
       r="2.0193"
       fill="#ee6677"
       stroke-width="0.1"
       stroke="#000000"
       id="circle1250"
       cx="0"
       cy="0" />
    <text
       font-family="Helvetica"
       font-size="10px"
       text-anchor="left"
       alignment-baseline="middle"
       transform="translate(20)"
       svgjs:data="{&quot;leading&quot;:&quot;1.5em&quot;}"
       id="text1252">42</text>
    <text
       font-family="Helvetica"
       font-size="10px"
       text-anchor="left"
       alignment-baseline="middle"
       transform="translate(50)"
       svgjs:data="{&quot;leading&quot;:&quot;1.5em&quot;}"
       id="text1254">blindtap 10-32</text>
    <circle
       r="2.0999999"
       fill="#228833"
       stroke-width="0.1"
       stroke="#000000"
       transform="translate(0,18)"
       id="circle1256"
       cx="0"
       cy="0" />
    <text
       font-family="Helvetica"
       font-size="10px"
       text-anchor="left"
       alignment-baseline="middle"
       transform="translate(20,18)"
       svgjs:data="{&quot;leading&quot;:&quot;1.5em&quot;}"
       id="text1258">6</text>
    <text
       font-family="Helvetica"
       font-size="10px"
       text-anchor="left"
       alignment-baseline="middle"
       transform="translate(50,18)"
       svgjs:data="{&quot;leading&quot;:&quot;1.5em&quot;}"
       id="text1260">blindtap M6</text>
    <circle
       r="2.5527"
       fill="#4477aa"
       stroke-width="0.1"
       stroke="#000000"
       transform="translate(0,36)"
       id="circle1262"
       cx="0"
       cy="0" />
    <text
       font-family="Helvetica"
       font-size="10px"
       text-anchor="left"
       alignment-baseline="middle"
       transform="translate(20,36)"
       svgjs:data="{&quot;leading&quot;:&quot;1.5em&quot;}"
       id="text1264">20</text>
    <text
       font-family="Helvetica"
       font-size="10px"
       text-anchor="left"
       alignment-baseline="middle"
       transform="translate(50,36)"
       svgjs:data="{&quot;leading&quot;:&quot;1.5em&quot;}"
       id="text1266">blindtap 1/4-20</text>
  </g>
  <text
     xml:space="preserve"
     style="font-size:11.7333px;line-height:1.25;font-family:sans-serif;stroke-width:0.733333"
     x="168.7886"
     y="232.8492"
     id="text23235"><tspan
       sodipodi:role="line"
       id="tspan23233"
       style="font-size:11.7333px;stroke-width:0.733333"
       x="168.7886"
       y="232.8492">0.375 inch Depth</tspan></text>
  <text
     xml:space="preserve"
     style="font-size:11.7333px;line-height:1.25;font-family:sans-serif;stroke-width:0.733333"
     x="180.4859"
     y="251.76286"
     id="text23235-0"><tspan
       sodipodi:role="line"
       id="tspan23233-0"
       style="font-size:11.7333px;stroke-width:0.733333"
       x="180.4859"
       y="251.76286">0.375 inch Depth</tspan></text>
  <text
     xml:space="preserve"
     style="font-size:11.7333px;line-height:1.25;font-family:sans-serif;stroke-width:0.733333"
     x="177.76649"
     y="213.69116"
     id="text23235-8"><tspan
       sodipodi:role="line"
       id="tspan23233-8"
       style="font-size:11.7333px;stroke-width:0.733333"
       x="177.76649"
       y="213.69116">0.375 inch Depth</tspan></text>
  <path
     style="fill:#0c00ff;fill-opacity:0.25;stroke-width:3.70828"
     d="M 201.63782,617.05823 136.74289,579.61537 98.987611,514.3905 61.232334,449.16562 v -74.16563 -74.16564 l 37.755277,-65.22487 37.755279,-65.22488 64.89493,-37.44286 64.89493,-37.442864 74.38057,-0.0053 74.38059,-0.0053 65.14351,37.648544 65.14353,37.64854 37.31458,64.7528 37.31459,64.75281 v 74.70904 74.70904 l -37.31459,64.75281 -37.31458,64.7528 -65.14353,37.64854 -65.14351,37.64854 -74.38059,-0.006 -74.38057,-0.006 -64.89493,-37.44287 z m 72.73268,12.93715 c 2.63683,-3.17718 -0.99987,-8.54822 -4.36124,-6.4411 -3.3081,2.07374 -2.11812,7.78068 1.62238,7.78068 0.89491,0 2.12739,-0.60281 2.73886,-1.33958 z m 69.38721,0.2271 c 3.60075,-3.60074 -1.6008,-9.25796 -5.37324,-5.84396 -2.23661,2.02411 -2.34808,3.55261 -0.40108,5.49962 1.73503,1.73503 4.23458,1.88408 5.77432,0.34434 z m 69.73445,-0.77667 c 1.94989,-3.64341 -0.89576,-7.1838 -4.78255,-5.95017 -2.18027,0.69198 -3.22824,4.63826 -1.7157,6.46076 1.65571,1.995 5.31099,1.70779 6.49825,-0.51059 z M 322.4389,582.08689 c 0.29696,-2.56075 -1.50707,-3.956 -3.91853,-3.03063 -3.47813,1.33468 -2.46338,6.16905 1.20559,5.74357 1.8431,-0.21375 2.49919,-0.86984 2.71294,-2.71294 z m 42.53995,1.37794 c 0.76692,-1.99856 -0.88,-4.50935 -2.95785,-4.50935 -0.90863,0 -2.07681,0.67336 -2.59594,1.49637 -1.41632,2.24531 -0.10717,4.52959 2.59594,4.52959 1.3444,0 2.62853,-0.65842 2.95785,-1.51661 z m -14.21493,-11.0972 c 6.03682,-2.05696 13.72177,-9.28968 16.37501,-15.41143 3.02432,-6.97793 2.95228,-16.19195 -0.17989,-23.00635 -3.28834,-7.15421 -6.49073,-10.55514 -13.00336,-13.80954 -10.30337,-5.14866 -23.37177,-3.56953 -31.79116,3.84152 -5.71009,5.02622 -8.97355,11.63689 -9.51859,19.28144 -0.52762,7.40011 0.74099,12.36488 4.65652,18.22374 3.15073,4.71445 10.01062,9.93511 14.92688,11.35995 4.69701,1.36131 13.82546,1.12523 18.53459,-0.47933 z m -125.94934,-5.46406 c 0,-2.31478 -0.37176,-2.78121 -2.21664,-2.78121 -2.96759,0 -4.59407,2.57274 -2.90962,4.60237 0.69065,0.83219 2.1266,1.38863 3.19099,1.23656 1.47081,-0.21015 1.93527,-0.944 1.93527,-3.05772 z m 32.84246,1.51867 c 1.2061,-2.25362 -0.77675,-5.09366 -3.22683,-4.62182 -1.87055,0.36023 -2.78034,2.74605 -1.91102,5.01144 0.731,1.90496 4.0443,1.65371 5.13785,-0.38962 z M 244.0225,556.20146 c 7.46242,-2.07252 12.77601,-9.38141 12.77601,-17.57354 0,-15.98574 -18.25774,-24.20549 -30.29322,-13.6382 -4.17888,3.6691 -5.86253,7.58584 -5.86253,13.6382 0,8.23454 4.29859,14.53932 11.71563,17.18343 4.35607,1.55288 7.14187,1.64606 11.66411,0.39011 z m -74.30767,-4.62717 c 2.12677,-1.13821 2.36414,-4.82894 0.41464,-6.44688 -0.79068,-0.6562 -2.37209,-0.89476 -3.70829,-0.5594 -1.8254,0.45815 -2.32971,1.17299 -2.32971,3.30221 0,1.61005 0.66115,3.10257 1.62237,3.66243 2.03547,1.18555 1.86685,1.1838 4.00099,0.0416 z m 347.06071,-0.49714 c 2.80015,-2.80013 1.18905,-6.88681 -2.71499,-6.88681 -3.90403,0 -5.51513,4.08668 -2.71499,6.88681 0.80125,0.80126 2.023,1.45683 2.71499,1.45683 0.692,0 1.91374,-0.65557 2.71499,-1.45683 z m -215.41315,-3.71977 c 1.64688,-1.98438 -0.01,-4.55764 -2.93405,-4.55764 -2.26985,0 -3.32434,2.11612 -2.33684,4.6895 0.68255,1.77872 3.7489,1.70201 5.27089,-0.13186 z m 84.26198,0.1222 c 1.86641,-2.24888 0.27966,-5.29781 -2.58417,-4.96551 -2.49909,0.28998 -3.58285,2.37558 -2.58529,4.97517 0.66277,1.72716 3.73279,1.72142 5.16946,-0.01 z m -176.67076,-7.53274 c 0.90431,-2.35659 -0.47482,-4.10013 -3.24316,-4.10013 -2.34705,0 -2.68203,0.33887 -2.68203,2.71324 0,1.82868 0.52892,2.83072 1.62238,3.07364 2.19422,0.48745 3.69412,-0.10054 4.30281,-1.68675 z m 65.28372,-1.61341 c -0.22259,-1.56357 -0.91694,-2.02319 -3.05653,-2.02319 -3.28698,0 -4.40352,2.89513 -1.83958,4.76993 2.25789,1.65101 5.28077,-0.0449 4.89611,-2.74674 z m 200.88626,-2.02319 c 0,-2.31477 -0.37175,-2.78121 -2.21663,-2.78121 -2.59211,0 -4.36426,2.31556 -3.4986,4.57143 0.4125,1.07496 1.42099,1.48494 3.16052,1.28485 2.15522,-0.2479 2.55471,-0.72876 2.55471,-3.07507 z m -40.61446,-9.39671 c 0.76692,-1.99856 -0.88,-4.50934 -2.95785,-4.50934 -0.90863,0 -2.07681,0.67336 -2.59594,1.49636 -1.41631,2.24531 -0.10717,4.52959 2.59594,4.52959 1.34441,0 2.62854,-0.65842 2.95785,-1.51661 z m 39.89454,-5.74018 c 17.00593,-8.80162 20.76731,-32.43005 7.30549,-45.89188 -5.37428,-5.37429 -10.14745,-7.37209 -18.74103,-7.84403 -6.71961,-0.36903 -8.12705,-0.14063 -13.2217,2.14572 -6.14532,2.75785 -10.81029,7.22656 -14.2083,13.61053 -3.09715,5.81875 -3.06577,18.85739 0.0598,24.8409 3.69589,7.07535 8.4853,11.34726 16.34891,14.58244 4.49108,1.84768 17.7436,0.99572 22.45684,-1.44368 z M 224.81458,510.35227 c 0,-2.31477 -0.37176,-2.78121 -2.21664,-2.78121 -2.96759,0 -4.59407,2.57274 -2.90962,4.60238 0.69065,0.83218 2.1266,1.38863 3.19099,1.23655 1.47081,-0.21015 1.93527,-0.944 1.93527,-3.05772 z m 32.84246,1.51867 c 1.2061,-2.25361 -0.77675,-5.09366 -3.22683,-4.62181 -1.87055,0.36023 -2.78034,2.74604 -1.91102,5.01143 0.731,1.90496 4.0443,1.65371 5.13785,-0.38962 z m 64.96347,-2.81009 c 0,-3.86561 -4.56658,-4.95856 -5.92519,-1.41811 -0.90431,2.3566 0.47482,4.10014 3.24317,4.10014 2.33993,0 2.68202,-0.34209 2.68202,-2.68203 z m 42.35834,1.16541 c 0.76692,-1.99856 -0.88,-4.50934 -2.95785,-4.50934 -0.90863,0 -2.07681,0.67336 -2.59594,1.49636 -1.41632,2.24531 -0.10717,4.5296 2.59594,4.5296 1.3444,0 2.62853,-0.65843 2.95785,-1.51662 z m 139.811,-3.58227 c 0,-2.32279 -0.4071,-2.8283 -2.46987,-3.06688 -1.84087,-0.21292 -2.62767,0.21158 -3.08957,1.66686 -0.79038,2.49027 1.10214,4.81807 3.62417,4.45774 1.47081,-0.21015 1.93527,-0.944 1.93527,-3.05772 z m -81.29653,-21.93834 c 0.35278,-3.05014 -2.92164,-4.56219 -5.11968,-2.36415 -2.19804,2.19804 -0.68599,5.47246 2.36415,5.11968 1.89539,-0.21923 2.5363,-0.86014 2.75553,-2.75553 z m -245.09848,-9.64828 c 1.98041,-1.98041 1.82984,-3.73919 -0.45729,-5.34115 -2.54114,-1.77989 -5.38992,-0.92618 -6.07965,1.82191 -1.05372,4.19838 3.43906,6.61712 6.53694,3.51924 z m 63.49535,0.49303 c 42.14793,-4.32519 76.88608,-33.93142 87.9368,-74.94576 2.16624,-8.03991 2.40266,-10.55941 2.40266,-25.60465 0,-15.04524 -0.23642,-17.56474 -2.40266,-25.60465 -7.82709,-29.04997 -26.86704,-52.06146 -54.02354,-65.29234 -38.89354,-18.94925 -85.11544,-11.06988 -115.6828,19.72023 -11.52742,11.61143 -18.12167,21.95879 -23.36388,36.66142 -17.58408,49.31742 4.62727,103.46589 51.60994,125.81853 9.54643,4.54184 22.081,8.15955 31.82407,9.18501 10.66372,1.12236 11.34938,1.12433 21.69941,0.0622 z m 49.02451,-0.14868 c 3.14675,-3.14675 -0.55381,-8.38922 -4.44994,-6.30408 -2.09476,1.12108 -2.59705,6.03521 -0.6953,6.80258 2.0565,0.82981 4.00578,0.64096 5.14524,-0.4985 z m 202.7503,-9.53613 c 0,-3.28698 -2.89513,-4.40352 -4.76992,-1.83958 -1.65101,2.25789 0.0449,5.28077 2.74674,4.89611 1.56357,-0.22259 2.02318,-0.91694 2.02318,-3.05653 z m -40.7911,-11.12484 c 0,-3.28699 -2.89513,-4.40352 -4.76992,-1.83959 -1.65101,2.2579 0.0449,5.28078 2.74674,4.89612 1.56357,-0.22259 2.02318,-0.91695 2.02318,-3.05653 z M 92.357172,445.33452 c 1.216343,-4.8463 -5.21327,-7.09643 -7.284997,-2.54949 -0.969286,2.12735 -0.852931,2.6312 0.94356,4.08592 2.592893,2.09959 5.612472,1.368 6.341437,-1.53643 z m 504.515578,-0.26088 c 0.42134,-2.83188 -1.54766,-4.86132 -4.39539,-4.53029 -1.8858,0.21921 -2.46343,0.86206 -2.70833,3.01414 -0.2018,1.77328 0.23767,3.13691 1.24937,3.87668 2.12351,1.55275 5.47306,0.20219 5.85435,-2.36053 z M 458.96081,432.90928 c 2.12676,-1.13821 2.36413,-4.82895 0.41463,-6.44689 -1.73434,-1.43938 -5.64223,-0.5244 -6.42031,1.50324 -0.63985,1.66743 1.68919,5.90333 3.24584,5.90333 0.53165,0 1.77358,-0.43186 2.75984,-0.95968 z m 109.73068,-0.49715 c 1.70834,-1.70834 1.80096,-2.65738 0.49714,-5.09361 -1.75953,-3.2877 -7.38395,-1.73818 -7.38395,2.03428 0,1.91133 2.40622,4.51616 4.17182,4.51616 0.69199,0 1.91374,-0.65557 2.71499,-1.45683 z M 514.34857,416.8872 c -0.22258,-1.56357 -0.91694,-2.02318 -3.05653,-2.02318 -3.28698,0 -4.40352,2.89513 -1.83958,4.76992 2.2579,1.65101 5.28078,-0.0449 4.89611,-2.74674 z m 6.95802,-15.08749 c 5.24308,-1.78649 12.95857,-8.50786 15.74511,-13.71638 1.71146,-3.19901 2.03975,-5.30472 2.03975,-13.08334 0,-11.04886 -1.44423,-14.52665 -8.76638,-21.1099 -5.57652,-5.01377 -11.29624,-7.16575 -19.04573,-7.16575 -8.55545,0 -13.9631,2.23732 -20.00071,8.27494 -6.03762,6.03761 -8.27494,11.44526 -8.27494,20.00071 0,3.13262 0.69915,7.75159 1.55368,10.26439 2.02214,5.94632 10.24971,14.34248 16.0653,16.39449 5.4581,1.92589 15.24945,1.99255 20.68392,0.14084 z m -43.8336,-4.14575 c 1.30044,-2.42992 -0.41084,-4.78751 -3.18587,-4.38907 -1.98691,0.28528 -2.95213,2.62093 -2.05224,4.96601 0.76073,1.98242 4.06303,1.61868 5.23811,-0.57694 z m 73.23856,0 c 1.30045,-2.42992 -0.41083,-4.78751 -3.18587,-4.38907 -1.98691,0.28528 -2.95212,2.62093 -2.05224,4.96601 0.76073,1.98242 4.06304,1.61868 5.23811,-0.57694 z M 91.594558,378.05932 c 2.463615,-2.46361 0.673607,-7.23115 -2.714991,-7.23115 -1.911332,0 -4.516158,2.40622 -4.516158,4.17182 0,3.24271 4.952488,5.338 7.231149,3.05933 z m 29.912612,0.1528 c 2.38596,-1.27693 2.32815,-5.17827 -0.096,-6.47562 -2.38821,-1.27813 -5.49337,-0.33975 -5.63725,1.70359 -0.35571,5.05164 1.82272,6.86485 5.73321,4.77203 z m 225.61448,-0.49714 c 0.80126,-0.80125 1.45683,-2.023 1.45683,-2.71499 0,-0.69199 -0.65557,-1.91374 -1.45683,-2.71499 -0.80124,-0.80126 -2.02299,-1.45683 -2.71499,-1.45683 -0.69199,0 -1.91374,0.65557 -2.71499,1.45683 -0.80125,0.80125 -1.45682,2.023 -1.45682,2.71499 0,0.69199 0.65557,1.91374 1.45682,2.71499 0.80125,0.80126 2.023,1.45683 2.71499,1.45683 0.692,0 1.91375,-0.65557 2.71499,-1.45683 z m 248.94229,0.11725 c 2.63683,-3.17719 -0.99988,-8.54822 -4.36124,-6.4411 -3.3081,2.07373 -2.11812,7.78068 1.62237,7.78068 0.89491,0 2.1274,-0.60281 2.73887,-1.33958 z M 477.39209,355.59077 c 1.64244,-1.97903 -0.40271,-5.35658 -3.01706,-4.98263 -3.43195,0.49087 -3.30061,6.31398 0.14242,6.31398 0.97335,0 2.26694,-0.59911 2.87464,-1.33135 z m 73.23856,0 c 1.64245,-1.97903 -0.40271,-5.35658 -3.01705,-4.98263 -3.43195,0.49087 -3.30062,6.31398 0.14241,6.31398 0.97335,0 2.26694,-0.59911 2.87464,-1.33135 z m -36.29359,-22.39008 c 0.39772,-2.78369 -1.95616,-4.49738 -4.38907,-3.19533 -1.87828,1.00522 -2.55506,3.71638 -1.25278,5.01865 1.40407,1.40407 5.36355,0.12447 5.64185,-1.82332 z m -54.69554,-9.83852 c 1.98148,-1.98149 1.30723,-5.32803 -1.3141,-6.52239 -2.14168,-0.97581 -2.63149,-0.85257 -4.17181,1.04965 -2.12194,2.62048 -2.15784,3.25897 -0.28841,5.12839 1.73503,1.73503 4.23458,1.88409 5.77432,0.34435 z m 109.59847,-0.77668 c 1.94989,-3.6434 -0.89576,-7.18379 -4.78254,-5.95017 -2.18028,0.69199 -3.22825,4.63827 -1.71571,6.46077 1.65571,1.995 5.311,1.70779 6.49825,-0.5106 z M 91.769981,308.26296 c 1.562512,-1.88271 0.447953,-5.70722 -1.837394,-6.30485 -1.057789,-0.27662 -2.756257,0.23113 -3.916852,1.17092 -1.796491,1.45471 -1.912846,1.95857 -0.94356,4.08591 1.253692,2.75156 4.820773,3.3097 6.697806,1.04802 z m 504.150889,0.26608 c 3.14675,-3.14675 -0.55381,-8.38922 -4.44994,-6.30408 -1.80805,0.96764 -2.61712,5.41749 -1.23609,6.79851 1.0073,1.00731 4.48686,0.70474 5.68603,-0.49443 z M 452.8739,295.28463 c 0,-3.28698 -2.89513,-4.40352 -4.76992,-1.83958 -1.65101,2.2579 0.0449,5.28078 2.74674,4.89612 1.56357,-0.22259 2.02318,-0.91695 2.02318,-3.05654 z m 40.7911,-11.12484 c 0,-3.28699 -2.89513,-4.40352 -4.76992,-1.83959 -1.65101,2.2579 0.0449,5.28078 2.74674,4.89612 1.56357,-0.22259 2.02318,-0.91695 2.02318,-3.05653 z m -21.54971,-3.2521 c 2.74388,-1.02662 6.72922,-3.56675 8.96165,-5.71187 14.13206,-13.57935 10.70005,-37.42029 -6.67327,-46.35673 -5.40587,-2.78066 -16.39191,-3.41171 -22.73231,-1.30577 -5.96653,1.98177 -12.55811,7.77925 -15.75184,13.85417 -2.17389,4.13505 -2.49727,5.82945 -2.49891,13.09334 -0.002,6.87553 0.36497,9.03238 2.08306,12.25791 5.47992,10.28794 14.58005,16.01573 25.44733,16.01701 3.94863,4.6e-4 8.02886,-0.67496 11.16429,-1.84806 z m -294.1027,-0.7582 c 2.6039,-2.10851 1.81349,-5.47506 -1.47951,-6.30154 -4.24515,-1.06548 -6.68923,3.40362 -3.56822,6.52463 1.85973,1.85974 2.5111,1.83094 5.04773,-0.22309 z m 112.2214,0.72024 c 2.12676,-1.13822 2.36413,-4.82895 0.41463,-6.44689 -0.79068,-0.6562 -2.37208,-0.89475 -3.70828,-0.55939 -1.8254,0.45815 -2.32972,1.17298 -2.32972,3.3022 0,1.61006 0.66115,3.10257 1.62237,3.66243 2.03548,1.18556 1.86686,1.18381 4.001,0.0416 z m 132.35947,-12.83364 c 0.68197,-0.43228 1.09915,-1.78173 0.92707,-2.99879 -0.43052,-3.0449 -4.96599,-3.68722 -5.87232,-0.83164 -1.05217,3.3151 2.01285,5.68915 4.94525,3.83043 z m 82.19639,-24.6801 c 0,-2.11372 -0.46446,-2.84757 -1.93527,-3.05772 -2.52203,-0.36034 -4.41455,1.96746 -3.62417,4.45773 0.4619,1.45529 1.2487,1.87979 3.08957,1.66687 2.06277,-0.23859 2.46987,-0.74409 2.46987,-3.06688 z m -183.63577,0.82788 c 0.86959,-0.33369 1.46643,-1.6543 1.46643,-3.24475 0,-2.36198 -0.33188,-2.68202 -2.78121,-2.68202 -1.52967,0 -2.78121,0.17447 -2.78121,0.38771 0,0.21325 -0.23259,0.99382 -0.51685,1.7346 -0.28427,0.7408 0.16271,2.02646 0.99329,2.85704 1.71959,1.7196 1.65283,1.70212 3.61955,0.94742 z m 43.14764,-0.78335 c 1.93049,-2.3261 0.78338,-4.67988 -2.28072,-4.67988 -1.91557,0 -2.8537,0.50823 -3.07683,1.66691 -0.36809,1.9113 1.35965,4.35904 3.07683,4.35904 0.63997,0 1.66629,-0.60573 2.28072,-1.34607 z m -139.48714,-3.75281 c 0,-2.31478 -0.37176,-2.78122 -2.21664,-2.78122 -2.96759,0 -4.59407,2.57275 -2.90962,4.60238 0.69065,0.83219 2.1266,1.38863 3.19099,1.23656 1.47081,-0.21015 1.93527,-0.944 1.93527,-3.05772 z m 32.84246,1.51867 c 1.2061,-2.25362 -0.77675,-5.09366 -3.22683,-4.62182 -1.87055,0.36023 -2.78034,2.74605 -1.91102,5.01144 0.731,1.90496 4.0443,1.65371 5.13785,-0.38962 z m 96.29864,-11.30671 c 9.87957,-4.93687 15.3373,-13.98834 15.31409,-25.39792 -0.018,-8.84067 -2.68619,-14.87599 -9.2144,-20.84239 -6.4358,-5.88196 -12.1647,-7.85683 -21.09899,-7.27324 -10.49185,0.68533 -18.24329,5.60029 -23.33859,14.79833 -2.4592,4.43937 -2.73067,5.76275 -2.72298,13.27458 0.007,7.25638 0.33392,8.96256 2.50555,13.09334 3.0058,5.71745 9.64166,11.78774 14.9373,13.66419 2.12917,0.75446 7.03775,1.40467 10.90795,1.44493 6.07812,0.0632 7.8096,-0.31302 12.71007,-2.76182 z M 244.0225,228.9456 c 7.46242,-2.07252 12.77601,-9.38141 12.77601,-17.57354 0,-15.98574 -18.25774,-24.20549 -30.29322,-13.6382 -4.17888,3.66909 -5.86253,7.58584 -5.86253,13.6382 0,8.23454 4.29859,14.53932 11.71563,17.18342 4.35607,1.55289 7.14187,1.64607 11.66411,0.39012 z m 189.8095,-2.23234 c 1.93049,-2.32611 0.78338,-4.67989 -2.28072,-4.67989 -1.91556,0 -2.85369,0.50824 -3.07683,1.66691 -0.36808,1.9113 1.35965,4.35905 3.07683,4.35905 0.63997,0 1.66629,-0.60573 2.28072,-1.34607 z m 41.29159,-13.02353 c 0,-2.46935 -0.31043,-2.78121 -2.76851,-2.78121 -1.92778,0 -2.866,0.5062 -3.08953,1.66691 -0.44644,2.31817 1.60768,4.50279 3.92278,4.17202 1.4708,-0.21015 1.93526,-0.944 1.93526,-3.05772 z m -266.53274,0.0758 c 0,-0.21325 0.23258,-0.99382 0.51685,-1.73461 0.73194,-1.90742 -1.97648,-4.29675 -4.20883,-3.71299 -1.33032,0.34789 -1.87045,1.26104 -1.87045,3.16222 0,2.35205 0.33403,2.67309 2.78122,2.67309 1.52966,0 2.78121,-0.17448 2.78121,-0.38771 z m 65.68311,-1.86869 c 0.46728,-2.4604 -2.36788,-4.44521 -4.62453,-3.23749 -1.72231,0.92175 -2.31698,3.66688 -1.06546,4.9184 1.31886,1.31887 5.34623,0.12912 5.68999,-1.68091 z m 27.08843,-5.70141 c 1.64688,-1.98438 -0.01,-4.55764 -2.93405,-4.55764 -2.26985,0 -3.32434,2.11612 -2.33684,4.6895 0.68255,1.77872 3.7489,1.70201 5.27089,-0.13186 z m 84.77656,-0.43032 c 0.77185,-2.43187 -1.14845,-4.76039 -3.6318,-4.40383 -1.98691,0.28528 -2.95213,2.62093 -2.05224,4.96601 0.7978,2.07904 4.97694,1.6657 5.68404,-0.56218 z m -215.74341,-1.068 c 3.14675,-3.14675 -0.55381,-8.38922 -4.44993,-6.30408 -2.09477,1.12109 -2.59705,6.03521 -0.69531,6.80258 2.05651,0.82982 4.00578,0.64096 5.14524,-0.4985 z m 346.89977,-0.26608 c 1.43936,-1.73433 0.52439,-5.64223 -1.50322,-6.42029 -3.85904,-1.48086 -7.55656,3.2992 -4.96629,6.42029 1.47156,1.77312 4.99795,1.77312 6.46951,0 z M 224.81458,183.09641 c 0,-2.31477 -0.37176,-2.78121 -2.21664,-2.78121 -2.96759,0 -4.59407,2.57274 -2.90962,4.60238 0.69065,0.83218 2.1266,1.38862 3.19099,1.23655 1.47081,-0.21015 1.93527,-0.944 1.93527,-3.05772 z m 32.84246,1.51867 c 1.2061,-2.25361 -0.77675,-5.09366 -3.22683,-4.62181 -1.87055,0.36023 -2.78034,2.74605 -1.91102,5.01143 0.731,1.90497 4.0443,1.65371 5.13785,-0.38962 z m 63.88574,-13.92139 c 2.05015,-1.2995 0.93105,-5.16682 -1.59864,-5.5245 -3.43913,-0.48627 -4.83418,2.40413 -2.3563,4.88201 1.65668,1.65668 2.21247,1.74697 3.95494,0.64249 z m 42.75894,-0.53173 c 1.93049,-2.3261 0.78338,-4.67989 -2.28072,-4.67989 -1.91557,0 -2.8537,0.50824 -3.07683,1.66691 -0.36809,1.91131 1.35965,4.35905 3.07683,4.35905 0.63997,0 1.66629,-0.60573 2.28072,-1.34607 z M 274.3705,125.66907 c 2.63683,-3.17718 -0.99987,-8.54822 -4.36124,-6.4411 -3.3081,2.07373 -2.11812,7.78068 1.62238,7.78068 0.89491,0 2.12739,-0.60281 2.73886,-1.33958 z m 68.7065,0.37989 c 2.12677,-1.13821 2.36414,-4.82894 0.41464,-6.44688 -0.77381,-0.6422 -2.37349,-0.8944 -3.6465,-0.5749 -3.01505,0.75673 -3.95814,3.88401 -1.86785,6.19377 1.85076,2.04505 2.59873,2.1665 5.09971,0.82801 z m 69.86666,-0.49714 c 1.70834,-1.70834 1.80096,-2.65738 0.49714,-5.09361 -1.75954,-3.28771 -7.38395,-1.73818 -7.38395,2.03428 0,1.91133 2.40622,4.51616 4.17181,4.51616 0.692,0 1.91375,-0.65557 2.715,-1.45683 z"
     id="path5446"
     transform="matrix(0.73333333,0,0,0.73333333,-250,-275)" />
  <path
     style="fill:#0c00ff;fill-opacity:0.25;stroke-width:0.92707"
     d="m 224.81458,469.54755 c -17.79618,-1.56423 -33.65241,-7.28675 -47.67576,-17.20622 -4.64856,-3.28818 -7.52232,-5.73778 -12.13985,-10.34806 -6.00551,-5.99608 -10.2508,-11.36486 -14.39633,-18.2062 -10.85486,-17.91372 -15.51098,-39.99199 -12.806,-60.72311 3.44913,-26.43427 17.66929,-50.07491 39.34218,-65.40531 20.55709,-14.54114 46.22734,-20.35284 70.85252,-16.04089 10.8426,1.89857 22.28909,6.08823 31.66269,11.58921 23.20911,13.62049 39.73081,36.70887 45.01315,62.90396 1.44029,7.14244 1.76006,10.57422 1.76006,18.88906 0,8.14643 -0.32396,11.75787 -1.64247,18.30964 -4.97839,24.73811 -19.25996,46.25116 -39.94238,60.16723 -12.89945,8.67934 -27.0281,13.89482 -42.64524,15.74218 -3.72429,0.44055 -13.91645,0.63317 -17.38257,0.32851 z m 17.8461,-8.42842 c 16.63992,-2.30943 30.38696,-8.14072 43.5441,-18.47076 3.3781,-2.65225 10.57303,-9.88274 13.46408,-13.53064 20.16694,-25.44645 24.55308,-59.62303 11.46328,-89.32141 -8.50961,-19.30678 -24.40361,-35.31015 -43.55311,-43.85282 -8.15302,-3.63709 -16.03224,-5.8683 -24.91835,-7.05628 -3.90758,-0.5224 -13.85559,-0.71268 -18.1461,-0.34708 -20.56208,1.75211 -39.44712,10.53774 -54.0581,25.14872 -14.10744,14.10744 -22.38855,31.37861 -24.95213,52.04042 -0.40124,3.23383 -0.40008,15.28332 0.002,18.54141 1.67349,13.568 5.72717,25.38195 12.46268,36.32099 7.12935,11.57867 17.32999,21.67889 28.98065,28.69537 11.42594,6.88113 24.38762,11.04878 38.09689,12.24951 2.63772,0.23102 15.06389,-0.0634 17.61434,-0.41743 z"
     id="path5485"
     transform="matrix(0.73333333,0,0,0.73333333,-250,-275)" />
  <rect
     style="fill:#0c00ff;fill-opacity:0.25;stroke-width:2.93333"
     id="rect5546"
     width="23.794807"
     height="23.794807"
     x="-242.52162"
     y="204.97523" />
  <text
     xml:space="preserve"
     style="font-size:19.5556px;line-height:1.25;font-family:sans-serif;stroke-width:0.733333"
     x="-217.36713"
     y="226.7305"
     id="text7486"><tspan
       sodipodi:role="line"
       id="tspan7484"
       style="stroke-width:0.733333"
       x="-217.36713"
       y="226.7305">Polish Visible Surface</tspan></text>
  <path
     style="fill:#800080;fill-opacity:0.25;stroke-width:0.655538"
     d="m 225.58694,475.31694 c -31.29575,-2.01525 -59.80775,-18.42113 -77.27586,-44.46473 -5.42251,-8.08454 -9.98172,-17.76341 -12.77617,-27.12288 -0.95905,-3.21214 -2.46074,-9.42089 -2.46074,-10.17394 0,-0.19157 0.47518,-0.23272 2.68764,-0.23272 h 2.68765 l 0.2753,1.27011 c 0.9872,4.55445 2.21709,8.83763 3.72937,12.98784 12.20819,33.50347 42.07365,57.31753 77.47742,61.7788 4.1864,0.52753 7.05026,0.69504 11.883,0.69504 4.83274,0 7.6966,-0.16751 11.883,-0.69504 18.56864,-2.33986 35.70625,-9.93352 50.16518,-22.22814 2.5809,-2.19458 8.22704,-7.8801 10.4701,-10.54311 7.5605,-8.97608 13.38819,-19.14068 17.24169,-30.0728 1.2902,-3.6602 2.65696,-8.57931 3.40377,-12.25036 l 0.19169,-0.94234 h 2.69248 c 2.29744,0 2.69247,0.0365 2.69247,0.24861 0,0.43136 -0.80063,3.98678 -1.54935,6.88037 -3.53436,13.65931 -10.30438,27.00438 -19.24672,37.93925 -17.72616,21.67588 -43.11984,34.85163 -71.06116,36.87075 -2.0659,0.14929 -11.06186,0.18722 -13.11076,0.0553 z"
     id="path7906"
     transform="matrix(0.73333333,0,0,0.73333333,-250,-275)" />
  <path
     style="fill:#800080;fill-opacity:0.25;stroke-width:2.62215;opacity:1"
     d="m 132.49832,388.37936 c -1.15997,-7.79908 -0.91467,-21.40933 0.53912,-29.91309 7.12168,-41.65737 39.2582,-74.14101 81.32342,-82.20184 8.47815,-1.62464 26.03235,-1.63849 34.74042,-0.0274 42.9311,7.94268 76.31481,42.70239 81.99318,85.37272 0.78293,5.88344 0.50434,27.39416 -0.39163,30.23797 -0.36361,1.15412 -0.9558,1.47496 -2.72232,1.47496 h -2.25762 l 0.53135,-4.75265 c 0.92862,-8.30601 0.56465,-25.16213 -0.67589,-31.30193 -2.74528,-13.58724 -8.41064,-26.92283 -15.94764,-37.5388 -2.10228,-2.9611 -6.91975,-8.49613 -10.70548,-12.30007 -13.14477,-13.20799 -29.52921,-22.03171 -48.18203,-25.94808 -8.3203,-1.74694 -29.65341,-1.77047 -37.67773,-0.0416 -29.90325,6.44292 -53.28125,24.43996 -66.82092,51.44061 -7.59288,15.14164 -11.11405,34.64672 -9.28885,51.45446 0.42242,3.88995 0.93342,7.5036 1.13554,8.03033 0.28442,0.74117 -0.22317,0.95769 -2.24509,0.95769 h -2.6126 z"
     id="path7945"
     transform="matrix(0.73333333,0,0,0.73333333,-250,-275)" />
  <rect
     style="opacity:1;fill:#800080;fill-opacity:0.25;stroke-width:2.93333"
     id="rect8526"
     width="23.794815"
     height="23.794815"
     x="-242.52162"
     y="228.77005" />
  <text
     xml:space="preserve"
     style="font-size:19.5556px;line-height:1.25;font-family:sans-serif;stroke-width:0.733333"
     x="-216.34906"
     y="247.55103"
     id="text10150"><tspan
       sodipodi:role="line"
       id="tspan10148"
       style="stroke-width:0.733333"
       x="-216.34906"
       y="247.55103">Polish O-Ring Groove</tspan></text>
</svg>
