
{
  "scenes" : [
    {
      "nodes" : [ 0 ]
    }
  ],

  "nodes" : [
    {
      "mesh" : 0
    }
  ],

  "meshes" : [
    {
      "primitives" : [ {
        "attributes" : {
          "POSITION" : 1
        },
        "indices" : 0
      } ]
    }
  ],

  "buffers" : [
    {
      "uri": "out.bin",
      "byteLength" : 2130012
    }
  ],
  "bufferViews" : [
    {
      "buffer" : 0,
      "byteOffset" : 0,
      "byteLength" : 1421448,
      "target" : 34963
    },
    {
      "buffer" : 0,
      "byteOffset" : 1421448,
      "byteLength" : 708564,
      "target" : 34962
    }
  ],
  "accessors" : [
    {
      "bufferView" : 0,
      "byteOffset" : 0,
      "componentType" : 5125,
      "count" : 355362,
      "type" : "SCALAR",
      "max" : [ 59046 ],
      "min" : [ 0 ]
    },
    {
      "bufferView" : 1,
      "byteOffset" : 0,
      "componentType" : 5126,
      "count" : 59047,
      "type" : "VEC3",
      "min" : [-1098.860350, -163.194680, -333.476590],
      "max" : [8.893400, 88.893400, 271.119590]
    }
  ],

  "asset" : {
    "version" : "2.0"
  }
}
