<?xml version="1.0" encoding="UTF-8" standalone="no"?>
<svg
   xmlns:svg="http://www.w3.org/2000/svg"
   xmlns="http://www.w3.org/2000/svg"
   width="800.0"
   height="240.0"

>
    <g transform="scale(17.98124111723752, -17.98124111723752)   translate(14.284628242540862,-5.157998379693359)" stroke-width="0.05561351374357363"  fill="none">
       <!-- hidden lines -->
       <g  stroke="rgb(160,160,160)" fill="none" stroke-dasharray="0.05561351374357363,0.05561351374357363" >

       </g>

       <!-- solid lines -->
       <g  stroke="rgb(0,0,0)" fill="none">
			<path d="M6.465429741107243,-0.6169508689401322 L6.463979951406361,-0.7396002061399412 L6.459631455602823,-0.8623819956042091 L6.452386873067897,-0.9852222781740687 L6.442250567667212,-1.1080470594565957 L6.42922864513212,-1.2307823543962584 L6.413328949381834,-1.3533542318407552 L6.3945610577985486,-1.4756888590743704 L6.3729362754583745,-1.597712546292043 L6.3484676283215915,-1.7193517909873544 L6.321169855386293,-1.840533322227684 L6.291059399810166,-1.9611841447898826 L6.258154399005746,-2.0812315831298633 L6.222474673715122,-2.2006033251596335 L6.1840417160706584,-2.3192274658053895 L6.142878676648938,-2.437032550320449 L6.099010350525723,-2.5539476173269176 L6.05246316234033,-2.6699022415601656 L6.003265150378407,-2.784826576290378 L5.95144594968273,-2.898651395395611 L5.897036774202153,-3.011308135061018 L5.840070397989497,-3.1227289350791336 L5.780581135459679,-3.2328466797263173 L5.718604820720002,-3.3415950381907624 L5.654178785985022,-3.4489085045276937 L5.587341839089017,-3.5547224371176975 L5.518134240109606,-3.6589730976044192 L5.446597677116572,-3.7615976892881653 L5.372775241060539,-3.8625343949522852 L5.296711399816591,-3.9617224140995555 L5.218451971398476,-4.059101999576119 L5.138044096359572,-4.154614493560943 L5.055536209397155,-4.248202362899093 L4.970978010177163,-4.339809233757554 L4.88442043339697,-4.429379925582724 L4.7959156181042335,-4.516860484339112 L4.705516876290281,-4.60219821500923 L4.613278660776949,-4.685341713335108 L4.5192565324162555,-4.766240896782286 L4.423507126622613,-4.8448470347076755 L4.326088119257767,-4.921112777713061 L4.227058191889026,-4.994992186166615 L4.126476996441669,-5.066440757875216 L4.02440511926686,-5.135415454890898 L3.9209040446466963,-5.201874729435312 L3.8160361177583737,-5.265778548926543 L3.7098645071197844,-5.327088420093248 L3.6024531665391675,-5.3857674121615595 L3.493866796591716,-5.441780179100806 L3.3841708056463826,-5.495092980914633 L3.273431270466318,-5.545673703964723 L3.161714896406695,-5.593491880314844 L3.049088977233902,-5.638518706083603 L2.935621354590295,-5.680727058794815 L2.8213803771289268,-5.72009151371508 L2.7064348593428735,-5.756588359168688 L2.5908540401139617,-5.790195610820639 L2.4747075410058486,-5.820893024919196 L2.3580653243266,-5.848662110489957 L2.2409976509860092,-5.873486140474125 L2.1235750381730534,-5.895350161804269 L2.005868216878978,-5.914241004411489 L1.8879480892915912,-5.930147289158571 L1.769885686086433,-5.943059434694357 L1.6517521236405552,-5.952969663225194 L1.5336185611946775,-5.9598720051999825 L1.4155561579895193,-5.963762302906011 L1.2976360304021326,-5.964638212973411 L1.1799292091080573,-5.962499207786708 L1.0625065962951015,-5.957346575802644 L0.9454389229545108,-5.949183420774058 L0.8287967062752617,-5.9380146598803 L0.7126502071671488,-5.923847020765302 L0.5970693879382365,-5.906689037485109 L0.48212387015218416,-5.886551045367269 L0.36788289269081553,-5.863445174785224 L0.254415270047208,-5.837385343851431 L0.1417893508744159,-5.808387250033603 L0.030072976814792707,-5.776468360699148 L-0.0806665583652717,-5.741647902593479 L-0.19036254931060514,-5.703946850258533 L-0.298948919258057,-5.663387913398507 L-0.40636025983867397,-5.619995523200369 L-0.5125318704772623,-5.573795817617428 L-0.6173997973655858,-5.524816625624808 L-0.7209008719857501,-5.473087450456317 L-0.822972749160559,-5.418639451832798 L-0.923553944607916,-5.361505427192679 L-1.0225838719766562,-5.301719791936023 L-1.120002879341501,-5.2393185586939826 L-1.215752285135144,-5.1743393156361295 L-1.3097744134958362,-5.10682120382875 L-1.4020126290091706,-5.036804893657734 L-1.4924113708231261,-4.964332560330247 L-1.5809161861158612,-4.889447858469975 L-1.6674737628960532,-4.812195895821197 L-1.7520319621160447,-4.732623206077574 L-1.8345398490784621,-4.650777720851996 L-1.9149477241173667,-4.566708740804361 L-1.9932071525354793,-4.480466905944708 L-2.0692709937794307,-4.392104165129567 L-2.1430934298354654,-4.301673744769909 L-2.2146299928284985,-4.209230116769549 L-2.2838375918079103,-4.114828965713304 L-2.350674538703914,-4.018527155324684 L-2.4151005734388935,-3.920382694213309 L-2.477076888178571,-3.8204547009326966 L-2.5365661507083885,-3.718803368369449 L-2.593532526921046,-3.6154899274853154 L-2.6479417024016225,-3.5105766104339446 L-2.6997609030972987,-3.4041266130745678 L-2.7489589150592204,-3.2962040569051725 L-2.795506103244615,-3.186873950438109 L-2.8393744293678305,-3.0762021500413983 L-2.8805374687895506,-2.9642553202693165 L-2.918970426434015,-2.851100893706156 L-2.95465015172464,-2.73680703034736 L-2.9875551525290582,-2.621442576542494 L-3.017665608105186,-2.505077023524775 L-3.0449633810404837,-2.3877804655521535 L-3.0694320281772676,-2.269623557685149 L-3.0910568105174416,-2.1506774732268914 L-3.1098247021007284,-2.031013860850978 L-3.1257243978510134,-1.9107048014429917 L-3.1387463203861055,-1.7898227646816753 L-3.148882625786791,-1.668440565385903 L-3.156127208321716,-1.5466313196537582 L-3.160475704125255,-1.4244684008201252 L-3.1619254938261365,-1.3020253952593512 L-3.160475704125255,-1.1793760580595423 L-3.156127208321716,-1.0565942685952707 L-3.1488826257867917,-0.9337539860254107 L-3.1387463203861063,-0.810929204742884 L-3.1257243978510143,-0.6881939098032213 L-3.1098247021007293,-0.5656220323587251 L-3.0910568105174434,-0.4432874051251112 L-3.0694320281772693,-0.3212637179074387 L-3.0449633810404846,-0.19962447321212773 L-3.0176656081051876,-0.07844294197179758 L-2.98755515252906,0.04220788059040048 L-2.954650151724641,0.16225531893038103 L-2.918970426434017,0.2816270609601492 L-2.8805374687895524,0.4002512016059052 L-2.8393744293678322,0.518056286120965 L-2.7955061032446187,0.6349713531274335 L-2.7489589150592257,0.7509259773606818 L-2.699760903097303,0.8658503120908934 L-2.647941702401626,0.9796751311961249 L-2.5935325269210496,1.0923318708615326 L-2.536566150708393,1.2037526708796482 L-2.4770768881785754,1.313870415526832 L-2.415100573438897,1.422618773991281 L-2.3506745387039167,1.529932240328211 L-2.2838375918079135,1.635746172918214 L-2.214629992828499,1.7399968334049396 L-2.1430934298354654,1.8426214250886848 L-2.0692709937794325,1.9435581307528051 L-1.9932071525354829,2.0427461499000747 L-1.9149477241173702,2.140125735376638 L-1.8345398490784657,2.235638229361461 L-1.7520319621160487,2.3292260986996114 L-1.6674737628960568,2.420832969558073 L-1.5809161861158652,2.5104036613832417 L-1.4924113708231301,2.597884220139629 L-1.402012629009176,2.683221950809748 L-1.3097744134958447,2.766365449135624 L-1.215752285135152,2.847264632582804 L-1.1200028793415053,2.9258707705081957 L-1.0225838719766607,3.0021365135135802 L-0.9235539446079208,3.0760159219671346 L-0.8229727491605603,3.147464493675737 L-0.7209008719857506,3.2164391906914203 L-0.6173997973655867,3.2828984652358333 L-0.5125318704772632,3.3468022847270644 L-0.4063602598386753,3.408112155893769 L-0.2989489192580581,3.4667911479620805 L-0.19036254931060825,3.522803914901325 L-0.08066655836527725,3.576116716715152 L0.030072976814786934,3.626697439765242 L0.14178935087441014,3.6745156161153636 L0.2544152700472031,3.719542441884122 L0.36788289269081065,3.7617507945953337 L0.4821238701521795,3.8011152495155995 L0.5970693879382316,3.8376120949692067 L0.7126502071671437,3.8712193466211593 L0.8287967062752564,3.9019167607197156 L0.9454389229545055,3.929685846290475 L1.0625065962950961,3.954509876274644 L1.17992920910805,3.9763738976047884 L1.2976360304021237,3.995264740212007 L1.41555615798951,4.011171024959089 L1.5336185611946722,4.024083170494876 L1.6517521236405504,4.0339933990257135 L1.769885686086428,4.040895741000502 L1.8879480892915903,4.044786038706531 L2.005868216878977,4.04566194877393 L2.1235750381730503,4.043522943587227 L2.240997650986005,4.038370311603163 L2.3580653243265943,4.030207156574577 L2.474707541005844,4.019038395680819 L2.590854040113957,4.004870756565822 L2.7064348593428686,3.9877127732856286 L2.8213803771289214,3.967574781167788 L2.93562135459029,3.9444689105857442 L3.0490889772338967,3.9184090796519504 L3.1617148964066897,3.8894109858341226 L3.273431270466313,3.8574920964996684 L3.3841708056463773,3.822671638393998 L3.4938667965917083,3.7849705860590523 L3.602453166539158,3.7444116491990265 L3.709864507119776,3.7010192590008906 L3.8160361177583644,3.6548195534179495 L3.920904044646687,3.6058403614253294 L4.024405119266851,3.554111186256838 L4.126476996441661,3.4996631876333195 L4.2270581918890215,3.442529162993198 L4.326088119257761,3.382743527736543 L4.4235071266226065,3.3203422944945027 L4.519256532416254,3.255363051436647 L4.613278660776945,3.187844939629268 L4.705516876290277,3.117828629458252 L4.795915618104232,3.045356296130767 L4.884420433396967,2.970471594270494 L4.970978010177158,2.893219631621716 L5.05553620939715,2.813646941878093 L5.138044096359567,2.731801456652515 L5.218451971398473,2.6477324766048804 L5.2967113998165845,2.561490641745227 L5.372775241060536,2.4731279009300886 L5.446597677116568,2.3826974805704317 L5.518134240109601,2.290253852570072 L5.587341839089016,2.1958527015138243 L5.65417878598502,2.0995508911252037 L5.7186048207199995,2.0014064300138292 L5.780581135459679,1.901478436733212 L5.840070397989496,1.7998271041699645 L5.897036774202154,1.69651366328583 L5.951445949682729,1.5916003462344601 L6.0032651503784065,1.4851503488750837 L6.052463162340328,1.3772277927056884 L6.099010350525722,1.2678976862386262 L6.1428786766489365,1.1572258858419182 L6.184041716070657,1.0452790560698368 L6.222474673715121,0.9321246295066756 L6.258154399005746,0.8178307661478796 L6.291059399810164,0.7024663123430128 L6.321169855386292,0.5861007593252938 L6.348467628321591,0.46880420135267253 L6.372936275458373,0.3506472934856688 L6.394561057798548,0.23170120902741043 L6.413328949381834,0.11203759665149682 L6.4292286451321194,-0.008271462756488823 L6.4422505676672115,-0.12915349951780564 L6.452386873067897,-0.2505356988135774 L6.459631455602822,-0.37234494454572187 L6.463979951406361,-0.4945078633793556 L6.465429741107243,-0.6169508689400856 " />
			<path d="M6.371043905470619,-0.6236672858648319 L6.3696225430187745,-0.7439117340999392 L6.3653593118388345,-0.8642860374962794 L6.358256779941849,-0.9847176870745741 L6.348319225627452,-1.1051341393123453 L6.335552634906773,-1.2254628598414263 L6.3199646978966895,-1.3456313671399527 L6.301564804187585,-1.465567276192516 L6.2803640371874145,-1.5851983420921956 L6.25637516744547,-1.704452503558187 L6.229612644959884,-1.8232579263428241 L6.200092590473485,-1.9415430465018417 L6.167832785763269,-2.059236613501823 L6.1328526629293245,-2.176267733138853 L6.095173292689654,-2.292565910242535 L6.0548173716879665,-2.4080610911396527 L6.01180920882207,-2.5226837058518763 L5.966174710601096,-2.6363647100021192 L5.917941365540388,-2.7490356264042886 L5.86713822760345,-2.86062858631138 L5.813795898700923,-2.971076370297073 L5.757946510257142,-3.0803124487462057 L5.69962370385536,-3.1882710219297192 L5.638862610973325,-3.2948870596399598 L5.575699831821383,-3.4000963403624413 L5.510173413295888,-3.503835489960484 L5.4423228260611705,-3.6060420198494265 L5.372188940773883,-3.706654364637412 L5.299814003464047,-3.80561191921008 L5.225241610087625,-3.902855075236815 L5.148516680265946,-3.998325257076584 L5.069685430227803,-4.091964957061705 L4.988795344970532,-4.183717770138323 L4.905895149656814,-4.273528427842696 L4.821034780264469,-4.361342831592864 L4.734265353506885,-4.447108085275597 L4.645639136042224,-4.530772527109046 L4.555209512989938,-4.612285760761866 L4.463030955773573,-4.6915986857100815 L4.369158989309216,-4.768663526813404 L4.273650158559368,-4.8434338630931935 L4.176561994472367,-4.915864655694718 L4.0779529793279,-4.985912275016875 L3.977882511509459,-5.053534526993034 L3.876410869724985,-5.118690678507165 L3.773599176697217,-5.181341481929942 L3.66950936234566,-5.241449198760044 L3.564204126482309,-5.2989776223564276 L3.457746901043632,-5.353892099747846 L3.35020181188154,-5.406159552506499 L3.241633640136379,-5.455748496673254 L3.1321077832151794,-5.502629061722393 L3.021690215398716,-5.54677300855451 L2.9104474481010625,-5.588153746506678 L2.7984464898056034,-5.626746349369684 L2.685754805701629,-5.6625275704026325 L2.5724402770458332,-5.695475856335918 L2.458571160273174,-5.7255713603541105 L2.344216045881753,-5.752795954050935 L2.2294438171164686,-5.77713323834914 L2.1143236084763153,-5.798568553378693 L1.9989247640703591,-5.817088987307339 L1.8833167958474308,-5.832683384118203 L1.7675693417247267,-5.845342350329759 L1.6517521236405326,-5.8550582606541095 L1.5359349055563394,-5.861825262590176 L1.4201874514336346,-5.865639279949028 L1.3045794832107072,-5.866498015309222 L1.1891806388047503,-5.8644009514006905 L1.074060430164598,-5.859349351416315 L0.9592882013993127,-5.851346258251035 L0.8449330870078922,-5.840396492668918 L0.7310639702352322,-5.826506650399313 L0.6177494415794365,-5.80968509816383 L0.5050577574754636,-5.789941968636534 L0.3930567991800036,-5.767289154340413 L0.2818140318823492,-5.741740300483753 L0.17139646406588604,-5.713310796740784 L0.06187060714468706,-5.682017767981515 L-0.04669756460047436,-5.6478800639563485 L-0.15424265376256563,-5.6109182479416955 L-0.26069987920124316,-5.571154584353435 L-0.36600511506459377,-5.528613025335653 L-0.47009492941615116,-5.483319196332769 L-0.5729066224439192,-5.4353003806537314 L-0.6743782642283942,-5.384585503037564 L-0.7744487320468338,-5.331205112230191 L-0.8730577471913015,-5.275191362583015 L-0.9701459112783022,-5.216577994684333 L-1.065654742028149,-5.155400315035274 L-1.1595267084925052,-5.091695174782477 L-1.2517052657088712,-5.025500947520341 L-1.3421348887611586,-4.956857506176207 L-1.4307611062258214,-4.885806198992396 L-1.5175305329834048,-4.81238982461958 L-1.6023909023757499,-4.736652606336464 L-1.6852910976894675,-4.658640165411344 L-1.766181182946739,-4.5783994936215615 L-1.8450124329848805,-4.495978924947409 L-1.9217373628065593,-4.411428106457554 L-1.9963097561829821,-4.324797968403494 L-2.0686846934928202,-4.236140693541084 L-2.138818578780108,-4.145509685697594 L-2.2066691660148257,-4.052959537603236 L-2.27219558454032,-3.9585459980065503 L-2.3353583636922606,-3.862325938093438 L-2.396119456574297,-3.7643573172300915 L-2.4544422629760785,-3.6646991480504374 L-2.51029165141986,-3.5634114609091294 L-2.563633980322386,-3.4605552677215106 L-2.614437118259324,-3.356192525212318 L-2.6626704633200315,-3.250386097595264 L-2.708304961541007,-3.1431997187059864 L-2.751313124406905,-3.034697953611172 L-2.7916690454085913,-2.9249461597169746 L-2.829348415648262,-2.8140104474001495 L-2.864328538482207,-2.701957640185644 L-2.8965883431924215,-2.588855234494599 L-2.9261083976788207,-2.474771358987031 L-2.9528709201644077,-2.3597747335236763 L-2.976859789906352,-2.243934627771712 L-2.9980605569065233,-2.1273208194793023 L-3.016460450615627,-2.0100035524440925 L-3.0320483876257107,-1.8920534942009692 L-3.0448149783463903,-1.7735416934545802 L-3.0547525326607863,-1.654539537282255 L-3.061855064557772,-1.5351187081330937 L-3.066118295737713,-1.4153511406491388 L-3.067539658189557,-1.295308978334655 L-3.066118295737713,-1.1750645300995477 L-3.061855064557772,-1.0546902267032037 L-3.054752532660787,-0.9342585771249091 L-3.0448149783463894,-0.813842124887138 L-3.0320483876257116,-0.6935134043580565 L-3.016460450615628,-0.5733448970595317 L-2.9980605569065233,-0.4534089880069688 L-2.976859789906353,-0.3337779221072893 L-2.9528709201644086,-0.21452376064129852 L-2.9261083976788225,-0.09571833785666117 L-2.8965883431924224,0.022566782302356425 L-2.8643285384822086,0.14026034930233722 L-2.829348415648264,0.2572914689393654 L-2.791669045408593,0.37358964604304734 L-2.751313124406906,0.4890848269401652 L-2.7083049615410104,0.6037074416523892 L-2.662670463320036,0.7173884458026322 L-2.6144371182593273,0.8300593622048004 L-2.5636339803223898,0.9416523221118908 L-2.5102916514198643,1.0521001060975843 L-2.454442262976083,1.1613361845467174 L-2.3961194565743007,1.2692947577302305 L-2.335358363692263,1.375910795440475 L-2.2721955845403223,1.4811200761629557 L-2.2066691660148283,1.5848592257609977 L-2.138818578780108,1.6870657556499435 L-2.0686846934928207,1.7876781004379296 L-1.9963097561829848,1.886635655010597 L-1.9217373628065628,1.9838788110373313 L-1.845012432984884,2.0793489928771 L-1.7661811829467426,2.1729886928622206 L-1.685291097689471,2.2647415059388374 L-1.6023909023757534,2.354552163643212 L-1.5175305329834088,2.4423665673933783 L-1.430761106225825,2.528131821076111 L-1.342134888761164,2.61179626290956 L-1.2517052657088783,2.69330949656238 L-1.1595267084925132,2.7726224215105955 L-1.065654742028153,2.8496872626139202 L-0.9701459112783057,2.924457598893709 L-0.8730577471913064,2.9968883914952333 L-0.7744487320468347,3.0669360108173924 L-0.6743782642283946,3.1345582627935515 L-0.5729066224439197,3.1997144143076826 L-0.4700949294161516,3.2623652177304594 L-0.3660051150645951,3.3224729345605617 L-0.26069987920124404,3.380001358156945 L-0.1542426537625683,3.434915835548362 L-0.046697564600479025,3.4871832883070155 L0.0618706071446824,3.53677223247377 L0.17139646406588094,3.583652797522909 L0.28181403188234455,3.6277967443550247 L0.39305679917999914,3.6691774823071936 L0.5050577574754584,3.7077700851702 L0.6177494415794316,3.7435513062031474 L0.7310639702352277,3.7764995921364335 L0.8449330870078877,3.806595096154627 L0.9592882013993078,3.83381968985145 L1.0740604301645928,3.8581569741496544 L1.1891806388047437,3.8795922891792074 L1.304579483210698,3.898112723107854 L1.4201874514336255,3.913707119918719 L1.5359349055563345,3.9263660861302743 L1.6517521236405281,3.936081996454625 L1.7675693417247218,3.9428489983906916 L1.8833167958474306,3.946663015749544 L1.9989247640703585,3.947521751109739 L2.1143236084763126,3.945424687201206 L2.2294438171164637,3.9403730872168303 L2.3442160458817485,3.932369994051551 L2.458571160273169,3.921420228469434 L2.572440277045829,3.907530386199829 L2.6857548057016247,3.8907088339643456 L2.7984464898055976,3.87096570443705 L2.9104474481010576,3.848312890140929 L3.0216902153987117,3.8227640362842683 L3.132107783215175,3.794334532541301 L3.241633640136374,3.7630415037820315 L3.350201811881535,3.728903799756864 L3.4577469010436244,3.691941983742212 L3.5642041264823003,3.6521783201539515 L3.6695093623456514,3.60963676113617 L3.7735991766972083,3.564342932133286 L3.876410869724976,3.516324116454248 L3.9778825115094514,3.4656092388380806 L4.0779529793278915,3.4122288480307086 L4.176561994472363,3.3562150983835313 L4.273650158559363,3.2976017304848497 L4.36915898930921,3.23642405083579 L4.46303095577357,3.172718910582991 L4.555209512989936,3.1065246833208553 L4.645639136042222,3.0378812419767214 L4.734265353506882,2.9668299347929117 L4.8210347802644655,2.893413560420096 L4.905895149656811,2.8176763421369793 L4.988795344970528,2.73966390121186 L5.0696854302278,2.659423229422077 L5.148516680265942,2.577002660747925 L5.225241610087621,2.49245184225807 L5.299814003464043,2.405821704204012 L5.372188940773879,2.3171644293416036 L5.442322826061167,2.2265334214981136 L5.510173413295887,2.1339832734037527 L5.575699831821381,2.039569733807066 L5.638862610973322,1.9433496738939535 L5.6996237038553605,1.8453810530306045 L5.757946510257141,1.7457228838509486 L5.813795898700923,1.644435196709642 L5.86713822760345,1.5415790035220232 L5.917941365540387,1.4372162610128307 L5.966174710601095,1.3314098333957762 L6.011809208822069,1.2242234545065003 L6.054817371687966,1.1157216894116884 L6.095173292689653,1.0059698955174907 L6.132852662929324,0.8950341832006662 L6.167832785763268,0.78298137598616 L6.200092590473483,0.6698789702951146 L6.229612644959882,0.5557950947875462 L6.256375167445469,0.4407984693241923 L6.280364037187414,0.32495836357222785 L6.301564804187585,0.20834455527981788 L6.319964697896689,0.09102728824460848 L6.335552634906772,-0.02692276999851473 L6.348319225627451,-0.14543457074490374 L6.358256779941848,-0.26443672691722886 L6.365359311838834,-0.38385755606639005 L6.3696225430187745,-0.5036251235503452 L6.371043905470619,-0.6236672858647864 " />

       </g>
    </g>
    <g transform="translate(20,210.0)" stroke="rgb(0,0,255)">
        <line x1="30" y1="-30" x2="75" y2="-33" stroke-width="3" stroke="#000000" />
         <text x="80" y="-30" style="stroke:#000000">X </text>

        <line x1="30" y1="-30" x2="30" y2="-75" stroke-width="3" stroke="#000000" />
         <text x="25" y="-85" style="stroke:#000000">Y </text>

        <line x1="30" y1="-30" x2="58" y2="-15" stroke-width="3" stroke="#000000" />
         <text x="65" y="-5" style="stroke:#000000">Z </text>
        <!--
            <line x1="0" y1="0" x2="17.98124111723752" y2="0" stroke-width="3" />
            <text x="0" y="20" style="stroke:#000000">1  mm </text>
        -->
    </g>
</svg>
