<svg xmlns="http://www.w3.org/2000/svg" version="1.1" xmlns:xlink="http://www.w3.org/1999/xlink" xmlns:svgjs="http://svgjs.com/svgjs" width="750" height="750" viewBox="-250 -250 500 500"><g><line x1="-250" y1="0" x2="250" y2="0" stroke-opacity="0.6" stroke-width="0.1" stroke="grey"></line><line x1="0" y1="-250" x2="0" y2="250" stroke-opacity="0.6" stroke-width="0.1" stroke="grey"></line></g><rect width="109.99809416857131" height="95.25" transform="matrix(1,0,0,1,-54.99904708428566,-47.625)" fill="none" stroke-width="0.1" stroke="black"></rect><g><circle r="2.0193" fill="#228833" stroke-width="0.1" stroke="black" class="10-32" transform="matrix(1,0,0,1,38.13312770440336,15.79525867086908)"></circle><circle r="2.0193" fill="#228833" stroke-width="0.1" stroke="black" class="10-32" transform="matrix(1,0,0,1,15.795258670869082,38.13312770440336)"></circle><circle r="2.0193" fill="#228833" stroke-width="0.1" stroke="black" class="10-32" transform="matrix(1,0,0,1,-15.795258670869078,38.13312770440336)"></circle><circle r="2.0193" fill="#228833" stroke-width="0.1" stroke="black" class="10-32" transform="matrix(1,0,0,1,-38.13312770440336,15.795258670869085)"></circle><circle r="2.0193" fill="#228833" stroke-width="0.1" stroke="black" class="10-32" transform="matrix(1,0,0,1,-38.133127704403364,-15.795258670869076)"></circle><circle r="2.0193" fill="#228833" stroke-width="0.1" stroke="black" class="10-32" transform="matrix(1,0,0,1,-15.795258670869103,-38.13312770440335)"></circle><circle r="2.0193" fill="#228833" stroke-width="0.1" stroke="black" class="10-32" transform="matrix(1,0,0,1,15.795258670869089,-38.13312770440336)"></circle><circle r="2.0193" fill="#228833" stroke-width="0.1" stroke="black" class="10-32" transform="matrix(1,0,0,1,38.13312770440335,-15.795258670869105)"></circle><circle r="26.162" fill="none" stroke-width="0.1" stroke="black"></circle><circle r="25.019" fill="none" stroke-width="0.1" stroke="black"></circle></g><g><circle r="1.1302999999999999" stroke-width="0.1" stroke="black" class="4-40" transform="matrix(1,0,0,1,-44.449999999999996,-38.099999999999994)" fill="#ee6677"></circle><circle r="1.1302999999999999" stroke-width="0.1" stroke="black" class="4-40" transform="matrix(1,0,0,1,-44.449999999999996,38.099999999999994)" fill="#ee6677"></circle><circle r="1.1302999999999999" stroke-width="0.1" stroke="black" class="4-40" transform="matrix(1,0,0,1,44.449999999999996,-38.099999999999994)" fill="#ee6677"></circle><circle r="1.1302999999999999" stroke-width="0.1" stroke="black" class="4-40" transform="matrix(1,0,0,1,44.449999999999996,38.099999999999994)" fill="#ee6677"></circle></g><g transform="matrix(1,0,0,1,-50,70)"><circle r="1.1302999999999999" fill="#ee6677" stroke-width="0.1" stroke="black" transform="matrix(1,0,0,1,0,0)"></circle><text font-family="Helvetica" font-size="10" text-anchor="left" alignment-baseline="middle" transform="matrix(1,0,0,1,20,0)" svgjs:data="{&quot;leading&quot;:&quot;1.5em&quot;}">4</text><text font-family="Helvetica" font-size="10" text-anchor="left" alignment-baseline="middle" transform="matrix(1,0,0,1,50,0)" svgjs:data="{&quot;leading&quot;:&quot;1.5em&quot;}">blindtap 4-40</text><circle r="2.0193" fill="#228833" stroke-width="0.1" stroke="black" transform="matrix(1,0,0,1,0,18)"></circle><text font-family="Helvetica" font-size="10" text-anchor="left" alignment-baseline="middle" transform="matrix(1,0,0,1,20,18)" svgjs:data="{&quot;leading&quot;:&quot;1.5em&quot;}">8</text><text font-family="Helvetica" font-size="10" text-anchor="left" alignment-baseline="middle" transform="matrix(1,0,0,1,50,18)" svgjs:data="{&quot;leading&quot;:&quot;1.5em&quot;}">blindtap 10-32</text></g><text font-family="Helvetica" font-size="14" text-anchor="Left" alignment-baseline="middle" transform="matrix(1,0,0,1,-100,-70)" svgjs:data="{&quot;leading&quot;:&quot;1.5em&quot;}">Each side face of the collar (12x)</text><text font-family="Helvetica" font-size="14" text-anchor="Left" alignment-baseline="middle" transform="matrix(1,0,0,1,-125,110)" svgjs:data="{&quot;leading&quot;:&quot;1.5em&quot;}">Total of 48 blindtap 4-40, 96 blindtap 10-32</text></svg>