<svg xmlns="http://www.w3.org/2000/svg" version="1.1" xmlns:xlink="http://www.w3.org/1999/xlink" xmlns:svgjs="http://svgjs.com/svgjs" width="750" height="750" viewBox="-250 -250 500 500"><polygon fill="none" stroke-width="0.1" stroke="black" points="212.5,0 184.03039830419323,106.24999999999999 106.25000000000003,184.0303983041932 1.3011872240940628e-14,212.5 -106.24999999999996,184.03039830419323 -184.03039830419323,106.24999999999999 -212.5,2.6023744481881257e-14 -184.03039830419326,-106.24999999999994 -106.2500000000001,-184.03039830419317 -3.903561672282188e-14,-212.5 106.25000000000003,-184.0303983041932 184.03039830419314,-106.2500000000001" transform="matrix(0.9659258262890683,0.25881904510252074,-0.25881904510252074,0.9659258262890683,0,0)"></polygon><g transform="matrix(0.9659258262890683,0.25881904510252074,-0.25881904510252074,0.9659258262890683,0,0)"><circle r="5.159375" fill="#ee6677" stroke-width="0.1" stroke="black" class="M12" transform="matrix(1,0,0,1,197.5,0)"></circle><circle r="5.159375" fill="#ee6677" stroke-width="0.1" stroke="black" class="M12" transform="matrix(1,0,0,1,171.04001724742665,98.74999999999999)"></circle><circle r="5.159375" fill="#ee6677" stroke-width="0.1" stroke="black" class="M12" transform="matrix(1,0,0,1,98.75000000000003,171.04001724742662)"></circle><circle r="5.159375" fill="#ee6677" stroke-width="0.1" stroke="black" class="M12" transform="matrix(1,0,0,1,1.2093387141580113e-14,197.5)"></circle><circle r="5.159375" fill="#ee6677" stroke-width="0.1" stroke="black" class="M12" transform="matrix(1,0,0,1,-98.74999999999996,171.04001724742665)"></circle><circle r="5.159375" fill="#ee6677" stroke-width="0.1" stroke="black" class="M12" transform="matrix(1,0,0,1,-171.04001724742665,98.74999999999999)"></circle><circle r="5.159375" fill="#ee6677" stroke-width="0.1" stroke="black" class="M12" transform="matrix(1,0,0,1,-197.5,2.4186774283160226e-14)"></circle><circle r="5.159375" fill="#ee6677" stroke-width="0.1" stroke="black" class="M12" transform="matrix(1,0,0,1,-171.04001724742668,-98.74999999999994)"></circle><circle r="5.159375" fill="#ee6677" stroke-width="0.1" stroke="black" class="M12" transform="matrix(1,0,0,1,-98.75000000000009,-171.0400172474266)"></circle><circle r="5.159375" fill="#ee6677" stroke-width="0.1" stroke="black" class="M12" transform="matrix(1,0,0,1,-3.628016142474034e-14,-197.5)"></circle><circle r="5.159375" fill="#ee6677" stroke-width="0.1" stroke="black" class="M12" transform="matrix(1,0,0,1,98.75000000000003,-171.04001724742662)"></circle><circle r="5.159375" fill="#ee6677" stroke-width="0.1" stroke="black" class="M12" transform="matrix(1,0,0,1,171.0400172474266,-98.75000000000009)"></circle></g><circle r="155.816" stroke-width="0.1" stroke="black" fill="none"></circle><circle r="159.004" stroke-width="0.1" stroke="black" fill="none"></circle><circle r="63.5" stroke-width="0.1" stroke="black" fill="none" transform="matrix(1,0,0,1,80,0)"></circle><g transform="matrix(1,0,0,1,0,0)"><g transform="matrix(1,0,0,1,0,100)"><circle r="1.1302999999999999" stroke-width="0.1" stroke="black" class="4-40" transform="matrix(1,0,0,1,-7.9375,0)" fill="#228833"></circle><circle r="1.1302999999999999" stroke-width="0.1" stroke="black" class="4-40" transform="matrix(1,0,0,1,7.9375,0)" fill="#228833"></circle></g></g><g transform="matrix(1,0,0,1,0,0)"><g transform="matrix(1,0,0,1,0,-100)"><circle r="1.1302999999999999" stroke-width="0.1" stroke="black" class="4-40" transform="matrix(1,0,0,1,-7.9375,0)" fill="#228833"></circle><circle r="1.1302999999999999" stroke-width="0.1" stroke="black" class="4-40" transform="matrix(1,0,0,1,7.9375,0)" fill="#228833"></circle></g></g><g transform="matrix(0.7071067811865476,0.7071067811865475,-0.7071067811865475,0.7071067811865476,0,0)"><g transform="matrix(1,0,0,1,0,-115)"><circle r="1.1302999999999999" stroke-width="0.1" stroke="black" class="4-40" transform="matrix(1,0,0,1,-7.9375,0)" fill="#228833"></circle><circle r="1.1302999999999999" stroke-width="0.1" stroke="black" class="4-40" transform="matrix(1,0,0,1,7.9375,0)" fill="#228833"></circle></g></g><g transform="matrix(0.7071067811865476,-0.7071067811865475,0.7071067811865475,0.7071067811865476,0,0)"><g transform="matrix(1,0,0,1,0,115)"><circle r="1.1302999999999999" stroke-width="0.1" stroke="black" class="4-40" transform="matrix(1,0,0,1,-7.9375,0)" fill="#228833"></circle><circle r="1.1302999999999999" stroke-width="0.1" stroke="black" class="4-40" transform="matrix(1,0,0,1,7.9375,0)" fill="#228833"></circle></g></g><g transform="matrix(0.38268343236508984,-0.9238795325112867,0.9238795325112867,0.38268343236508984,0,0)"><g transform="matrix(1,0,0,1,0,-125)"><circle r="1.1302999999999999" stroke-width="0.1" stroke="black" class="4-40" transform="matrix(1,0,0,1,-7.9375,0)" fill="#228833"></circle><circle r="1.1302999999999999" stroke-width="0.1" stroke="black" class="4-40" transform="matrix(1,0,0,1,7.9375,0)" fill="#228833"></circle></g></g><g transform="matrix(0.38268343236508984,0.9238795325112867,-0.9238795325112867,0.38268343236508984,0,0)"><g transform="matrix(1,0,0,1,0,125)"><circle r="1.1302999999999999" stroke-width="0.1" stroke="black" class="4-40" transform="matrix(1,0,0,1,-7.9375,0)" fill="#228833"></circle><circle r="1.1302999999999999" stroke-width="0.1" stroke="black" class="4-40" transform="matrix(1,0,0,1,7.9375,0)" fill="#228833"></circle></g></g><g transform="matrix(1,0,0,1,0,0)"><circle r="19.431" fill="none" stroke-width="0.1" stroke="black" transform="matrix(1,0,0,1,0,125)"></circle></g><g transform="matrix(1,0,0,1,0,0)"><circle r="1.1302999999999999" stroke-width="0.1" stroke="black" transform="matrix(1,0,0,1,0,60.959999999999994)" class="4-40" fill="#228833"></circle></g><g transform="matrix(0.7071067811865476,0.7071067811865475,-0.7071067811865475,0.7071067811865476,0,0)"><circle r="19.431" fill="none" stroke-width="0.1" stroke="black" transform="matrix(1,0,0,1,0,125)"></circle></g><g transform="matrix(0.7071067811865476,0.7071067811865475,-0.7071067811865475,0.7071067811865476,0,0)"><circle r="1.1302999999999999" stroke-width="0.1" stroke="black" transform="matrix(1,0,0,1,0,60.959999999999994)" class="4-40" fill="#228833"></circle></g><g transform="matrix(6.123233995736766e-17,1,-1,6.123233995736766e-17,0,0)"><circle r="19.431" fill="none" stroke-width="0.1" stroke="black" transform="matrix(1,0,0,1,0,125)"></circle></g><g transform="matrix(6.123233995736766e-17,1,-1,6.123233995736766e-17,0,0)"><circle r="1.1302999999999999" stroke-width="0.1" stroke="black" transform="matrix(1,0,0,1,0,60.959999999999994)" class="4-40" fill="#228833"></circle></g><g transform="matrix(-0.7071067811865475,0.7071067811865476,-0.7071067811865476,-0.7071067811865475,0,0)"><circle r="19.431" fill="none" stroke-width="0.1" stroke="black" transform="matrix(1,0,0,1,0,125)"></circle></g><g transform="matrix(-0.7071067811865475,0.7071067811865476,-0.7071067811865476,-0.7071067811865475,0,0)"><circle r="1.1302999999999999" stroke-width="0.1" stroke="black" transform="matrix(1,0,0,1,0,60.959999999999994)" class="4-40" fill="#228833"></circle></g><g transform="matrix(-1,1.2246467991473532e-16,-1.2246467991473532e-16,-1,0,0)"><circle r="19.431" fill="none" stroke-width="0.1" stroke="black" transform="matrix(1,0,0,1,0,125)"></circle></g><g transform="matrix(-1,1.2246467991473532e-16,-1.2246467991473532e-16,-1,0,0)"><circle r="1.1302999999999999" stroke-width="0.1" stroke="black" transform="matrix(1,0,0,1,0,60.959999999999994)" class="4-40" fill="#228833"></circle></g><circle r="12.446" fill="none" stroke-width="0.1" stroke="black" transform="matrix(1,0,0,1,75,120)"></circle><circle r="12.446" fill="none" stroke-width="0.1" stroke="black" transform="matrix(1,0,0,1,75,-120)"></circle><g transform="matrix(1,0,0,1,119.04761904761904,185.18518518518516)"><circle r="5.159375" fill="#ee6677" stroke-width="0.1" stroke="black" transform="matrix(1,0,0,1,0,0)"></circle><text font-family="Helvetica" font-size="10" text-anchor="left" alignment-baseline="middle" transform="matrix(1,0,0,1,20,0)" svgjs:data="{&quot;leading&quot;:&quot;1.5em&quot;}">12</text><text font-family="Helvetica" font-size="10" text-anchor="left" alignment-baseline="middle" transform="matrix(1,0,0,1,50,0)" svgjs:data="{&quot;leading&quot;:&quot;1.5em&quot;}">blindtap M12-1.75</text><circle r="1.1302999999999999" fill="#228833" stroke-width="0.1" stroke="black" transform="matrix(1,0,0,1,0,18)"></circle><text font-family="Helvetica" font-size="10" text-anchor="left" alignment-baseline="middle" transform="matrix(1,0,0,1,20,18)" svgjs:data="{&quot;leading&quot;:&quot;1.5em&quot;}">17</text><text font-family="Helvetica" font-size="10" text-anchor="left" alignment-baseline="middle" transform="matrix(1,0,0,1,50,18)" svgjs:data="{&quot;leading&quot;:&quot;1.5em&quot;}">blindtap 4-40</text></g></svg>