<svg xmlns="http://www.w3.org/2000/svg" version="1.1" xmlns:xlink="http://www.w3.org/1999/xlink" xmlns:svgjs="http://svgjs.com/svgjs" width="750" height="750" viewBox="-250 -250 550 500"><polygon fill="none" stroke-width="0.1" stroke="black" points="212.5,0 184.03039830419323,106.24999999999999 106.25000000000003,184.0303983041932 1.3011872240940628e-14,212.5 -106.24999999999996,184.03039830419323 -184.03039830419323,106.24999999999999 -212.5,2.6023744481881257e-14 -184.03039830419326,-106.24999999999994 -106.2500000000001,-184.03039830419317 -3.903561672282188e-14,-212.5 106.25000000000003,-184.0303983041932 184.03039830419314,-106.2500000000001" transform="matrix(0.9659258262890683,0.25881904510252074,-0.25881904510252074,0.9659258262890683,0,0)"></polygon><circle r="63.5" stroke-width="0.1" stroke="black" fill="none" transform="matrix(1,0,0,1,-80,0)"></circle><g transform="matrix(1,0,0,1,0,0)"><g fill="none" stroke-width="0.1" stroke="black" transform="matrix(1,0,0,1,0,-125)"><circle r="2.0193" fill="#ee6677" stroke-width="0.1" stroke="black" class="10-32" transform="matrix(1,0,0,1,30.987999999999996,0)"></circle><circle r="2.0193" fill="#ee6677" stroke-width="0.1" stroke="black" class="10-32" transform="matrix(1,0,0,1,15.494000000000002,26.83639521247218)"></circle><circle r="2.0193" fill="#ee6677" stroke-width="0.1" stroke="black" class="10-32" transform="matrix(1,0,0,1,-15.493999999999991,26.836395212472183)"></circle><circle r="2.0193" fill="#ee6677" stroke-width="0.1" stroke="black" class="10-32" transform="matrix(1,0,0,1,-30.987999999999996,3.7949355011978176e-15)"></circle><circle r="2.0193" fill="#ee6677" stroke-width="0.1" stroke="black" class="10-32" transform="matrix(1,0,0,1,-15.494000000000012,-26.836395212472176)"></circle><circle r="2.0193" fill="#ee6677" stroke-width="0.1" stroke="black" class="10-32" transform="matrix(1,0,0,1,15.494000000000002,-26.83639521247218)"></circle><circle r="20.6" fill="none" stroke-width="0.1" stroke="black"></circle><circle r="19.431" fill="none" stroke-width="0.1" stroke="black"></circle></g></g><g transform="matrix(0.7071067811865476,0.7071067811865475,-0.7071067811865475,0.7071067811865476,0,0)"><g fill="none" stroke-width="0.1" stroke="black" transform="matrix(1,0,0,1,0,-125)"><circle r="2.0193" fill="#ee6677" stroke-width="0.1" stroke="black" class="10-32" transform="matrix(1,0,0,1,30.987999999999996,0)"></circle><circle r="2.0193" fill="#ee6677" stroke-width="0.1" stroke="black" class="10-32" transform="matrix(1,0,0,1,15.494000000000002,26.83639521247218)"></circle><circle r="2.0193" fill="#ee6677" stroke-width="0.1" stroke="black" class="10-32" transform="matrix(1,0,0,1,-15.493999999999991,26.836395212472183)"></circle><circle r="2.0193" fill="#ee6677" stroke-width="0.1" stroke="black" class="10-32" transform="matrix(1,0,0,1,-30.987999999999996,3.7949355011978176e-15)"></circle><circle r="2.0193" fill="#ee6677" stroke-width="0.1" stroke="black" class="10-32" transform="matrix(1,0,0,1,-15.494000000000012,-26.836395212472176)"></circle><circle r="2.0193" fill="#ee6677" stroke-width="0.1" stroke="black" class="10-32" transform="matrix(1,0,0,1,15.494000000000002,-26.83639521247218)"></circle><circle r="20.6" fill="none" stroke-width="0.1" stroke="black"></circle><circle r="19.431" fill="none" stroke-width="0.1" stroke="black"></circle></g></g><g transform="matrix(6.123233995736766e-17,1,-1,6.123233995736766e-17,0,0)"><g fill="none" stroke-width="0.1" stroke="black" transform="matrix(1,0,0,1,0,-125)"><circle r="2.0193" fill="#ee6677" stroke-width="0.1" stroke="black" class="10-32" transform="matrix(1,0,0,1,30.987999999999996,0)"></circle><circle r="2.0193" fill="#ee6677" stroke-width="0.1" stroke="black" class="10-32" transform="matrix(1,0,0,1,15.494000000000002,26.83639521247218)"></circle><circle r="2.0193" fill="#ee6677" stroke-width="0.1" stroke="black" class="10-32" transform="matrix(1,0,0,1,-15.493999999999991,26.836395212472183)"></circle><circle r="2.0193" fill="#ee6677" stroke-width="0.1" stroke="black" class="10-32" transform="matrix(1,0,0,1,-30.987999999999996,3.7949355011978176e-15)"></circle><circle r="2.0193" fill="#ee6677" stroke-width="0.1" stroke="black" class="10-32" transform="matrix(1,0,0,1,-15.494000000000012,-26.836395212472176)"></circle><circle r="2.0193" fill="#ee6677" stroke-width="0.1" stroke="black" class="10-32" transform="matrix(1,0,0,1,15.494000000000002,-26.83639521247218)"></circle><circle r="20.6" fill="none" stroke-width="0.1" stroke="black"></circle><circle r="19.431" fill="none" stroke-width="0.1" stroke="black"></circle></g></g><g transform="matrix(-0.7071067811865475,0.7071067811865476,-0.7071067811865476,-0.7071067811865475,0,0)"><g fill="none" stroke-width="0.1" stroke="black" transform="matrix(1,0,0,1,0,-125)"><circle r="2.0193" fill="#ee6677" stroke-width="0.1" stroke="black" class="10-32" transform="matrix(1,0,0,1,30.987999999999996,0)"></circle><circle r="2.0193" fill="#ee6677" stroke-width="0.1" stroke="black" class="10-32" transform="matrix(1,0,0,1,15.494000000000002,26.83639521247218)"></circle><circle r="2.0193" fill="#ee6677" stroke-width="0.1" stroke="black" class="10-32" transform="matrix(1,0,0,1,-15.493999999999991,26.836395212472183)"></circle><circle r="2.0193" fill="#ee6677" stroke-width="0.1" stroke="black" class="10-32" transform="matrix(1,0,0,1,-30.987999999999996,3.7949355011978176e-15)"></circle><circle r="2.0193" fill="#ee6677" stroke-width="0.1" stroke="black" class="10-32" transform="matrix(1,0,0,1,-15.494000000000012,-26.836395212472176)"></circle><circle r="2.0193" fill="#ee6677" stroke-width="0.1" stroke="black" class="10-32" transform="matrix(1,0,0,1,15.494000000000002,-26.83639521247218)"></circle><circle r="20.6" fill="none" stroke-width="0.1" stroke="black"></circle><circle r="19.431" fill="none" stroke-width="0.1" stroke="black"></circle></g></g><g transform="matrix(-1,1.2246467991473532e-16,-1.2246467991473532e-16,-1,0,0)"><g fill="none" stroke-width="0.1" stroke="black" transform="matrix(1,0,0,1,0,-125)"><circle r="2.0193" fill="#ee6677" stroke-width="0.1" stroke="black" class="10-32" transform="matrix(1,0,0,1,30.987999999999996,0)"></circle><circle r="2.0193" fill="#ee6677" stroke-width="0.1" stroke="black" class="10-32" transform="matrix(1,0,0,1,15.494000000000002,26.83639521247218)"></circle><circle r="2.0193" fill="#ee6677" stroke-width="0.1" stroke="black" class="10-32" transform="matrix(1,0,0,1,-15.493999999999991,26.836395212472183)"></circle><circle r="2.0193" fill="#ee6677" stroke-width="0.1" stroke="black" class="10-32" transform="matrix(1,0,0,1,-30.987999999999996,3.7949355011978176e-15)"></circle><circle r="2.0193" fill="#ee6677" stroke-width="0.1" stroke="black" class="10-32" transform="matrix(1,0,0,1,-15.494000000000012,-26.836395212472176)"></circle><circle r="2.0193" fill="#ee6677" stroke-width="0.1" stroke="black" class="10-32" transform="matrix(1,0,0,1,15.494000000000002,-26.83639521247218)"></circle><circle r="20.6" fill="none" stroke-width="0.1" stroke="black"></circle><circle r="19.431" fill="none" stroke-width="0.1" stroke="black"></circle></g></g><g transform="matrix(1,0,0,1,-75,120)"><circle r="2.0193" fill="#ee6677" stroke-width="0.1" stroke="black" class="10-32" transform="matrix(1,0,0,1,24.002999999999997,0)"></circle><circle r="2.0193" fill="#ee6677" stroke-width="0.1" stroke="black" class="10-32" transform="matrix(1,0,0,1,12.001500000000002,20.787207767037877)"></circle><circle r="2.0193" fill="#ee6677" stroke-width="0.1" stroke="black" class="10-32" transform="matrix(1,0,0,1,-12.001499999999993,20.78720776703788)"></circle><circle r="2.0193" fill="#ee6677" stroke-width="0.1" stroke="black" class="10-32" transform="matrix(1,0,0,1,-24.002999999999997,2.9395197119933913e-15)"></circle><circle r="2.0193" fill="#ee6677" stroke-width="0.1" stroke="black" class="10-32" transform="matrix(1,0,0,1,-12.001500000000009,-20.787207767037874)"></circle><circle r="2.0193" fill="#ee6677" stroke-width="0.1" stroke="black" class="10-32" transform="matrix(1,0,0,1,12.001500000000002,-20.787207767037877)"></circle><circle r="13.1" fill="none" stroke-width="0.1" stroke="black"></circle><circle r="12.446" fill="none" stroke-width="0.1" stroke="black"></circle></g><g transform="matrix(1,0,0,1,-75,-120)"><circle r="2.0193" fill="#ee6677" stroke-width="0.1" stroke="black" class="10-32" transform="matrix(1,0,0,1,24.002999999999997,0)"></circle><circle r="2.0193" fill="#ee6677" stroke-width="0.1" stroke="black" class="10-32" transform="matrix(1,0,0,1,12.001500000000002,20.787207767037877)"></circle><circle r="2.0193" fill="#ee6677" stroke-width="0.1" stroke="black" class="10-32" transform="matrix(1,0,0,1,-12.001499999999993,20.78720776703788)"></circle><circle r="2.0193" fill="#ee6677" stroke-width="0.1" stroke="black" class="10-32" transform="matrix(1,0,0,1,-24.002999999999997,2.9395197119933913e-15)"></circle><circle r="2.0193" fill="#ee6677" stroke-width="0.1" stroke="black" class="10-32" transform="matrix(1,0,0,1,-12.001500000000009,-20.787207767037874)"></circle><circle r="2.0193" fill="#ee6677" stroke-width="0.1" stroke="black" class="10-32" transform="matrix(1,0,0,1,12.001500000000002,-20.787207767037877)"></circle><circle r="13.1" fill="none" stroke-width="0.1" stroke="black"></circle><circle r="12.446" fill="none" stroke-width="0.1" stroke="black"></circle></g><g transform="matrix(1,0,0,1,-80,0)"><circle r="2.5" fill="#228833" stroke-width="0.1" stroke="black" class="M6" transform="matrix(1,0,0,1,82.55,0)"></circle><circle r="2.5" fill="#228833" stroke-width="0.1" stroke="black" class="M6" transform="matrix(1,0,0,1,41.275000000000006,71.49039708240541)"></circle><circle r="2.5" fill="#228833" stroke-width="0.1" stroke="black" class="M6" transform="matrix(1,0,0,1,-41.27499999999998,71.49039708240541)"></circle><circle r="2.5" fill="#228833" stroke-width="0.1" stroke="black" class="M6" transform="matrix(1,0,0,1,-82.55,1.0109459326961401e-14)"></circle><circle r="2.5" fill="#228833" stroke-width="0.1" stroke="black" class="M6" transform="matrix(1,0,0,1,-41.275000000000034,-71.4903970824054)"></circle><circle r="2.5" fill="#228833" stroke-width="0.1" stroke="black" class="M6" transform="matrix(1,0,0,1,41.275000000000006,-71.49039708240541)"></circle></g><g transform="matrix(1,0,0,1,-80,0)"><circle r="73.8124" fill="none" stroke-width="0.1" stroke="black"></circle><circle r="69.6468" fill="none" stroke-width="0.1" stroke="black"></circle></g><circle r="2.5527" class="q-20" fill="#4477aa" stroke-width="0.1" stroke="black" transform="matrix(1,0,0,1,127,127)"></circle><circle r="2.5527" class="q-20" fill="#4477aa" stroke-width="0.1" stroke="black" transform="matrix(1,0,0,1,-127,127)"></circle><circle r="2.5527" class="q-20" fill="#4477aa" stroke-width="0.1" stroke="black" transform="matrix(1,0,0,1,-127,-127)"></circle><circle r="2.5527" class="q-20" fill="#4477aa" stroke-width="0.1" stroke="black" transform="matrix(1,0,0,1,127,-127)"></circle><circle r="2.5527" class="q-20" fill="#4477aa" stroke-width="0.1" stroke="black" transform="matrix(1,0,0,1,185,-50.8)"></circle><circle r="2.5527" class="q-20" fill="#4477aa" stroke-width="0.1" stroke="black" transform="matrix(1,0,0,1,-50.8,185)"></circle><circle r="2.5527" class="q-20" fill="#4477aa" stroke-width="0.1" stroke="black" transform="matrix(1,0,0,1,185,0)"></circle><circle r="2.5527" class="q-20" fill="#4477aa" stroke-width="0.1" stroke="black" transform="matrix(1,0,0,1,0,185)"></circle><circle r="2.5527" class="q-20" fill="#4477aa" stroke-width="0.1" stroke="black" transform="matrix(1,0,0,1,185,50.8)"></circle><circle r="2.5527" class="q-20" fill="#4477aa" stroke-width="0.1" stroke="black" transform="matrix(1,0,0,1,50.8,185)"></circle><circle r="2.5527" class="q-20" fill="#4477aa" stroke-width="0.1" stroke="black" transform="matrix(1,0,0,1,-185,-50.8)"></circle><circle r="2.5527" class="q-20" fill="#4477aa" stroke-width="0.1" stroke="black" transform="matrix(1,0,0,1,-50.8,-185)"></circle><circle r="2.5527" class="q-20" fill="#4477aa" stroke-width="0.1" stroke="black" transform="matrix(1,0,0,1,-185,0)"></circle><circle r="2.5527" class="q-20" fill="#4477aa" stroke-width="0.1" stroke="black" transform="matrix(1,0,0,1,0,-185)"></circle><circle r="2.5527" class="q-20" fill="#4477aa" stroke-width="0.1" stroke="black" transform="matrix(1,0,0,1,-185,50.8)"></circle><circle r="2.5527" class="q-20" fill="#4477aa" stroke-width="0.1" stroke="black" transform="matrix(1,0,0,1,50.8,-185)"></circle><circle r="2.5527" class="q-20" fill="#4477aa" stroke-width="0.1" stroke="black" transform="matrix(1,0,0,1,85,-40)"></circle><circle r="2.5527" class="q-20" fill="#4477aa" stroke-width="0.1" stroke="black" transform="matrix(1,0,0,1,165,-40)"></circle><circle r="2.5527" class="q-20" fill="#4477aa" stroke-width="0.1" stroke="black" transform="matrix(1,0,0,1,85,40)"></circle><circle r="2.5527" class="q-20" fill="#4477aa" stroke-width="0.1" stroke="black" transform="matrix(1,0,0,1,165,40)"></circle><g transform="matrix(1,0,0,1,142.85714285714286,166.66666666666666)"><circle r="2.0193" fill="#ee6677" stroke-width="0.1" stroke="black" transform="matrix(1,0,0,1,0,0)"></circle><text font-family="Helvetica" font-size="10" text-anchor="left" alignment-baseline="middle" transform="matrix(1,0,0,1,20,0)" svgjs:data="{&quot;leading&quot;:&quot;1.5em&quot;}">42</text><text font-family="Helvetica" font-size="10" text-anchor="left" alignment-baseline="middle" transform="matrix(1,0,0,1,50,0)" svgjs:data="{&quot;leading&quot;:&quot;1.5em&quot;}">blindtap 10-32</text><circle r="2.1" fill="#228833" stroke-width="0.1" stroke="black" transform="matrix(1,0,0,1,0,18)"></circle><text font-family="Helvetica" font-size="10" text-anchor="left" alignment-baseline="middle" transform="matrix(1,0,0,1,20,18)" svgjs:data="{&quot;leading&quot;:&quot;1.5em&quot;}">6</text><text font-family="Helvetica" font-size="10" text-anchor="left" alignment-baseline="middle" transform="matrix(1,0,0,1,50,18)" svgjs:data="{&quot;leading&quot;:&quot;1.5em&quot;}">blindtap M6</text><circle r="2.5527" fill="#4477aa" stroke-width="0.1" stroke="black" transform="matrix(1,0,0,1,0,36)"></circle><text font-family="Helvetica" font-size="10" text-anchor="left" alignment-baseline="middle" transform="matrix(1,0,0,1,20,36)" svgjs:data="{&quot;leading&quot;:&quot;1.5em&quot;}">20</text><text font-family="Helvetica" font-size="10" text-anchor="left" alignment-baseline="middle" transform="matrix(1,0,0,1,50,36)" svgjs:data="{&quot;leading&quot;:&quot;1.5em&quot;}">blindtap 1/4-20</text></g></svg>