<svg xmlns="http://www.w3.org/2000/svg" version="1.1" xmlns:xlink="http://www.w3.org/1999/xlink" xmlns:svgjs="http://svgjs.com/svgjs" width="750" height="750" viewBox="-250 -250 500 500"><g><line x1="-250" y1="0" x2="250" y2="0" stroke-opacity="0.6" stroke-width="0.1" stroke="grey"></line><line x1="0" y1="-250" x2="0" y2="250" stroke-opacity="0.6" stroke-width="0.1" stroke="grey"></line></g><circle r="145" stroke-width="0.1" stroke="black" fill="none"></circle><circle r="44.449999999999996" stroke-width="0.1" stroke="black" fill="none" transform="matrix(1,0,0,1,80,0)"></circle><g transform="matrix(0.984807753012208,-0.17364817766693033,0.17364817766693033,0.984807753012208,80,0)"><circle r="1.65" fill="pink" stroke-width="0.1" stroke="black" class="M4" transform="matrix(1,0,0,1,55.626,0)"></circle><circle r="1.65" fill="pink" stroke-width="0.1" stroke="black" class="M4" transform="matrix(1,0,0,1,27.813000000000006,48.17352911091318)"></circle><circle r="1.65" fill="pink" stroke-width="0.1" stroke="black" class="M4" transform="matrix(1,0,0,1,-27.812999999999988,48.17352911091319)"></circle><circle r="1.65" fill="pink" stroke-width="0.1" stroke="black" class="M4" transform="matrix(1,0,0,1,-55.626,6.812220284937066e-15)"></circle><circle r="1.65" fill="pink" stroke-width="0.1" stroke="black" class="M4" transform="matrix(1,0,0,1,-27.813000000000024,-48.17352911091317)"></circle><circle r="1.65" fill="pink" stroke-width="0.1" stroke="black" class="M4" transform="matrix(1,0,0,1,27.813000000000006,-48.17352911091318)"></circle></g><g transform="matrix(1,0,0,1,0,0)"><g transform="matrix(1,0,0,1,0,100)"><circle r="1.1302999999999999" stroke-width="0.1" stroke="black" class="4-40" transform="matrix(1,0,0,1,-7.9375,0)" fill="blue"></circle><circle r="1.1302999999999999" stroke-width="0.1" stroke="black" class="4-40" transform="matrix(1,0,0,1,7.9375,0)" fill="blue"></circle></g></g><g transform="matrix(1,0,0,1,0,0)"><g transform="matrix(1,0,0,1,0,-100)"><circle r="1.1302999999999999" stroke-width="0.1" stroke="black" class="4-40" transform="matrix(1,0,0,1,-7.9375,0)" fill="blue"></circle><circle r="1.1302999999999999" stroke-width="0.1" stroke="black" class="4-40" transform="matrix(1,0,0,1,7.9375,0)" fill="blue"></circle></g></g><g transform="matrix(0.7071067811865476,0.7071067811865475,-0.7071067811865475,0.7071067811865476,0,0)"><g transform="matrix(1,0,0,1,0,-115)"><circle r="1.1302999999999999" stroke-width="0.1" stroke="black" class="4-40" transform="matrix(1,0,0,1,-7.9375,0)" fill="blue"></circle><circle r="1.1302999999999999" stroke-width="0.1" stroke="black" class="4-40" transform="matrix(1,0,0,1,7.9375,0)" fill="blue"></circle></g></g><g transform="matrix(0.7071067811865476,-0.7071067811865475,0.7071067811865475,0.7071067811865476,0,0)"><g transform="matrix(1,0,0,1,0,115)"><circle r="1.1302999999999999" stroke-width="0.1" stroke="black" class="4-40" transform="matrix(1,0,0,1,-7.9375,0)" fill="blue"></circle><circle r="1.1302999999999999" stroke-width="0.1" stroke="black" class="4-40" transform="matrix(1,0,0,1,7.9375,0)" fill="blue"></circle></g></g><g transform="matrix(0.38268343236508984,-0.9238795325112867,0.9238795325112867,0.38268343236508984,0,0)"><g transform="matrix(1,0,0,1,0,-125)"><circle r="1.1302999999999999" stroke-width="0.1" stroke="black" class="4-40" transform="matrix(1,0,0,1,-7.9375,0)" fill="blue"></circle><circle r="1.1302999999999999" stroke-width="0.1" stroke="black" class="4-40" transform="matrix(1,0,0,1,7.9375,0)" fill="blue"></circle></g></g><g transform="matrix(0.38268343236508984,0.9238795325112867,-0.9238795325112867,0.38268343236508984,0,0)"><g transform="matrix(1,0,0,1,0,125)"><circle r="1.1302999999999999" stroke-width="0.1" stroke="black" class="4-40" transform="matrix(1,0,0,1,-7.9375,0)" fill="blue"></circle><circle r="1.1302999999999999" stroke-width="0.1" stroke="black" class="4-40" transform="matrix(1,0,0,1,7.9375,0)" fill="blue"></circle></g></g><g transform="matrix(1,0,0,1,0,0)"><g transform="matrix(1,0,0,1,0,123)"><circle r="1.1302999999999999" stroke-width="0.1" stroke="black" class="4-40" transform="matrix(1,0,0,1,-23.15,0)" fill="blue"></circle><circle r="1.1302999999999999" stroke-width="0.1" stroke="black" class="4-40" transform="matrix(1,0,0,1,23.15,0)" fill="blue"></circle><rect width="40" height="15" transform="matrix(1,0,0,1,-20,-7.5)" fill="none" stroke-width="0.1" stroke="black"></rect></g></g><g transform="matrix(0.8660254037844387,0.49999999999999994,-0.49999999999999994,0.8660254037844387,0,0)"><g transform="matrix(1,0,0,1,0,123)"><circle r="1.1302999999999999" stroke-width="0.1" stroke="black" class="4-40" transform="matrix(1,0,0,1,-23.15,0)" fill="blue"></circle><circle r="1.1302999999999999" stroke-width="0.1" stroke="black" class="4-40" transform="matrix(1,0,0,1,23.15,0)" fill="blue"></circle><rect width="40" height="15" transform="matrix(1,0,0,1,-20,-7.5)" fill="none" stroke-width="0.1" stroke="black"></rect></g></g><g transform="matrix(-0.8660254037844387,0.49999999999999994,-0.49999999999999994,-0.8660254037844387,0,0)"><g transform="matrix(1,0,0,1,0,123)"><circle r="1.1302999999999999" stroke-width="0.1" stroke="black" class="4-40" transform="matrix(1,0,0,1,-23.15,0)" fill="blue"></circle><circle r="1.1302999999999999" stroke-width="0.1" stroke="black" class="4-40" transform="matrix(1,0,0,1,23.15,0)" fill="blue"></circle><rect width="40" height="15" transform="matrix(1,0,0,1,-20,-7.5)" fill="none" stroke-width="0.1" stroke="black"></rect></g></g><g transform="matrix(-1,1.2246467991473532e-16,-1.2246467991473532e-16,-1,0,0)"><g transform="matrix(1,0,0,1,0,123)"><circle r="1.1302999999999999" stroke-width="0.1" stroke="black" class="4-40" transform="matrix(1,0,0,1,-23.15,0)" fill="blue"></circle><circle r="1.1302999999999999" stroke-width="0.1" stroke="black" class="4-40" transform="matrix(1,0,0,1,23.15,0)" fill="blue"></circle><rect width="40" height="15" transform="matrix(1,0,0,1,-20,-7.5)" fill="none" stroke-width="0.1" stroke="black"></rect></g></g><circle r="5.3578125" class="npt" fill="salmon" stroke-width="0.1" stroke="black" transform="matrix(1,0,0,1,-80,85)"></circle><circle r="5.3578125" class="npt" fill="salmon" stroke-width="0.1" stroke="black" transform="matrix(1,0,0,1,-80,-85)"></circle><circle r="2.5527" class="q-20" fill="#ff00ff" stroke-width="0.1" stroke="black" transform="matrix(1,0,0,1,63,95)"></circle><circle r="2.5527" class="q-20" fill="#ff00ff" stroke-width="0.1" stroke="black" transform="matrix(1,0,0,1,63,-95)"></circle></svg>