<svg xmlns="http://www.w3.org/2000/svg" version="1.1" xmlns:xlink="http://www.w3.org/1999/xlink" xmlns:svgjs="http://svgjs.com/svgjs" width="1500" height="750" viewBox="-250 -250 1000 500"><g><line x1="-250" y1="0" x2="250" y2="0" stroke-opacity="0.6" stroke-width="0.1" stroke="grey"></line><line x1="0" y1="-250" x2="0" y2="250" stroke-opacity="0.6" stroke-width="0.1" stroke="grey"></line></g><circle r="145" stroke-width="0.1" stroke="black" fill="none"></circle><circle r="142.4125" stroke-width="0.1" stroke="black" fill="none"></circle><circle r="44.449999999999996" stroke-width="0.1" stroke="black" fill="none" transform="matrix(1,0,0,1,80,0)"></circle><g transform="matrix(0.984807753012208,-0.17364817766693033,0.17364817766693033,0.984807753012208,80,0)"><circle r="2.1" fill="#4477aa" stroke-width="0.1" stroke="black" class="M5" transform="matrix(1,0,0,1,55.626,0)"></circle><circle r="2.1" fill="#4477aa" stroke-width="0.1" stroke="black" class="M5" transform="matrix(1,0,0,1,27.813000000000006,48.17352911091318)"></circle><circle r="2.1" fill="#4477aa" stroke-width="0.1" stroke="black" class="M5" transform="matrix(1,0,0,1,-27.812999999999988,48.17352911091319)"></circle><circle r="2.1" fill="#4477aa" stroke-width="0.1" stroke="black" class="M5" transform="matrix(1,0,0,1,-55.626,6.812220284937066e-15)"></circle><circle r="2.1" fill="#4477aa" stroke-width="0.1" stroke="black" class="M5" transform="matrix(1,0,0,1,-27.813000000000024,-48.17352911091317)"></circle><circle r="2.1" fill="#4477aa" stroke-width="0.1" stroke="black" class="M5" transform="matrix(1,0,0,1,27.813000000000006,-48.17352911091318)"></circle></g><g transform="matrix(1,0,0,1,0,0)"><g transform="matrix(1,0,0,1,0,100)"><circle r="1.1302999999999999" stroke-width="0.1" stroke="black" class="4-40" transform="matrix(1,0,0,1,-7.9375,0)" fill="#ccbb44"></circle><circle r="1.1302999999999999" stroke-width="0.1" stroke="black" class="4-40" transform="matrix(1,0,0,1,7.9375,0)" fill="#ccbb44"></circle></g></g><g transform="matrix(1,0,0,1,0,0)"><g transform="matrix(1,0,0,1,0,-100)"><circle r="1.1302999999999999" stroke-width="0.1" stroke="black" class="4-40" transform="matrix(1,0,0,1,-7.9375,0)" fill="#ccbb44"></circle><circle r="1.1302999999999999" stroke-width="0.1" stroke="black" class="4-40" transform="matrix(1,0,0,1,7.9375,0)" fill="#ccbb44"></circle></g></g><g transform="matrix(0.7071067811865476,0.7071067811865475,-0.7071067811865475,0.7071067811865476,0,0)"><g transform="matrix(1,0,0,1,0,-115)"><circle r="1.1302999999999999" stroke-width="0.1" stroke="black" class="4-40" transform="matrix(1,0,0,1,-7.9375,0)" fill="#ccbb44"></circle><circle r="1.1302999999999999" stroke-width="0.1" stroke="black" class="4-40" transform="matrix(1,0,0,1,7.9375,0)" fill="#ccbb44"></circle></g></g><g transform="matrix(0.7071067811865476,-0.7071067811865475,0.7071067811865475,0.7071067811865476,0,0)"><g transform="matrix(1,0,0,1,0,115)"><circle r="1.1302999999999999" stroke-width="0.1" stroke="black" class="4-40" transform="matrix(1,0,0,1,-7.9375,0)" fill="#ccbb44"></circle><circle r="1.1302999999999999" stroke-width="0.1" stroke="black" class="4-40" transform="matrix(1,0,0,1,7.9375,0)" fill="#ccbb44"></circle></g></g><g transform="matrix(0.38268343236508984,-0.9238795325112867,0.9238795325112867,0.38268343236508984,0,0)"><g transform="matrix(1,0,0,1,0,-125)"><circle r="1.1302999999999999" stroke-width="0.1" stroke="black" class="4-40" transform="matrix(1,0,0,1,-7.9375,0)" fill="#ccbb44"></circle><circle r="1.1302999999999999" stroke-width="0.1" stroke="black" class="4-40" transform="matrix(1,0,0,1,7.9375,0)" fill="#ccbb44"></circle></g></g><g transform="matrix(0.38268343236508984,0.9238795325112867,-0.9238795325112867,0.38268343236508984,0,0)"><g transform="matrix(1,0,0,1,0,125)"><circle r="1.1302999999999999" stroke-width="0.1" stroke="black" class="4-40" transform="matrix(1,0,0,1,-7.9375,0)" fill="#ccbb44"></circle><circle r="1.1302999999999999" stroke-width="0.1" stroke="black" class="4-40" transform="matrix(1,0,0,1,7.9375,0)" fill="#ccbb44"></circle></g></g><g transform="matrix(1,0,0,1,0,0)"><g transform="matrix(1,0,0,1,0,123)"><circle r="1.1302999999999999" stroke-width="0.1" stroke="black" class="4-40" transform="matrix(1,0,0,1,-23.15,0)" fill="#ccbb44"></circle><circle r="1.1302999999999999" stroke-width="0.1" stroke="black" class="4-40" transform="matrix(1,0,0,1,23.15,0)" fill="#ccbb44"></circle><rect width="40" height="15" transform="matrix(1,0,0,1,-20,-7.5)" fill="none" stroke-width="0.1" stroke="black"></rect></g></g><g transform="matrix(0.8660254037844387,0.49999999999999994,-0.49999999999999994,0.8660254037844387,0,0)"><g transform="matrix(1,0,0,1,0,123)"><circle r="1.1302999999999999" stroke-width="0.1" stroke="black" class="4-40" transform="matrix(1,0,0,1,-23.15,0)" fill="#ccbb44"></circle><circle r="1.1302999999999999" stroke-width="0.1" stroke="black" class="4-40" transform="matrix(1,0,0,1,23.15,0)" fill="#ccbb44"></circle><rect width="40" height="15" transform="matrix(1,0,0,1,-20,-7.5)" fill="none" stroke-width="0.1" stroke="black"></rect></g></g><g transform="matrix(-0.8660254037844387,0.49999999999999994,-0.49999999999999994,-0.8660254037844387,0,0)"><g transform="matrix(1,0,0,1,0,123)"><circle r="1.1302999999999999" stroke-width="0.1" stroke="black" class="4-40" transform="matrix(1,0,0,1,-23.15,0)" fill="#ccbb44"></circle><circle r="1.1302999999999999" stroke-width="0.1" stroke="black" class="4-40" transform="matrix(1,0,0,1,23.15,0)" fill="#ccbb44"></circle><rect width="40" height="15" transform="matrix(1,0,0,1,-20,-7.5)" fill="none" stroke-width="0.1" stroke="black"></rect></g></g><g transform="matrix(-1,1.2246467991473532e-16,-1.2246467991473532e-16,-1,0,0)"><g transform="matrix(1,0,0,1,0,123)"><circle r="1.1302999999999999" stroke-width="0.1" stroke="black" class="4-40" transform="matrix(1,0,0,1,-23.15,0)" fill="#ccbb44"></circle><circle r="1.1302999999999999" stroke-width="0.1" stroke="black" class="4-40" transform="matrix(1,0,0,1,23.15,0)" fill="#ccbb44"></circle><rect width="40" height="15" transform="matrix(1,0,0,1,-20,-7.5)" fill="none" stroke-width="0.1" stroke="black"></rect></g></g><g transform="matrix(1,0,0,1,-35,0)"><circle r="1.1302999999999999" stroke-width="0.1" stroke="black" class="4-40b" transform="matrix(1,0,0,1,25.4,-50.8)" fill="#66ccee"></circle><circle r="1.1302999999999999" stroke-width="0.1" stroke="black" class="4-40b" transform="matrix(1,0,0,1,25.4,-25.4)" fill="#66ccee"></circle><circle r="1.1302999999999999" stroke-width="0.1" stroke="black" class="4-40b" transform="matrix(1,0,0,1,25.4,0)" fill="#66ccee"></circle><circle r="1.1302999999999999" stroke-width="0.1" stroke="black" class="4-40b" transform="matrix(1,0,0,1,25.4,25.4)" fill="#66ccee"></circle><circle r="1.1302999999999999" stroke-width="0.1" stroke="black" class="4-40b" transform="matrix(1,0,0,1,25.4,50.8)" fill="#66ccee"></circle><circle r="1.1302999999999999" stroke-width="0.1" stroke="black" class="4-40b" transform="matrix(1,0,0,1,0,-50.8)" fill="#66ccee"></circle><circle r="1.1302999999999999" stroke-width="0.1" stroke="black" class="4-40b" transform="matrix(1,0,0,1,0,-25.4)" fill="#66ccee"></circle><circle r="1.1302999999999999" stroke-width="0.1" stroke="black" class="4-40b" transform="matrix(1,0,0,1,0,0)" fill="#66ccee"></circle><circle r="1.1302999999999999" stroke-width="0.1" stroke="black" class="4-40b" transform="matrix(1,0,0,1,0,25.4)" fill="#66ccee"></circle><circle r="1.1302999999999999" stroke-width="0.1" stroke="black" class="4-40b" transform="matrix(1,0,0,1,0,50.8)" fill="#66ccee"></circle><circle r="1.1302999999999999" stroke-width="0.1" stroke="black" class="4-40b" transform="matrix(1,0,0,1,-25.4,-50.8)" fill="#66ccee"></circle><circle r="1.1302999999999999" stroke-width="0.1" stroke="black" class="4-40b" transform="matrix(1,0,0,1,-25.4,-25.4)" fill="#66ccee"></circle><circle r="1.1302999999999999" stroke-width="0.1" stroke="black" class="4-40b" transform="matrix(1,0,0,1,-25.4,0)" fill="#66ccee"></circle><circle r="1.1302999999999999" stroke-width="0.1" stroke="black" class="4-40b" transform="matrix(1,0,0,1,-25.4,25.4)" fill="#66ccee"></circle><circle r="1.1302999999999999" stroke-width="0.1" stroke="black" class="4-40b" transform="matrix(1,0,0,1,-25.4,50.8)" fill="#66ccee"></circle><circle r="1.1302999999999999" stroke-width="0.1" stroke="black" class="4-40b" transform="matrix(1,0,0,1,-50.8,-50.8)" fill="#66ccee"></circle><circle r="1.1302999999999999" stroke-width="0.1" stroke="black" class="4-40b" transform="matrix(1,0,0,1,-50.8,-25.4)" fill="#66ccee"></circle><circle r="1.1302999999999999" stroke-width="0.1" stroke="black" class="4-40b" transform="matrix(1,0,0,1,-50.8,0)" fill="#66ccee"></circle><circle r="1.1302999999999999" stroke-width="0.1" stroke="black" class="4-40b" transform="matrix(1,0,0,1,-50.8,25.4)" fill="#66ccee"></circle><circle r="1.1302999999999999" stroke-width="0.1" stroke="black" class="4-40b" transform="matrix(1,0,0,1,-50.8,50.8)" fill="#66ccee"></circle></g><circle r="5.3578125" class="npt" fill="#ee6677" stroke-width="0.1" stroke="black" transform="matrix(1,0,0,1,-85,80)"></circle><circle r="5.3578125" class="npt" fill="#ee6677" stroke-width="0.1" stroke="black" transform="matrix(1,0,0,1,-85,-80)"></circle><circle r="2.5527" class="q-20" fill="#228833" stroke-width="0.1" stroke="black" transform="matrix(1,0,0,1,63,95)"></circle><circle r="2.5527" class="q-20" fill="#228833" stroke-width="0.1" stroke="black" transform="matrix(1,0,0,1,63,-95)"></circle><circle r="0.889" class="2-56" fill="#aa3377" stroke-width="0.1" stroke="black" transform="matrix(1,0,0,1,200,190)"></circle><circle r="0.889" class="2-56" fill="#aa3377" stroke-width="0.1" stroke="black" transform="matrix(1,0,0,1,200,190)"></circle><circle r="0.889" class="2-56" fill="#aa3377" stroke-width="0.1" stroke="black" transform="matrix(1,0,0,1,200,190)"></circle><circle r="0.889" class="2-56" fill="#aa3377" stroke-width="0.1" stroke="black" transform="matrix(1,0,0,1,200,190)"></circle><circle r="0.889" class="2-56" fill="#aa3377" stroke-width="0.1" stroke="black" transform="matrix(1,0,0,1,200,190)"></circle><circle r="0.889" class="2-56" fill="#aa3377" stroke-width="0.1" stroke="black" transform="matrix(1,0,0,1,200,190)"></circle><circle r="0.889" class="2-56" fill="#aa3377" stroke-width="0.1" stroke="black" transform="matrix(1,0,0,1,200,190)"></circle><circle r="0.889" class="2-56" fill="#aa3377" stroke-width="0.1" stroke="black" transform="matrix(1,0,0,1,200,190)"></circle><text font-family="Helvetica" font-size="10" transform="matrix(1,0,0,1,200,3)" svgjs:data="{&quot;leading&quot;:&quot;1.3&quot;}">2-56 Blind Tap - 7.4mm Depth</text><polygon points="50,0 60,20 55,20 55,50 45,50 45,20 40,20" fill="#bbbbbb" transform="matrix(6.123233995736766e-17,-1,1,6.123233995736766e-17,145,50)"></polygon><polygon points="50,0 60,20 55,20 55,50 45,50 45,20 40,20" fill="#bbbbbb" transform="matrix(6.123233995736766e-17,1,-1,6.123233995736766e-17,-145,-50)"></polygon><polygon points="50,0 60,20 55,20 55,50 45,50 45,20 40,20" fill="#bbbbbb" transform="matrix(1,0,0,1,-50,147)"></polygon><polygon points="50,0 60,20 55,20 55,50 45,50 45,20 40,20" fill="#bbbbbb" transform="matrix(-1,1.2246467991473532e-16,-1.2246467991473532e-16,-1,50,-147)"></polygon><polygon points="50,0 60,20 55,20 55,50 45,50 45,20 40,20" fill="#bbbbbb" transform="matrix(-0.7071067811865475,-0.7071067811865476,0.7071067811865476,-0.7071067811865475,137.6776695296637,-68.96699141100893)"></polygon><polygon points="50,0 60,20 55,20 55,50 45,50 45,20 40,20" fill="#bbbbbb" transform="matrix(-0.7071067811865475,0.7071067811865476,-0.7071067811865476,-0.7071067811865475,-63.96699141100894,-139.6776695296637)"></polygon><polygon points="50,0 60,20 55,20 55,50 45,50 45,20 40,20" fill="#bbbbbb" transform="matrix(0.7071067811865476,0.7071067811865475,-0.7071067811865475,0.7071067811865476,-134.6776695296637,68.96699141100893)"></polygon><polygon points="50,0 60,20 55,20 55,50 45,50 45,20 40,20" fill="#bbbbbb" transform="matrix(0.7071067811865476,-0.7071067811865475,0.7071067811865475,0.7071067811865476,63.966991411008934,149.6776695296637)"></polygon><g transform="matrix(1,0,0,1,200,100)"><circle r="5.3578125" fill="#ee6677" stroke-width="0.1" stroke="black" transform="matrix(1,0,0,1,0,0)"></circle><text font-family="Helvetica" font-size="10" text-anchor="left" alignment-baseline="middle" transform="matrix(1,0,0,1,20,0)" svgjs:data="{&quot;leading&quot;:&quot;1.5em&quot;}">2</text><text font-family="Helvetica" font-size="10" text-anchor="left" alignment-baseline="middle" transform="matrix(1,0,0,1,50,0)" svgjs:data="{&quot;leading&quot;:&quot;1.5em&quot;}">Tap thru 1/4 NPT, start tap from the other side</text><circle r="2.5527" fill="#228833" stroke-width="0.1" stroke="black" transform="matrix(1,0,0,1,0,18)"></circle><text font-family="Helvetica" font-size="10" text-anchor="left" alignment-baseline="middle" transform="matrix(1,0,0,1,20,18)" svgjs:data="{&quot;leading&quot;:&quot;1.5em&quot;}">2</text><text font-family="Helvetica" font-size="10" text-anchor="left" alignment-baseline="middle" transform="matrix(1,0,0,1,50,18)" svgjs:data="{&quot;leading&quot;:&quot;1.5em&quot;}">Tap thru 1/4-20</text><circle r="2.1" fill="#4477aa" stroke-width="0.1" stroke="black" transform="matrix(1,0,0,1,0,36)"></circle><text font-family="Helvetica" font-size="10" text-anchor="left" alignment-baseline="middle" transform="matrix(1,0,0,1,20,36)" svgjs:data="{&quot;leading&quot;:&quot;1.5em&quot;}">6</text><text font-family="Helvetica" font-size="10" text-anchor="left" alignment-baseline="middle" transform="matrix(1,0,0,1,50,36)" svgjs:data="{&quot;leading&quot;:&quot;1.5em&quot;}">M5 Clearance Hole</text><circle r="1.1302999999999999" fill="#ccbb44" stroke-width="0.1" stroke="black" transform="matrix(1,0,0,1,0,54)"></circle><text font-family="Helvetica" font-size="10" text-anchor="left" alignment-baseline="middle" transform="matrix(1,0,0,1,20,54)" svgjs:data="{&quot;leading&quot;:&quot;1.5em&quot;}">20</text><text font-family="Helvetica" font-size="10" text-anchor="left" alignment-baseline="middle" transform="matrix(1,0,0,1,50,54)" svgjs:data="{&quot;leading&quot;:&quot;1.5em&quot;}">Tap thru 4-40</text><circle r="1.1302999999999999" fill="#66ccee" stroke-width="0.1" stroke="black" transform="matrix(1,0,0,1,0,72)"></circle><text font-family="Helvetica" font-size="10" text-anchor="left" alignment-baseline="middle" transform="matrix(1,0,0,1,20,72)" svgjs:data="{&quot;leading&quot;:&quot;1.5em&quot;}">20</text><text font-family="Helvetica" font-size="10" text-anchor="left" alignment-baseline="middle" transform="matrix(1,0,0,1,50,72)" svgjs:data="{&quot;leading&quot;:&quot;1.5em&quot;}">Blindtap 4 - 40</text><circle r="0.889" fill="#aa3377" stroke-width="0.1" stroke="black" transform="matrix(1,0,0,1,0,90)"></circle><text font-family="Helvetica" font-size="10" text-anchor="left" alignment-baseline="middle" transform="matrix(1,0,0,1,20,90)" svgjs:data="{&quot;leading&quot;:&quot;1.5em&quot;}">8</text><text font-family="Helvetica" font-size="10" text-anchor="left" alignment-baseline="middle" transform="matrix(1,0,0,1,50,90)" svgjs:data="{&quot;leading&quot;:&quot;1.5em&quot;}">Radial Holes 2-56 Blind Tap - 7.4mm Depth</text></g></svg>