<svg xmlns="http://www.w3.org/2000/svg" version="1.1" xmlns:xlink="http://www.w3.org/1999/xlink" xmlns:svgjs="http://svgjs.com/svgjs" width="1500" height="750" viewBox="-250 -250 1000 500"><g><line x1="-250" y1="0" x2="250" y2="0" stroke-opacity="0.6" stroke-width="0.1" stroke="grey"></line><line x1="0" y1="-250" x2="0" y2="250" stroke-opacity="0.6" stroke-width="0.1" stroke="grey"></line></g><circle r="130" stroke-width="0.1" stroke="black" fill="none"></circle><circle r="127.4125" stroke-width="0.1" stroke="black" fill="none"></circle><g transform="matrix(1,0,0,1,-80,0)"><circle r="1.65" fill="#ccbb44" stroke-width="0.1" stroke="black" class="M4" transform="matrix(1,0,0,1,38.099999999999994,0)"></circle><circle r="1.65" fill="#ccbb44" stroke-width="0.1" stroke="black" class="M4" transform="matrix(1,0,0,1,19.05,32.9955678841871)"></circle><circle r="1.65" fill="#ccbb44" stroke-width="0.1" stroke="black" class="M4" transform="matrix(1,0,0,1,-19.04999999999999,32.99556788418711)"></circle><circle r="1.65" fill="#ccbb44" stroke-width="0.1" stroke="black" class="M4" transform="matrix(1,0,0,1,-38.099999999999994,4.665904304751415e-15)"></circle><circle r="1.65" fill="#ccbb44" stroke-width="0.1" stroke="black" class="M4" transform="matrix(1,0,0,1,-19.050000000000015,-32.9955678841871)"></circle><circle r="1.65" fill="#ccbb44" stroke-width="0.1" stroke="black" class="M4" transform="matrix(1,0,0,1,19.05,-32.9955678841871)"></circle></g><circle r="86" stroke-width="0.1" stroke="black" fill="none" transform="matrix(1,0,0,1,35,0)"></circle><circle r="75" stroke-width="0.1" stroke="black" fill="none" transform="matrix(1,0,0,1,35,0)"></circle><g transform="matrix(1,0,0,1,35,0)"><circle r="2.1" fill="#4477aa" stroke-width="0.1" stroke="black" class="M5" transform="matrix(1,0,0,1,80,0)"></circle><circle r="2.1" fill="#4477aa" stroke-width="0.1" stroke="black" class="M5" transform="matrix(1,0,0,1,69.2820323027551,39.99999999999999)"></circle><circle r="2.1" fill="#4477aa" stroke-width="0.1" stroke="black" class="M5" transform="matrix(1,0,0,1,40.00000000000001,69.28203230275508)"></circle><circle r="2.1" fill="#4477aa" stroke-width="0.1" stroke="black" class="M5" transform="matrix(1,0,0,1,4.898587196589413e-15,80)"></circle><circle r="2.1" fill="#4477aa" stroke-width="0.1" stroke="black" class="M5" transform="matrix(1,0,0,1,-39.999999999999986,69.2820323027551)"></circle><circle r="2.1" fill="#4477aa" stroke-width="0.1" stroke="black" class="M5" transform="matrix(1,0,0,1,-69.2820323027551,39.99999999999999)"></circle><circle r="2.1" fill="#4477aa" stroke-width="0.1" stroke="black" class="M5" transform="matrix(1,0,0,1,-80,9.797174393178826e-15)"></circle><circle r="2.1" fill="#4477aa" stroke-width="0.1" stroke="black" class="M5" transform="matrix(1,0,0,1,-69.28203230275511,-39.99999999999998)"></circle><circle r="2.1" fill="#4477aa" stroke-width="0.1" stroke="black" class="M5" transform="matrix(1,0,0,1,-40.000000000000036,-69.28203230275508)"></circle><circle r="2.1" fill="#4477aa" stroke-width="0.1" stroke="black" class="M5" transform="matrix(1,0,0,1,-1.4695761589768237e-14,-80)"></circle><circle r="2.1" fill="#4477aa" stroke-width="0.1" stroke="black" class="M5" transform="matrix(1,0,0,1,40.00000000000001,-69.28203230275508)"></circle><circle r="2.1" fill="#4477aa" stroke-width="0.1" stroke="black" class="M5" transform="matrix(1,0,0,1,69.28203230275507,-40.000000000000036)"></circle></g><g transform="matrix(1,0,0,1,0,0)"><g transform="matrix(6.123233995736766e-17,1,-1,6.123233995736766e-17,0,-100)"><circle r="1.1302999999999999" stroke-width="0.1" stroke="black" class="4-40" transform="matrix(1,0,0,1,-7.9375,0)" fill="#66ccee"></circle><circle r="1.1302999999999999" stroke-width="0.1" stroke="black" class="4-40" transform="matrix(1,0,0,1,7.9375,0)" fill="#66ccee"></circle></g></g><g transform="matrix(1,0,0,1,0,0)"><g transform="matrix(6.123233995736766e-17,1,-1,6.123233995736766e-17,0,100)"><circle r="1.1302999999999999" stroke-width="0.1" stroke="black" class="4-40" transform="matrix(1,0,0,1,-7.9375,0)" fill="#66ccee"></circle><circle r="1.1302999999999999" stroke-width="0.1" stroke="black" class="4-40" transform="matrix(1,0,0,1,7.9375,0)" fill="#66ccee"></circle></g></g><g transform="matrix(0.7071067811865476,0.7071067811865475,-0.7071067811865475,0.7071067811865476,0,0)"><g transform="matrix(1,0,0,1,0,115)"><circle r="1.1302999999999999" stroke-width="0.1" stroke="black" class="4-40" transform="matrix(1,0,0,1,-7.9375,0)" fill="#66ccee"></circle><circle r="1.1302999999999999" stroke-width="0.1" stroke="black" class="4-40" transform="matrix(1,0,0,1,7.9375,0)" fill="#66ccee"></circle></g></g><g transform="matrix(0.7071067811865476,-0.7071067811865475,0.7071067811865475,0.7071067811865476,0,0)"><g transform="matrix(1,0,0,1,0,-115)"><circle r="1.1302999999999999" stroke-width="0.1" stroke="black" class="4-40" transform="matrix(1,0,0,1,-7.9375,0)" fill="#66ccee"></circle><circle r="1.1302999999999999" stroke-width="0.1" stroke="black" class="4-40" transform="matrix(1,0,0,1,7.9375,0)" fill="#66ccee"></circle></g></g><g transform="matrix(0.38268343236508984,-0.9238795325112867,0.9238795325112867,0.38268343236508984,0,0)"><g transform="matrix(1,0,0,1,0,125)"><circle r="1.1302999999999999" stroke-width="0.1" stroke="black" class="4-40" transform="matrix(1,0,0,1,-7.9375,0)" fill="#66ccee"></circle><circle r="1.1302999999999999" stroke-width="0.1" stroke="black" class="4-40" transform="matrix(1,0,0,1,7.9375,0)" fill="#66ccee"></circle></g></g><g transform="matrix(0.38268343236508984,0.9238795325112867,-0.9238795325112867,0.38268343236508984,0,0)"><g transform="matrix(1,0,0,1,0,-125)"><circle r="1.1302999999999999" stroke-width="0.1" stroke="black" class="4-40" transform="matrix(1,0,0,1,-7.9375,0)" fill="#66ccee"></circle><circle r="1.1302999999999999" stroke-width="0.1" stroke="black" class="4-40" transform="matrix(1,0,0,1,7.9375,0)" fill="#66ccee"></circle></g></g><g transform="matrix(1,0,0,1,35,0)"><g transform="matrix(1,0,0,1,0,100)"><circle r="1.1302999999999999" stroke-width="0.1" stroke="black" class="4-40" transform="matrix(1,0,0,1,-23.15,0)" fill="#66ccee"></circle><circle r="1.1302999999999999" stroke-width="0.1" stroke="black" class="4-40" transform="matrix(1,0,0,1,23.15,0)" fill="#66ccee"></circle><rect width="40" height="15" transform="matrix(1,0,0,1,-20,-7.5)" fill="none" stroke-width="0.1" stroke="black"></rect></g></g><g transform="matrix(0.7071067811865476,0.7071067811865475,-0.7071067811865475,0.7071067811865476,35,0)"><g transform="matrix(1,0,0,1,0,100)"><circle r="1.1302999999999999" stroke-width="0.1" stroke="black" class="4-40" transform="matrix(1,0,0,1,-23.15,0)" fill="#66ccee"></circle><circle r="1.1302999999999999" stroke-width="0.1" stroke="black" class="4-40" transform="matrix(1,0,0,1,23.15,0)" fill="#66ccee"></circle><rect width="40" height="15" transform="matrix(1,0,0,1,-20,-7.5)" fill="none" stroke-width="0.1" stroke="black"></rect></g></g><g transform="matrix(-0.7071067811865475,0.7071067811865476,-0.7071067811865476,-0.7071067811865475,35,0)"><g transform="matrix(1,0,0,1,0,100)"><circle r="1.1302999999999999" stroke-width="0.1" stroke="black" class="4-40" transform="matrix(1,0,0,1,-23.15,0)" fill="#66ccee"></circle><circle r="1.1302999999999999" stroke-width="0.1" stroke="black" class="4-40" transform="matrix(1,0,0,1,23.15,0)" fill="#66ccee"></circle><rect width="40" height="15" transform="matrix(1,0,0,1,-20,-7.5)" fill="none" stroke-width="0.1" stroke="black"></rect></g></g><g transform="matrix(-1,1.2246467991473532e-16,-1.2246467991473532e-16,-1,35,0)"><g transform="matrix(1,0,0,1,0,100)"><circle r="1.1302999999999999" stroke-width="0.1" stroke="black" class="4-40" transform="matrix(1,0,0,1,-23.15,0)" fill="#66ccee"></circle><circle r="1.1302999999999999" stroke-width="0.1" stroke="black" class="4-40" transform="matrix(1,0,0,1,23.15,0)" fill="#66ccee"></circle><rect width="40" height="15" transform="matrix(1,0,0,1,-20,-7.5)" fill="none" stroke-width="0.1" stroke="black"></rect></g></g><g transform="matrix(-0.7071067811865475,0.7071067811865476,-0.7071067811865476,-0.7071067811865475,35,0)"><circle r="1.1302999999999999" stroke-width="0.1" stroke="black" class="4-40b" transform="matrix(1,0,0,1,120,0)" fill="#aa3377"></circle><circle r="1.1302999999999999" stroke-width="0.1" stroke="black" class="4-40b" transform="matrix(1,0,0,1,120,12.7)" fill="#aa3377"></circle><circle r="1.1302999999999999" stroke-width="0.1" stroke="black" class="4-40b" transform="matrix(1,0,0,1,120,-12.7)" fill="#aa3377"></circle><circle r="1.1302999999999999" stroke-width="0.1" stroke="black" class="4-40b" transform="matrix(1,0,0,1,120,25.4)" fill="#aa3377"></circle><circle r="1.1302999999999999" stroke-width="0.1" stroke="black" class="4-40b" transform="matrix(1,0,0,1,120,-25.4)" fill="#aa3377"></circle><circle r="1.1302999999999999" stroke-width="0.1" stroke="black" class="4-40b" transform="matrix(1,0,0,1,120,38.099999999999994)" fill="#aa3377"></circle><circle r="1.1302999999999999" stroke-width="0.1" stroke="black" class="4-40b" transform="matrix(1,0,0,1,120,-38.099999999999994)" fill="#aa3377"></circle><circle r="1.1302999999999999" stroke-width="0.1" stroke="black" class="4-40b" transform="matrix(1,0,0,1,120,50.8)" fill="#aa3377"></circle><circle r="1.1302999999999999" stroke-width="0.1" stroke="black" class="4-40b" transform="matrix(1,0,0,1,120,-50.8)" fill="#aa3377"></circle></g><g transform="matrix(-0.7071067811865475,-0.7071067811865476,0.7071067811865476,-0.7071067811865475,35,0)"><circle r="1.1302999999999999" stroke-width="0.1" stroke="black" class="4-40b" transform="matrix(1,0,0,1,120,0)" fill="#aa3377"></circle><circle r="1.1302999999999999" stroke-width="0.1" stroke="black" class="4-40b" transform="matrix(1,0,0,1,120,12.7)" fill="#aa3377"></circle><circle r="1.1302999999999999" stroke-width="0.1" stroke="black" class="4-40b" transform="matrix(1,0,0,1,120,-12.7)" fill="#aa3377"></circle><circle r="1.1302999999999999" stroke-width="0.1" stroke="black" class="4-40b" transform="matrix(1,0,0,1,120,25.4)" fill="#aa3377"></circle><circle r="1.1302999999999999" stroke-width="0.1" stroke="black" class="4-40b" transform="matrix(1,0,0,1,120,-25.4)" fill="#aa3377"></circle><circle r="1.1302999999999999" stroke-width="0.1" stroke="black" class="4-40b" transform="matrix(1,0,0,1,120,38.099999999999994)" fill="#aa3377"></circle><circle r="1.1302999999999999" stroke-width="0.1" stroke="black" class="4-40b" transform="matrix(1,0,0,1,120,-38.099999999999994)" fill="#aa3377"></circle><circle r="1.1302999999999999" stroke-width="0.1" stroke="black" class="4-40b" transform="matrix(1,0,0,1,120,50.8)" fill="#aa3377"></circle><circle r="1.1302999999999999" stroke-width="0.1" stroke="black" class="4-40b" transform="matrix(1,0,0,1,120,-50.8)" fill="#aa3377"></circle></g><g transform="matrix(1,0,0,1,-80,0)"><circle r="1.1302999999999999" stroke-width="0.1" stroke="black" class="4-40b" transform="matrix(1,0,0,1,0,12.7)" fill="#aa3377"></circle><circle r="1.1302999999999999" stroke-width="0.1" stroke="black" class="4-40b" transform="matrix(1,0,0,1,0,-12.7)" fill="#aa3377"></circle><circle r="1.1302999999999999" stroke-width="0.1" stroke="black" class="4-40b" transform="matrix(1,0,0,1,0,25.4)" fill="#aa3377"></circle><circle r="1.1302999999999999" stroke-width="0.1" stroke="black" class="4-40b" transform="matrix(1,0,0,1,0,-25.4)" fill="#aa3377"></circle><circle r="1.1302999999999999" stroke-width="0.1" stroke="black" class="4-40b" transform="matrix(1,0,0,1,0,38.099999999999994)" fill="#aa3377"></circle><circle r="1.1302999999999999" stroke-width="0.1" stroke="black" class="4-40b" transform="matrix(1,0,0,1,0,-38.099999999999994)" fill="#aa3377"></circle></g><g transform="matrix(1,0,0,1,-80,0)"><circle r="1.1302999999999999" stroke-width="0.1" stroke="black" class="4-40b" transform="matrix(1,0,0,1,12.7,0)" fill="#aa3377"></circle><circle r="1.1302999999999999" stroke-width="0.1" stroke="black" class="4-40b" transform="matrix(1,0,0,1,-12.7,0)" fill="#aa3377"></circle><circle r="1.1302999999999999" stroke-width="0.1" stroke="black" class="4-40b" transform="matrix(1,0,0,1,25.4,0)" fill="#aa3377"></circle><circle r="1.1302999999999999" stroke-width="0.1" stroke="black" class="4-40b" transform="matrix(1,0,0,1,-25.4,0)" fill="#aa3377"></circle></g><circle r="1.1302999999999999" stroke-width="0.1" stroke="black" class="4-40b" transform="matrix(1,0,0,1,-80,0)" fill="#aa3377"></circle><circle r="5.3578125" class="npt" fill="#ee6677" stroke-width="0.1" stroke="black" transform="matrix(1,0,0,1,85,80)"></circle><circle r="5.3578125" class="npt" fill="#ee6677" stroke-width="0.1" stroke="black" transform="matrix(1,0,0,1,85,-80)"></circle><circle r="2.5527" class="q-20" fill="#228833" stroke-width="0.1" stroke="black" transform="matrix(1,0,0,1,-63,95)"></circle><circle r="2.5527" class="q-20" fill="#228833" stroke-width="0.1" stroke="black" transform="matrix(1,0,0,1,-63,-95)"></circle><circle r="0.889" class="2-56" fill="#bbbbbb" transform="matrix(1,0,0,1,125,233)"></circle><circle r="0.889" class="2-56" fill="#bbbbbb" transform="matrix(1,0,0,1,125,233)"></circle><circle r="0.889" class="2-56" fill="#bbbbbb" transform="matrix(1,0,0,1,125,233)"></circle><circle r="0.889" class="2-56" fill="#bbbbbb" transform="matrix(1,0,0,1,125,233)"></circle><circle r="0.889" class="2-56" fill="#bbbbbb" transform="matrix(1,0,0,1,125,233)"></circle><circle r="0.889" class="2-56" fill="#bbbbbb" transform="matrix(1,0,0,1,125,233)"></circle><circle r="0.889" class="2-56" fill="#bbbbbb" transform="matrix(1,0,0,1,125,233)"></circle><circle r="0.889" class="2-56" fill="#bbbbbb" transform="matrix(1,0,0,1,125,233)"></circle><g transform="matrix(1,0,0,1,125,125)"><circle r="5.3578125" fill="#ee6677" stroke-width="0.1" stroke="black" transform="matrix(1,0,0,1,0,0)"></circle><text font-family="Helvetica" font-size="10" text-anchor="left" alignment-baseline="middle" transform="matrix(1,0,0,1,20,0)" svgjs:data="{&quot;leading&quot;:&quot;1.5em&quot;}">2</text><text font-family="Helvetica" font-size="10" text-anchor="left" alignment-baseline="middle" transform="matrix(1,0,0,1,50,0)" svgjs:data="{&quot;leading&quot;:&quot;1.5em&quot;}">Tap thru 1/4 NPT, start tap from the other side</text><circle r="2.5527" fill="#228833" stroke-width="0.1" stroke="black" transform="matrix(1,0,0,1,0,18)"></circle><text font-family="Helvetica" font-size="10" text-anchor="left" alignment-baseline="middle" transform="matrix(1,0,0,1,20,18)" svgjs:data="{&quot;leading&quot;:&quot;1.5em&quot;}">2</text><text font-family="Helvetica" font-size="10" text-anchor="left" alignment-baseline="middle" transform="matrix(1,0,0,1,50,18)" svgjs:data="{&quot;leading&quot;:&quot;1.5em&quot;}">Tap thru 1/4-20</text><circle r="2.1" fill="#4477aa" stroke-width="0.1" stroke="black" transform="matrix(1,0,0,1,0,36)"></circle><text font-family="Helvetica" font-size="10" text-anchor="left" alignment-baseline="middle" transform="matrix(1,0,0,1,20,36)" svgjs:data="{&quot;leading&quot;:&quot;1.5em&quot;}">12</text><text font-family="Helvetica" font-size="10" text-anchor="left" alignment-baseline="middle" transform="matrix(1,0,0,1,50,36)" svgjs:data="{&quot;leading&quot;:&quot;1.5em&quot;}">Tap thru M5</text><circle r="1.65" fill="#ccbb44" stroke-width="0.1" stroke="black" transform="matrix(1,0,0,1,0,54)"></circle><text font-family="Helvetica" font-size="10" text-anchor="left" alignment-baseline="middle" transform="matrix(1,0,0,1,20,54)" svgjs:data="{&quot;leading&quot;:&quot;1.5em&quot;}">6</text><text font-family="Helvetica" font-size="10" text-anchor="left" alignment-baseline="middle" transform="matrix(1,0,0,1,50,54)" svgjs:data="{&quot;leading&quot;:&quot;1.5em&quot;}">M4 Clearance Hole</text><circle r="1.1302999999999999" fill="#66ccee" stroke-width="0.1" stroke="black" transform="matrix(1,0,0,1,0,72)"></circle><text font-family="Helvetica" font-size="10" text-anchor="left" alignment-baseline="middle" transform="matrix(1,0,0,1,20,72)" svgjs:data="{&quot;leading&quot;:&quot;1.5em&quot;}">20</text><text font-family="Helvetica" font-size="10" text-anchor="left" alignment-baseline="middle" transform="matrix(1,0,0,1,50,72)" svgjs:data="{&quot;leading&quot;:&quot;1.5em&quot;}">Tap thru 4-40</text><circle r="1.1302999999999999" fill="#aa3377" stroke-width="0.1" stroke="black" transform="matrix(1,0,0,1,0,90)"></circle><text font-family="Helvetica" font-size="10" text-anchor="left" alignment-baseline="middle" transform="matrix(1,0,0,1,20,90)" svgjs:data="{&quot;leading&quot;:&quot;1.5em&quot;}">29</text><text font-family="Helvetica" font-size="10" text-anchor="left" alignment-baseline="middle" transform="matrix(1,0,0,1,50,90)" svgjs:data="{&quot;leading&quot;:&quot;1.5em&quot;}">Blind Tap 4-40</text><circle r="0.889" fill="#bbbbbb" stroke-width="0.1" stroke="black" transform="matrix(1,0,0,1,0,108)"></circle><text font-family="Helvetica" font-size="10" text-anchor="left" alignment-baseline="middle" transform="matrix(1,0,0,1,20,108)" svgjs:data="{&quot;leading&quot;:&quot;1.5em&quot;}">8</text><text font-family="Helvetica" font-size="10" text-anchor="left" alignment-baseline="middle" transform="matrix(1,0,0,1,50,108)" svgjs:data="{&quot;leading&quot;:&quot;1.5em&quot;}">Radial Holes 2-56 Blind Tap - 7.4mm Depth</text></g></svg>