<svg xmlns="http://www.w3.org/2000/svg" version="1.1" xmlns:xlink="http://www.w3.org/1999/xlink" xmlns:svgjs="http://svgjs.com/svgjs" width="1500" height="750" viewBox="-250 -250 1000 500"><g><line x1="-250" y1="0" x2="250" y2="0" stroke-opacity="0.6" stroke-width="0.1" stroke="grey"></line><line x1="0" y1="-250" x2="0" y2="250" stroke-opacity="0.6" stroke-width="0.1" stroke="grey"></line></g><circle r="88.89999999999999" stroke-width="0.1" stroke="black" fill="none"></circle><g><circle r="2.5" fill="#ee6677" stroke-width="0.1" stroke="black" class="M6" transform="matrix(1,0,0,1,82.55,0)"></circle><circle r="2.5" fill="#ee6677" stroke-width="0.1" stroke="black" class="M6" transform="matrix(1,0,0,1,41.275000000000006,71.49039708240541)"></circle><circle r="2.5" fill="#ee6677" stroke-width="0.1" stroke="black" class="M6" transform="matrix(1,0,0,1,-41.27499999999998,71.49039708240541)"></circle><circle r="2.5" fill="#ee6677" stroke-width="0.1" stroke="black" class="M6" transform="matrix(1,0,0,1,-82.55,1.0109459326961401e-14)"></circle><circle r="2.5" fill="#ee6677" stroke-width="0.1" stroke="black" class="M6" transform="matrix(1,0,0,1,-41.275000000000034,-71.4903970824054)"></circle><circle r="2.5" fill="#ee6677" stroke-width="0.1" stroke="black" class="M6" transform="matrix(1,0,0,1,41.275000000000006,-71.49039708240541)"></circle></g><g transform="matrix(1,0,0,1,125,125)"><circle r="2.5" fill="#ee6677" stroke-width="0.1" stroke="black" transform="matrix(1,0,0,1,0,0)"></circle><text font-family="Helvetica" font-size="10" text-anchor="left" alignment-baseline="middle" transform="matrix(1,0,0,1,20,0)" svgjs:data="{&quot;leading&quot;:&quot;1.5em&quot;}">6</text><text font-family="Helvetica" font-size="10" text-anchor="left" alignment-baseline="middle" transform="matrix(1,0,0,1,50,0)" svgjs:data="{&quot;leading&quot;:&quot;1.5em&quot;}">M6 Clearance Hole</text></g></svg>